<?xml version="1.0" encoding="utf-8" standalone="no"?>
<!DOCTYPE svg PUBLIC "-//W3C//DTD SVG 1.1//EN"
  "http://www.w3.org/Graphics/SVG/1.1/DTD/svg11.dtd">
<svg xmlns:xlink="http://www.w3.org/1999/xlink" width="587.229688pt" height="351.263145pt" viewBox="0 0 587.229688 351.263145" xmlns="http://www.w3.org/2000/svg" version="1.1">
 <metadata>
  <rdf:RDF xmlns:dc="http://purl.org/dc/elements/1.1/" xmlns:cc="http://creativecommons.org/ns#" xmlns:rdf="http://www.w3.org/1999/02/22-rdf-syntax-ns#">
   <cc:Work>
    <dc:type rdf:resource="http://purl.org/dc/dcmitype/StillImage"/>
    <dc:date>2026-06-22T14:45:40.268767</dc:date>
    <dc:format>image/svg+xml</dc:format>
    <dc:creator>
     <cc:Agent>
      <dc:title>Matplotlib v3.11.0, https://matplotlib.org/</dc:title>
     </cc:Agent>
    </dc:creator>
   </cc:Work>
  </rdf:RDF>
 </metadata>
 <defs>
  <style type="text/css">*{stroke-linejoin: round; stroke-linecap: butt}</style>
 </defs>
 <g id="figure_1">
  <g id="patch_1">
   <path d="M 0 351.263145 
L 587.229688 351.263145 
L 587.229688 0 
L 0 0 
L 0 351.263145 
z
" style="fill: none"/>
  </g>
  <g id="axes_1">
   <g id="patch_2">
    <path d="M 40.925781 313.062363 
L 543.125781 313.062363 
L 543.125781 35.862363 
L 40.925781 35.862363 
z
" style="fill: #ffffff"/>
   </g>
   <g id="FillBetweenPolyCollection_1">
    <defs>
     <path id="m8d93e35c53" d="M 43.115209 -38.200781 
L 43.115209 -302.200781 
L 45.52358 -300.153865 
L 47.93195 -299.344762 
L 50.340321 -297.854886 
L 52.529749 -296.741549 
L 54.938119 -296.482083 
L 57.34649 -296.204367 
L 59.535917 -296.009665 
L 61.944288 -295.325395 
L 64.352659 -294.144989 
L 66.761029 -293.397192 
L 68.950457 -292.378483 
L 71.358828 -291.345823 
L 73.767198 -290.416867 
L 75.956626 -289.325746 
L 78.364997 -294.182683 
L 80.773367 -293.930041 
L 82.962795 -293.244604 
L 85.371165 -292.743377 
L 87.779536 -292.520591 
L 90.187907 -291.648423 
L 92.377334 -291.053926 
L 94.785705 -289.948223 
L 97.194076 -288.536251 
L 99.383503 -287.112826 
L 101.791874 -286.089005 
L 104.200244 -285.552626 
L 106.608615 -285.193271 
L 108.798043 -284.922167 
L 111.206413 -284.654224 
L 113.614784 -279.121494 
L 115.804212 -278.82361 
L 118.212582 -278.82361 
L 120.620953 -278.82361 
L 123.029323 -278.82361 
L 125.218751 -278.194909 
L 127.627122 -276.851542 
L 130.035492 -275.355099 
L 132.22492 -274.435449 
L 134.633291 -274.435449 
L 137.041661 -274.435449 
L 139.450032 -274.435449 
L 141.63946 -273.744823 
L 144.04783 -273.010581 
L 146.456201 -272.354968 
L 148.645629 -272.008614 
L 151.053999 -272.008614 
L 153.46237 -272.008614 
L 155.87074 -272.008614 
L 158.060168 -272.008614 
L 160.468539 -271.891541 
L 162.876909 -271.280465 
L 165.28528 -270.960865 
L 167.474708 -270.702091 
L 169.883078 -270.288675 
L 172.291449 -269.278139 
L 174.699819 -268.681283 
L 177.10819 -268.729983 
L 179.516561 -268.765372 
L 181.705988 -268.765372 
L 184.114359 -268.395538 
L 186.522729 -267.068063 
L 188.9311 -266.439942 
L 191.120528 -266.17962 
L 193.528898 -265.920965 
L 195.937269 -265.539755 
L 198.126697 -264.83265 
L 200.535067 -264.2091 
L 202.943438 -263.41122 
L 205.132866 -263.142856 
L 207.541236 -262.809991 
L 209.949607 -262.69575 
L 212.357977 -261.97283 
L 214.547405 -261.97283 
L 216.955776 -261.200697 
L 219.364146 -260.390751 
L 221.772517 -259.933277 
L 223.961945 -259.758197 
L 226.370315 -259.758197 
L 228.778686 -259.352598 
L 230.968114 -259.094186 
L 233.376484 -258.839864 
L 235.784855 -258.580636 
L 238.193225 -257.569797 
L 240.382653 -256.594288 
L 242.791024 -255.775002 
L 245.199394 -254.851315 
L 247.388822 -253.537903 
L 249.797193 -253.259119 
L 252.205563 -253.259119 
L 254.394991 -253.259119 
L 256.803362 -253.053201 
L 259.211732 -252.418612 
L 261.620103 -251.526184 
L 263.809531 -250.955872 
L 266.217901 -250.955872 
L 268.626272 -250.955872 
L 270.8157 -250.337841 
L 273.22407 -249.721648 
L 275.632441 -248.683726 
L 278.040811 -248.099536 
L 280.230239 -248.099536 
L 282.63861 -246.852555 
L 285.04698 -245.99246 
L 287.455351 -244.860747 
L 289.644779 -244.555775 
L 292.053149 -244.151408 
L 294.46152 -242.713387 
L 296.650947 -241.825781 
L 299.059318 -240.645862 
L 301.467689 -239.244823 
L 303.657116 -237.166483 
L 306.065487 -235.419473 
L 308.473858 -235.061217 
L 310.882228 -234.573624 
L 313.071656 -234.303225 
L 315.480026 -233.977731 
L 317.888397 -233.709479 
L 320.077825 -233.435062 
L 322.486195 -233.168601 
L 324.894566 -231.553524 
L 327.083994 -230.755506 
L 329.492364 -229.854924 
L 331.900735 -228.415203 
L 334.309106 -227.689827 
L 336.498533 -227.428596 
L 338.906904 -227.172094 
L 341.315274 -226.85208 
L 343.504702 -226.470073 
L 345.913073 -225.224455 
L 348.321443 -223.084077 
L 350.510871 -222.198901 
L 352.919242 -220.424511 
L 355.327612 -218.643923 
L 357.735983 -216.591593 
L 359.925411 -213.732774 
L 362.333781 -212.794248 
L 364.742152 -210.926936 
L 366.93158 -210.668037 
L 369.33995 -209.948463 
L 371.748321 -208.806568 
L 373.937749 -207.907462 
L 376.346119 -207.201252 
L 378.75449 -206.938519 
L 381.16286 -205.509034 
L 383.352288 -202.946328 
L 385.760659 -202.946328 
L 388.169029 -201.240081 
L 390.358457 -199.497332 
L 392.766828 -196.58214 
L 395.175198 -196.589234 
L 397.364626 -195.522635 
L 399.772997 -194.746747 
L 402.181367 -194.486833 
L 404.589738 -194.229871 
L 406.779165 -193.908822 
L 409.187536 -193.713488 
L 411.595907 -192.283397 
L 413.785334 -190.15004 
L 416.193705 -188.786321 
L 418.602076 -186.648505 
L 420.791503 -184.734173 
L 423.199874 -193.926032 
L 425.608244 -191.987014 
L 428.016615 -190.062072 
L 430.206043 -188.379049 
L 432.614413 -187.534629 
L 435.022784 -186.5241 
L 437.212212 -185.452126 
L 439.620582 -184.646751 
L 442.028953 -184.390032 
L 444.218381 -173.803734 
L 446.626751 -173.805381 
L 449.035122 -171.808844 
L 451.443492 -169.934624 
L 453.63292 -167.997431 
L 456.041291 -166.056141 
L 458.449661 -164.114054 
L 460.639089 -162.17879 
L 463.04746 -160.242743 
L 465.45583 -158.30497 
L 467.645258 -156.36312 
L 470.053629 -153.926663 
L 472.461999 -153.333575 
L 474.87037 -152.208613 
L 477.059798 -151.943872 
L 479.468168 -151.057675 
L 481.876539 -149.78932 
L 484.065967 -148.95287 
L 486.474337 -148.491939 
L 488.882708 -147.211366 
L 491.291078 -145.435619 
L 493.480506 -143.979736 
L 495.888877 -143.389085 
L 498.297247 -141.809574 
L 500.486675 -140.845874 
L 502.895046 -140.87307 
L 505.303416 -140.214671 
L 507.711787 -140.250158 
L 509.901214 -140.287727 
L 512.309585 -140.315456 
L 514.717956 -140.345662 
L 516.907383 -140.385602 
L 519.315754 -140.423526 
L 519.315754 -38.200781 
L 519.315754 -38.200781 
L 516.907383 -38.200781 
L 514.717956 -38.200781 
L 512.309585 -38.200781 
L 509.901214 -38.200781 
L 507.711787 -38.200781 
L 505.303416 -38.200781 
L 502.895046 -38.200781 
L 500.486675 -38.200781 
L 498.297247 -38.200781 
L 495.888877 -38.200781 
L 493.480506 -38.200781 
L 491.291078 -38.200781 
L 488.882708 -38.200781 
L 486.474337 -38.200781 
L 484.065967 -38.200781 
L 481.876539 -38.200781 
L 479.468168 -38.200781 
L 477.059798 -38.200781 
L 474.87037 -38.200781 
L 472.461999 -38.200781 
L 470.053629 -38.200781 
L 467.645258 -38.200781 
L 465.45583 -38.200781 
L 463.04746 -38.200781 
L 460.639089 -38.200781 
L 458.449661 -38.200781 
L 456.041291 -38.200781 
L 453.63292 -38.200781 
L 451.443492 -38.200781 
L 449.035122 -38.200781 
L 446.626751 -38.200781 
L 444.218381 -38.200781 
L 442.028953 -38.200781 
L 439.620582 -38.200781 
L 437.212212 -38.200781 
L 435.022784 -38.200781 
L 432.614413 -38.200781 
L 430.206043 -38.200781 
L 428.016615 -38.200781 
L 425.608244 -38.200781 
L 423.199874 -38.200781 
L 420.791503 -38.200781 
L 418.602076 -38.200781 
L 416.193705 -38.200781 
L 413.785334 -38.200781 
L 411.595907 -38.200781 
L 409.187536 -38.200781 
L 406.779165 -38.200781 
L 404.589738 -38.200781 
L 402.181367 -38.200781 
L 399.772997 -38.200781 
L 397.364626 -38.200781 
L 395.175198 -38.200781 
L 392.766828 -38.200781 
L 390.358457 -38.200781 
L 388.169029 -38.200781 
L 385.760659 -38.200781 
L 383.352288 -38.200781 
L 381.16286 -38.200781 
L 378.75449 -38.200781 
L 376.346119 -38.200781 
L 373.937749 -38.200781 
L 371.748321 -38.200781 
L 369.33995 -38.200781 
L 366.93158 -38.200781 
L 364.742152 -38.200781 
L 362.333781 -38.200781 
L 359.925411 -38.200781 
L 357.735983 -38.200781 
L 355.327612 -38.200781 
L 352.919242 -38.200781 
L 350.510871 -38.200781 
L 348.321443 -38.200781 
L 345.913073 -38.200781 
L 343.504702 -38.200781 
L 341.315274 -38.200781 
L 338.906904 -38.200781 
L 336.498533 -38.200781 
L 334.309106 -38.200781 
L 331.900735 -38.200781 
L 329.492364 -38.200781 
L 327.083994 -38.200781 
L 324.894566 -38.200781 
L 322.486195 -38.200781 
L 320.077825 -38.200781 
L 317.888397 -38.200781 
L 315.480026 -38.200781 
L 313.071656 -38.200781 
L 310.882228 -38.200781 
L 308.473858 -38.200781 
L 306.065487 -38.200781 
L 303.657116 -38.200781 
L 301.467689 -38.200781 
L 299.059318 -38.200781 
L 296.650947 -38.200781 
L 294.46152 -38.200781 
L 292.053149 -38.200781 
L 289.644779 -38.200781 
L 287.455351 -38.200781 
L 285.04698 -38.200781 
L 282.63861 -38.200781 
L 280.230239 -38.200781 
L 278.040811 -38.200781 
L 275.632441 -38.200781 
L 273.22407 -38.200781 
L 270.8157 -38.200781 
L 268.626272 -38.200781 
L 266.217901 -38.200781 
L 263.809531 -38.200781 
L 261.620103 -38.200781 
L 259.211732 -38.200781 
L 256.803362 -38.200781 
L 254.394991 -38.200781 
L 252.205563 -38.200781 
L 249.797193 -38.200781 
L 247.388822 -38.200781 
L 245.199394 -38.200781 
L 242.791024 -38.200781 
L 240.382653 -38.200781 
L 238.193225 -38.200781 
L 235.784855 -38.200781 
L 233.376484 -38.200781 
L 230.968114 -38.200781 
L 228.778686 -38.200781 
L 226.370315 -38.200781 
L 223.961945 -38.200781 
L 221.772517 -38.200781 
L 219.364146 -38.200781 
L 216.955776 -38.200781 
L 214.547405 -38.200781 
L 212.357977 -38.200781 
L 209.949607 -38.200781 
L 207.541236 -38.200781 
L 205.132866 -38.200781 
L 202.943438 -38.200781 
L 200.535067 -38.200781 
L 198.126697 -38.200781 
L 195.937269 -38.200781 
L 193.528898 -38.200781 
L 191.120528 -38.200781 
L 188.9311 -38.200781 
L 186.522729 -38.200781 
L 184.114359 -38.200781 
L 181.705988 -38.200781 
L 179.516561 -38.200781 
L 177.10819 -38.200781 
L 174.699819 -38.200781 
L 172.291449 -38.200781 
L 169.883078 -38.200781 
L 167.474708 -38.200781 
L 165.28528 -38.200781 
L 162.876909 -38.200781 
L 160.468539 -38.200781 
L 158.060168 -38.200781 
L 155.87074 -38.200781 
L 153.46237 -38.200781 
L 151.053999 -38.200781 
L 148.645629 -38.200781 
L 146.456201 -38.200781 
L 144.04783 -38.200781 
L 141.63946 -38.200781 
L 139.450032 -38.200781 
L 137.041661 -38.200781 
L 134.633291 -38.200781 
L 132.22492 -38.200781 
L 130.035492 -38.200781 
L 127.627122 -38.200781 
L 125.218751 -38.200781 
L 123.029323 -38.200781 
L 120.620953 -38.200781 
L 118.212582 -38.200781 
L 115.804212 -38.200781 
L 113.614784 -38.200781 
L 111.206413 -38.200781 
L 108.798043 -38.200781 
L 106.608615 -38.200781 
L 104.200244 -38.200781 
L 101.791874 -38.200781 
L 99.383503 -38.200781 
L 97.194076 -38.200781 
L 94.785705 -38.200781 
L 92.377334 -38.200781 
L 90.187907 -38.200781 
L 87.779536 -38.200781 
L 85.371165 -38.200781 
L 82.962795 -38.200781 
L 80.773367 -38.200781 
L 78.364997 -38.200781 
L 75.956626 -38.200781 
L 73.767198 -38.200781 
L 71.358828 -38.200781 
L 68.950457 -38.200781 
L 66.761029 -38.200781 
L 64.352659 -38.200781 
L 61.944288 -38.200781 
L 59.535917 -38.200781 
L 57.34649 -38.200781 
L 54.938119 -38.200781 
L 52.529749 -38.200781 
L 50.340321 -38.200781 
L 47.93195 -38.200781 
L 45.52358 -38.200781 
L 43.115209 -38.200781 
z
" style="stroke: #3ecf8e; stroke-opacity: 0.12"/>
    </defs>
    <g clip-path="url(#p7cd7d42b31)">
     <use xlink:href="#m8d93e35c53" x="0" y="351.263145" style="fill: #3ecf8e; fill-opacity: 0.12; stroke: #3ecf8e; stroke-opacity: 0.12"/>
    </g>
   </g>
   <g id="matplotlib.axis_1">
    <g id="xtick_1">
     <g id="line2d_1">
      <path d="M 40.925781 313.062363 
L 40.925781 35.862363 
" clip-path="url(#p7cd7d42b31)" style="fill: none; stroke: #b0b0b0; stroke-opacity: 0.25; stroke-width: 0.8; stroke-linecap: square"/>
     </g>
     <g id="line2d_2">
      <defs>
       <path id="m84b9e52fbe" d="M 0 0 
L 0 3.5 
" style="stroke: #000000; stroke-width: 0.8"/>
      </defs>
      <g>
       <use xlink:href="#m84b9e52fbe" x="40.925781" y="313.062363" style="stroke: #000000; stroke-width: 0.8"/>
      </g>
     </g>
     <g id="text_1">
      <!-- 0 -->
      <g transform="translate(37.744531 327.66002) scale(0.1 -0.1)">
       <defs>
        <path id="DejaVuSans-13" d="M 2034 4250 
Q 1547 4250 1301 3770 
Q 1056 3291 1056 2328 
Q 1056 1369 1301 889 
Q 1547 409 2034 409 
Q 2525 409 2770 889 
Q 3016 1369 3016 2328 
Q 3016 3291 2770 3770 
Q 2525 4250 2034 4250 
z
M 2034 4750 
Q 2819 4750 3233 4129 
Q 3647 3509 3647 2328 
Q 3647 1150 3233 529 
Q 2819 -91 2034 -91 
Q 1250 -91 836 529 
Q 422 1150 422 2328 
Q 422 3509 836 4129 
Q 1250 4750 2034 4750 
z
" transform="scale(0.015625)"/>
       </defs>
       <use xlink:href="#DejaVuSans-13"/>
      </g>
     </g>
    </g>
    <g id="xtick_2">
     <g id="line2d_3">
      <path d="M 106.608615 313.062363 
L 106.608615 35.862363 
" clip-path="url(#p7cd7d42b31)" style="fill: none; stroke: #b0b0b0; stroke-opacity: 0.25; stroke-width: 0.8; stroke-linecap: square"/>
     </g>
     <g id="line2d_4">
      <g>
       <use xlink:href="#m84b9e52fbe" x="106.608615" y="313.062363" style="stroke: #000000; stroke-width: 0.8"/>
      </g>
     </g>
     <g id="text_2">
      <!-- 5 -->
      <g transform="translate(103.427365 327.66002) scale(0.1 -0.1)">
       <defs>
        <path id="DejaVuSans-18" d="M 691 4666 
L 3169 4666 
L 3169 4134 
L 1269 4134 
L 1269 2991 
Q 1406 3038 1543 3061 
Q 1681 3084 1819 3084 
Q 2600 3084 3056 2656 
Q 3513 2228 3513 1497 
Q 3513 744 3044 326 
Q 2575 -91 1722 -91 
Q 1428 -91 1123 -41 
Q 819 9 494 109 
L 494 744 
Q 775 591 1075 516 
Q 1375 441 1709 441 
Q 2250 441 2565 725 
Q 2881 1009 2881 1497 
Q 2881 1984 2565 2268 
Q 2250 2553 1709 2553 
Q 1456 2553 1204 2497 
Q 953 2441 691 2322 
L 691 4666 
z
" transform="scale(0.015625)"/>
       </defs>
       <use xlink:href="#DejaVuSans-18"/>
      </g>
     </g>
    </g>
    <g id="xtick_3">
     <g id="line2d_5">
      <path d="M 172.291449 313.062363 
L 172.291449 35.862363 
" clip-path="url(#p7cd7d42b31)" style="fill: none; stroke: #b0b0b0; stroke-opacity: 0.25; stroke-width: 0.8; stroke-linecap: square"/>
     </g>
     <g id="line2d_6">
      <g>
       <use xlink:href="#m84b9e52fbe" x="172.291449" y="313.062363" style="stroke: #000000; stroke-width: 0.8"/>
      </g>
     </g>
     <g id="text_3">
      <!-- 10 -->
      <g transform="translate(165.928949 327.66002) scale(0.1 -0.1)">
       <defs>
        <path id="DejaVuSans-14" d="M 794 531 
L 1825 531 
L 1825 4091 
L 703 3866 
L 703 4441 
L 1819 4666 
L 2450 4666 
L 2450 531 
L 3481 531 
L 3481 0 
L 794 0 
L 794 531 
z
" transform="scale(0.015625)"/>
       </defs>
       <use xlink:href="#DejaVuSans-14"/>
       <use xlink:href="#DejaVuSans-13" transform="translate(63.625 0)"/>
      </g>
     </g>
    </g>
    <g id="xtick_4">
     <g id="line2d_7">
      <path d="M 237.974283 313.062363 
L 237.974283 35.862363 
" clip-path="url(#p7cd7d42b31)" style="fill: none; stroke: #b0b0b0; stroke-opacity: 0.25; stroke-width: 0.8; stroke-linecap: square"/>
     </g>
     <g id="line2d_8">
      <g>
       <use xlink:href="#m84b9e52fbe" x="237.974283" y="313.062363" style="stroke: #000000; stroke-width: 0.8"/>
      </g>
     </g>
     <g id="text_4">
      <!-- 15 -->
      <g transform="translate(231.611783 327.66002) scale(0.1 -0.1)">
       <use xlink:href="#DejaVuSans-14"/>
       <use xlink:href="#DejaVuSans-18" transform="translate(63.625 0)"/>
      </g>
     </g>
    </g>
    <g id="xtick_5">
     <g id="line2d_9">
      <path d="M 303.657116 313.062363 
L 303.657116 35.862363 
" clip-path="url(#p7cd7d42b31)" style="fill: none; stroke: #b0b0b0; stroke-opacity: 0.25; stroke-width: 0.8; stroke-linecap: square"/>
     </g>
     <g id="line2d_10">
      <g>
       <use xlink:href="#m84b9e52fbe" x="303.657116" y="313.062363" style="stroke: #000000; stroke-width: 0.8"/>
      </g>
     </g>
     <g id="text_5">
      <!-- 20 -->
      <g transform="translate(297.294616 327.66002) scale(0.1 -0.1)">
       <defs>
        <path id="DejaVuSans-15" d="M 1228 531 
L 3431 531 
L 3431 0 
L 469 0 
L 469 531 
Q 828 903 1448 1529 
Q 2069 2156 2228 2338 
Q 2531 2678 2651 2914 
Q 2772 3150 2772 3378 
Q 2772 3750 2511 3984 
Q 2250 4219 1831 4219 
Q 1534 4219 1204 4116 
Q 875 4013 500 3803 
L 500 4441 
Q 881 4594 1212 4672 
Q 1544 4750 1819 4750 
Q 2544 4750 2975 4387 
Q 3406 4025 3406 3419 
Q 3406 3131 3298 2873 
Q 3191 2616 2906 2266 
Q 2828 2175 2409 1742 
Q 1991 1309 1228 531 
z
" transform="scale(0.015625)"/>
       </defs>
       <use xlink:href="#DejaVuSans-15"/>
       <use xlink:href="#DejaVuSans-13" transform="translate(63.625 0)"/>
      </g>
     </g>
    </g>
    <g id="xtick_6">
     <g id="line2d_11">
      <path d="M 369.33995 313.062363 
L 369.33995 35.862363 
" clip-path="url(#p7cd7d42b31)" style="fill: none; stroke: #b0b0b0; stroke-opacity: 0.25; stroke-width: 0.8; stroke-linecap: square"/>
     </g>
     <g id="line2d_12">
      <g>
       <use xlink:href="#m84b9e52fbe" x="369.33995" y="313.062363" style="stroke: #000000; stroke-width: 0.8"/>
      </g>
     </g>
     <g id="text_6">
      <!-- 25 -->
      <g transform="translate(362.97745 327.66002) scale(0.1 -0.1)">
       <use xlink:href="#DejaVuSans-15"/>
       <use xlink:href="#DejaVuSans-18" transform="translate(63.625 0)"/>
      </g>
     </g>
    </g>
    <g id="xtick_7">
     <g id="line2d_13">
      <path d="M 435.022784 313.062363 
L 435.022784 35.862363 
" clip-path="url(#p7cd7d42b31)" style="fill: none; stroke: #b0b0b0; stroke-opacity: 0.25; stroke-width: 0.8; stroke-linecap: square"/>
     </g>
     <g id="line2d_14">
      <g>
       <use xlink:href="#m84b9e52fbe" x="435.022784" y="313.062363" style="stroke: #000000; stroke-width: 0.8"/>
      </g>
     </g>
     <g id="text_7">
      <!-- 30 -->
      <g transform="translate(428.660284 327.66002) scale(0.1 -0.1)">
       <defs>
        <path id="DejaVuSans-16" d="M 2597 2516 
Q 3050 2419 3304 2112 
Q 3559 1806 3559 1356 
Q 3559 666 3084 287 
Q 2609 -91 1734 -91 
Q 1441 -91 1130 -33 
Q 819 25 488 141 
L 488 750 
Q 750 597 1062 519 
Q 1375 441 1716 441 
Q 2309 441 2620 675 
Q 2931 909 2931 1356 
Q 2931 1769 2642 2001 
Q 2353 2234 1838 2234 
L 1294 2234 
L 1294 2753 
L 1863 2753 
Q 2328 2753 2575 2939 
Q 2822 3125 2822 3475 
Q 2822 3834 2567 4026 
Q 2313 4219 1838 4219 
Q 1578 4219 1281 4162 
Q 984 4106 628 3988 
L 628 4550 
Q 988 4650 1302 4700 
Q 1616 4750 1894 4750 
Q 2613 4750 3031 4423 
Q 3450 4097 3450 3541 
Q 3450 3153 3228 2886 
Q 3006 2619 2597 2516 
z
" transform="scale(0.015625)"/>
       </defs>
       <use xlink:href="#DejaVuSans-16"/>
       <use xlink:href="#DejaVuSans-13" transform="translate(63.625 0)"/>
      </g>
     </g>
    </g>
    <g id="xtick_8">
     <g id="line2d_15">
      <path d="M 500.705618 313.062363 
L 500.705618 35.862363 
" clip-path="url(#p7cd7d42b31)" style="fill: none; stroke: #b0b0b0; stroke-opacity: 0.25; stroke-width: 0.8; stroke-linecap: square"/>
     </g>
     <g id="line2d_16">
      <g>
       <use xlink:href="#m84b9e52fbe" x="500.705618" y="313.062363" style="stroke: #000000; stroke-width: 0.8"/>
      </g>
     </g>
     <g id="text_8">
      <!-- 35 -->
      <g transform="translate(494.343118 327.66002) scale(0.1 -0.1)">
       <use xlink:href="#DejaVuSans-16"/>
       <use xlink:href="#DejaVuSans-18" transform="translate(63.625 0)"/>
      </g>
     </g>
    </g>
    <g id="text_9">
     <!-- elapsed (minutes) -->
     <g transform="translate(246.7375 341.660801) scale(0.1 -0.1)">
      <defs>
       <path id="DejaVuSans-48" d="M 3597 1894 
L 3597 1613 
L 953 1613 
Q 991 1019 1311 708 
Q 1631 397 2203 397 
Q 2534 397 2845 478 
Q 3156 559 3463 722 
L 3463 178 
Q 3153 47 2828 -22 
Q 2503 -91 2169 -91 
Q 1331 -91 842 396 
Q 353 884 353 1716 
Q 353 2575 817 3079 
Q 1281 3584 2069 3584 
Q 2775 3584 3186 3129 
Q 3597 2675 3597 1894 
z
M 3022 2063 
Q 3016 2534 2758 2815 
Q 2500 3097 2075 3097 
Q 1594 3097 1305 2825 
Q 1016 2553 972 2059 
L 3022 2063 
z
" transform="scale(0.015625)"/>
       <path id="DejaVuSans-4f" d="M 603 4863 
L 1178 4863 
L 1178 0 
L 603 0 
L 603 4863 
z
" transform="scale(0.015625)"/>
       <path id="DejaVuSans-44" d="M 2194 1759 
Q 1497 1759 1228 1600 
Q 959 1441 959 1056 
Q 959 750 1161 570 
Q 1363 391 1709 391 
Q 2188 391 2477 730 
Q 2766 1069 2766 1631 
L 2766 1759 
L 2194 1759 
z
M 3341 1997 
L 3341 0 
L 2766 0 
L 2766 531 
Q 2569 213 2275 61 
Q 1981 -91 1556 -91 
Q 1019 -91 701 211 
Q 384 513 384 1019 
Q 384 1609 779 1909 
Q 1175 2209 1959 2209 
L 2766 2209 
L 2766 2266 
Q 2766 2663 2505 2880 
Q 2244 3097 1772 3097 
Q 1472 3097 1187 3025 
Q 903 2953 641 2809 
L 641 3341 
Q 956 3463 1253 3523 
Q 1550 3584 1831 3584 
Q 2591 3584 2966 3190 
Q 3341 2797 3341 1997 
z
" transform="scale(0.015625)"/>
       <path id="DejaVuSans-53" d="M 1159 525 
L 1159 -1331 
L 581 -1331 
L 581 3500 
L 1159 3500 
L 1159 2969 
Q 1341 3281 1617 3432 
Q 1894 3584 2278 3584 
Q 2916 3584 3314 3078 
Q 3713 2572 3713 1747 
Q 3713 922 3314 415 
Q 2916 -91 2278 -91 
Q 1894 -91 1617 61 
Q 1341 213 1159 525 
z
M 3116 1747 
Q 3116 2381 2855 2742 
Q 2594 3103 2138 3103 
Q 1681 3103 1420 2742 
Q 1159 2381 1159 1747 
Q 1159 1113 1420 752 
Q 1681 391 2138 391 
Q 2594 391 2855 752 
Q 3116 1113 3116 1747 
z
" transform="scale(0.015625)"/>
       <path id="DejaVuSans-56" d="M 2834 3397 
L 2834 2853 
Q 2591 2978 2328 3040 
Q 2066 3103 1784 3103 
Q 1356 3103 1142 2972 
Q 928 2841 928 2578 
Q 928 2378 1081 2264 
Q 1234 2150 1697 2047 
L 1894 2003 
Q 2506 1872 2764 1633 
Q 3022 1394 3022 966 
Q 3022 478 2636 193 
Q 2250 -91 1575 -91 
Q 1294 -91 989 -36 
Q 684 19 347 128 
L 347 722 
Q 666 556 975 473 
Q 1284 391 1588 391 
Q 1994 391 2212 530 
Q 2431 669 2431 922 
Q 2431 1156 2273 1281 
Q 2116 1406 1581 1522 
L 1381 1569 
Q 847 1681 609 1914 
Q 372 2147 372 2553 
Q 372 3047 722 3315 
Q 1072 3584 1716 3584 
Q 2034 3584 2315 3537 
Q 2597 3491 2834 3397 
z
" transform="scale(0.015625)"/>
       <path id="DejaVuSans-47" d="M 2906 2969 
L 2906 4863 
L 3481 4863 
L 3481 0 
L 2906 0 
L 2906 525 
Q 2725 213 2448 61 
Q 2172 -91 1784 -91 
Q 1150 -91 751 415 
Q 353 922 353 1747 
Q 353 2572 751 3078 
Q 1150 3584 1784 3584 
Q 2172 3584 2448 3432 
Q 2725 3281 2906 2969 
z
M 947 1747 
Q 947 1113 1208 752 
Q 1469 391 1925 391 
Q 2381 391 2643 752 
Q 2906 1113 2906 1747 
Q 2906 2381 2643 2742 
Q 2381 3103 1925 3103 
Q 1469 3103 1208 2742 
Q 947 2381 947 1747 
z
" transform="scale(0.015625)"/>
       <path id="DejaVuSans-3" transform="scale(0.015625)"/>
       <path id="DejaVuSans-b" d="M 1984 4856 
Q 1566 4138 1362 3434 
Q 1159 2731 1159 2009 
Q 1159 1288 1364 580 
Q 1569 -128 1984 -844 
L 1484 -844 
Q 1016 -109 783 600 
Q 550 1309 550 2009 
Q 550 2706 781 3412 
Q 1013 4119 1484 4856 
L 1984 4856 
z
" transform="scale(0.015625)"/>
       <path id="DejaVuSans-50" d="M 3328 2828 
Q 3544 3216 3844 3400 
Q 4144 3584 4550 3584 
Q 5097 3584 5394 3201 
Q 5691 2819 5691 2113 
L 5691 0 
L 5113 0 
L 5113 2094 
Q 5113 2597 4934 2840 
Q 4756 3084 4391 3084 
Q 3944 3084 3684 2787 
Q 3425 2491 3425 1978 
L 3425 0 
L 2847 0 
L 2847 2094 
Q 2847 2600 2669 2842 
Q 2491 3084 2119 3084 
Q 1678 3084 1418 2786 
Q 1159 2488 1159 1978 
L 1159 0 
L 581 0 
L 581 3500 
L 1159 3500 
L 1159 2956 
Q 1356 3278 1631 3431 
Q 1906 3584 2284 3584 
Q 2666 3584 2933 3390 
Q 3200 3197 3328 2828 
z
" transform="scale(0.015625)"/>
       <path id="DejaVuSans-4c" d="M 603 3500 
L 1178 3500 
L 1178 0 
L 603 0 
L 603 3500 
z
M 603 4863 
L 1178 4863 
L 1178 4134 
L 603 4134 
L 603 4863 
z
" transform="scale(0.015625)"/>
       <path id="DejaVuSans-51" d="M 3513 2113 
L 3513 0 
L 2938 0 
L 2938 2094 
Q 2938 2591 2744 2837 
Q 2550 3084 2163 3084 
Q 1697 3084 1428 2787 
Q 1159 2491 1159 1978 
L 1159 0 
L 581 0 
L 581 3500 
L 1159 3500 
L 1159 2956 
Q 1366 3272 1645 3428 
Q 1925 3584 2291 3584 
Q 2894 3584 3203 3211 
Q 3513 2838 3513 2113 
z
" transform="scale(0.015625)"/>
       <path id="DejaVuSans-58" d="M 544 1381 
L 544 3500 
L 1119 3500 
L 1119 1403 
Q 1119 906 1312 657 
Q 1506 409 1894 409 
Q 2359 409 2629 706 
Q 2900 1003 2900 1516 
L 2900 3500 
L 3475 3500 
L 3475 0 
L 2900 0 
L 2900 538 
Q 2691 219 2414 64 
Q 2138 -91 1772 -91 
Q 1169 -91 856 284 
Q 544 659 544 1381 
z
M 1991 3584 
L 1991 3584 
z
" transform="scale(0.015625)"/>
       <path id="DejaVuSans-57" d="M 1172 4494 
L 1172 3500 
L 2356 3500 
L 2356 3053 
L 1172 3053 
L 1172 1153 
Q 1172 725 1289 603 
Q 1406 481 1766 481 
L 2356 481 
L 2356 0 
L 1766 0 
Q 1100 0 847 248 
Q 594 497 594 1153 
L 594 3053 
L 172 3053 
L 172 3500 
L 594 3500 
L 594 4494 
L 1172 4494 
z
" transform="scale(0.015625)"/>
       <path id="DejaVuSans-c" d="M 513 4856 
L 1013 4856 
Q 1481 4119 1714 3412 
Q 1947 2706 1947 2009 
Q 1947 1309 1714 600 
Q 1481 -109 1013 -844 
L 513 -844 
Q 928 -128 1133 580 
Q 1338 1288 1338 2009 
Q 1338 2731 1133 3434 
Q 928 4138 513 4856 
z
" transform="scale(0.015625)"/>
      </defs>
      <use xlink:href="#DejaVuSans-48"/>
      <use xlink:href="#DejaVuSans-4f" transform="translate(61.53125 0)"/>
      <use xlink:href="#DejaVuSans-44" transform="translate(89.3125 0)"/>
      <use xlink:href="#DejaVuSans-53" transform="translate(150.59375 0)"/>
      <use xlink:href="#DejaVuSans-56" transform="translate(214.078125 0)"/>
      <use xlink:href="#DejaVuSans-48" transform="translate(266.171875 0)"/>
      <use xlink:href="#DejaVuSans-47" transform="translate(327.703125 0)"/>
      <use xlink:href="#DejaVuSans-3" transform="translate(391.1875 0)"/>
      <use xlink:href="#DejaVuSans-b" transform="translate(422.96875 0)"/>
      <use xlink:href="#DejaVuSans-50" transform="translate(461.984375 0)"/>
      <use xlink:href="#DejaVuSans-4c" transform="translate(559.390625 0)"/>
      <use xlink:href="#DejaVuSans-51" transform="translate(587.171875 0)"/>
      <use xlink:href="#DejaVuSans-58" transform="translate(650.546875 0)"/>
      <use xlink:href="#DejaVuSans-57" transform="translate(713.921875 0)"/>
      <use xlink:href="#DejaVuSans-48" transform="translate(753.125 0)"/>
      <use xlink:href="#DejaVuSans-56" transform="translate(814.65625 0)"/>
      <use xlink:href="#DejaVuSans-c" transform="translate(866.75 0)"/>
     </g>
    </g>
   </g>
   <g id="matplotlib.axis_2">
    <g id="ytick_1">
     <g id="line2d_17">
      <path d="M 40.925781 313.062363 
L 543.125781 313.062363 
" clip-path="url(#p7cd7d42b31)" style="fill: none; stroke: #b0b0b0; stroke-opacity: 0.25; stroke-width: 0.8; stroke-linecap: square"/>
     </g>
     <g id="line2d_18">
      <defs>
       <path id="m3e4ece3def" d="M 0 0 
L -3.5 0 
" style="stroke: #000000; stroke-width: 0.8"/>
      </defs>
      <g>
       <use xlink:href="#m3e4ece3def" x="40.925781" y="313.062363" style="stroke: #000000; stroke-width: 0.8"/>
      </g>
     </g>
     <g id="text_10">
      <!-- 0 -->
      <g transform="translate(27.563281 316.861191) scale(0.1 -0.1)">
       <use xlink:href="#DejaVuSans-13"/>
      </g>
     </g>
    </g>
    <g id="ytick_2">
     <g id="line2d_19">
      <path d="M 40.925781 280.13023 
L 543.125781 280.13023 
" clip-path="url(#p7cd7d42b31)" style="fill: none; stroke: #b0b0b0; stroke-opacity: 0.25; stroke-width: 0.8; stroke-linecap: square"/>
     </g>
     <g id="line2d_20">
      <g>
       <use xlink:href="#m3e4ece3def" x="40.925781" y="280.13023" style="stroke: #000000; stroke-width: 0.8"/>
      </g>
     </g>
     <g id="text_11">
      <!-- 5 -->
      <g transform="translate(27.563281 283.929058) scale(0.1 -0.1)">
       <use xlink:href="#DejaVuSans-18"/>
      </g>
     </g>
    </g>
    <g id="ytick_3">
     <g id="line2d_21">
      <path d="M 40.925781 247.198096 
L 543.125781 247.198096 
" clip-path="url(#p7cd7d42b31)" style="fill: none; stroke: #b0b0b0; stroke-opacity: 0.25; stroke-width: 0.8; stroke-linecap: square"/>
     </g>
     <g id="line2d_22">
      <g>
       <use xlink:href="#m3e4ece3def" x="40.925781" y="247.198096" style="stroke: #000000; stroke-width: 0.8"/>
      </g>
     </g>
     <g id="text_12">
      <!-- 10 -->
      <g transform="translate(21.200781 250.996924) scale(0.1 -0.1)">
       <use xlink:href="#DejaVuSans-14"/>
       <use xlink:href="#DejaVuSans-13" transform="translate(63.625 0)"/>
      </g>
     </g>
    </g>
    <g id="ytick_4">
     <g id="line2d_23">
      <path d="M 40.925781 214.265963 
L 543.125781 214.265963 
" clip-path="url(#p7cd7d42b31)" style="fill: none; stroke: #b0b0b0; stroke-opacity: 0.25; stroke-width: 0.8; stroke-linecap: square"/>
     </g>
     <g id="line2d_24">
      <g>
       <use xlink:href="#m3e4ece3def" x="40.925781" y="214.265963" style="stroke: #000000; stroke-width: 0.8"/>
      </g>
     </g>
     <g id="text_13">
      <!-- 15 -->
      <g transform="translate(21.200781 218.064791) scale(0.1 -0.1)">
       <use xlink:href="#DejaVuSans-14"/>
       <use xlink:href="#DejaVuSans-18" transform="translate(63.625 0)"/>
      </g>
     </g>
    </g>
    <g id="ytick_5">
     <g id="line2d_25">
      <path d="M 40.925781 181.333829 
L 543.125781 181.333829 
" clip-path="url(#p7cd7d42b31)" style="fill: none; stroke: #b0b0b0; stroke-opacity: 0.25; stroke-width: 0.8; stroke-linecap: square"/>
     </g>
     <g id="line2d_26">
      <g>
       <use xlink:href="#m3e4ece3def" x="40.925781" y="181.333829" style="stroke: #000000; stroke-width: 0.8"/>
      </g>
     </g>
     <g id="text_14">
      <!-- 20 -->
      <g transform="translate(21.200781 185.132658) scale(0.1 -0.1)">
       <use xlink:href="#DejaVuSans-15"/>
       <use xlink:href="#DejaVuSans-13" transform="translate(63.625 0)"/>
      </g>
     </g>
    </g>
    <g id="ytick_6">
     <g id="line2d_27">
      <path d="M 40.925781 148.401696 
L 543.125781 148.401696 
" clip-path="url(#p7cd7d42b31)" style="fill: none; stroke: #b0b0b0; stroke-opacity: 0.25; stroke-width: 0.8; stroke-linecap: square"/>
     </g>
     <g id="line2d_28">
      <g>
       <use xlink:href="#m3e4ece3def" x="40.925781" y="148.401696" style="stroke: #000000; stroke-width: 0.8"/>
      </g>
     </g>
     <g id="text_15">
      <!-- 25 -->
      <g transform="translate(21.200781 152.200524) scale(0.1 -0.1)">
       <use xlink:href="#DejaVuSans-15"/>
       <use xlink:href="#DejaVuSans-18" transform="translate(63.625 0)"/>
      </g>
     </g>
    </g>
    <g id="ytick_7">
     <g id="line2d_29">
      <path d="M 40.925781 115.469563 
L 543.125781 115.469563 
" clip-path="url(#p7cd7d42b31)" style="fill: none; stroke: #b0b0b0; stroke-opacity: 0.25; stroke-width: 0.8; stroke-linecap: square"/>
     </g>
     <g id="line2d_30">
      <g>
       <use xlink:href="#m3e4ece3def" x="40.925781" y="115.469563" style="stroke: #000000; stroke-width: 0.8"/>
      </g>
     </g>
     <g id="text_16">
      <!-- 30 -->
      <g transform="translate(21.200781 119.268391) scale(0.1 -0.1)">
       <use xlink:href="#DejaVuSans-16"/>
       <use xlink:href="#DejaVuSans-13" transform="translate(63.625 0)"/>
      </g>
     </g>
    </g>
    <g id="ytick_8">
     <g id="line2d_31">
      <path d="M 40.925781 82.537429 
L 543.125781 82.537429 
" clip-path="url(#p7cd7d42b31)" style="fill: none; stroke: #b0b0b0; stroke-opacity: 0.25; stroke-width: 0.8; stroke-linecap: square"/>
     </g>
     <g id="line2d_32">
      <g>
       <use xlink:href="#m3e4ece3def" x="40.925781" y="82.537429" style="stroke: #000000; stroke-width: 0.8"/>
      </g>
     </g>
     <g id="text_17">
      <!-- 35 -->
      <g transform="translate(21.200781 86.336257) scale(0.1 -0.1)">
       <use xlink:href="#DejaVuSans-16"/>
       <use xlink:href="#DejaVuSans-18" transform="translate(63.625 0)"/>
      </g>
     </g>
    </g>
    <g id="ytick_9">
     <g id="line2d_33">
      <path d="M 40.925781 49.605296 
L 543.125781 49.605296 
" clip-path="url(#p7cd7d42b31)" style="fill: none; stroke: #b0b0b0; stroke-opacity: 0.25; stroke-width: 0.8; stroke-linecap: square"/>
     </g>
     <g id="line2d_34">
      <g>
       <use xlink:href="#m3e4ece3def" x="40.925781" y="49.605296" style="stroke: #000000; stroke-width: 0.8"/>
      </g>
     </g>
     <g id="text_18">
      <!-- 40 -->
      <g transform="translate(21.200781 53.404124) scale(0.1 -0.1)">
       <defs>
        <path id="DejaVuSans-17" d="M 2419 4116 
L 825 1625 
L 2419 1625 
L 2419 4116 
z
M 2253 4666 
L 3047 4666 
L 3047 1625 
L 3713 1625 
L 3713 1100 
L 3047 1100 
L 3047 0 
L 2419 0 
L 2419 1100 
L 313 1100 
L 313 1709 
L 2253 4666 
z
" transform="scale(0.015625)"/>
       </defs>
       <use xlink:href="#DejaVuSans-17"/>
       <use xlink:href="#DejaVuSans-13" transform="translate(63.625 0)"/>
      </g>
     </g>
    </g>
    <g id="text_19">
     <!-- rows in the DEFAULT partition (millions) -->
     <g style="fill: #1c1c1c" transform="translate(14.798438 272.908457) rotate(-90) scale(0.1 -0.1)">
      <defs>
       <path id="DejaVuSans-55" d="M 2631 2963 
Q 2534 3019 2420 3045 
Q 2306 3072 2169 3072 
Q 1681 3072 1420 2755 
Q 1159 2438 1159 1844 
L 1159 0 
L 581 0 
L 581 3500 
L 1159 3500 
L 1159 2956 
Q 1341 3275 1631 3429 
Q 1922 3584 2338 3584 
Q 2397 3584 2469 3576 
Q 2541 3569 2628 3553 
L 2631 2963 
z
" transform="scale(0.015625)"/>
       <path id="DejaVuSans-52" d="M 1959 3097 
Q 1497 3097 1228 2736 
Q 959 2375 959 1747 
Q 959 1119 1226 758 
Q 1494 397 1959 397 
Q 2419 397 2687 759 
Q 2956 1122 2956 1747 
Q 2956 2369 2687 2733 
Q 2419 3097 1959 3097 
z
M 1959 3584 
Q 2709 3584 3137 3096 
Q 3566 2609 3566 1747 
Q 3566 888 3137 398 
Q 2709 -91 1959 -91 
Q 1206 -91 779 398 
Q 353 888 353 1747 
Q 353 2609 779 3096 
Q 1206 3584 1959 3584 
z
" transform="scale(0.015625)"/>
       <path id="DejaVuSans-5a" d="M 269 3500 
L 844 3500 
L 1563 769 
L 2278 3500 
L 2956 3500 
L 3675 769 
L 4391 3500 
L 4966 3500 
L 4050 0 
L 3372 0 
L 2619 2869 
L 1863 0 
L 1184 0 
L 269 3500 
z
" transform="scale(0.015625)"/>
       <path id="DejaVuSans-4b" d="M 3513 2113 
L 3513 0 
L 2938 0 
L 2938 2094 
Q 2938 2591 2744 2837 
Q 2550 3084 2163 3084 
Q 1697 3084 1428 2787 
Q 1159 2491 1159 1978 
L 1159 0 
L 581 0 
L 581 4863 
L 1159 4863 
L 1159 2956 
Q 1366 3272 1645 3428 
Q 1925 3584 2291 3584 
Q 2894 3584 3203 3211 
Q 3513 2838 3513 2113 
z
" transform="scale(0.015625)"/>
       <path id="DejaVuSans-27" d="M 1259 4147 
L 1259 519 
L 2022 519 
Q 2988 519 3436 956 
Q 3884 1394 3884 2338 
Q 3884 3275 3436 3711 
Q 2988 4147 2022 4147 
L 1259 4147 
z
M 628 4666 
L 1925 4666 
Q 3281 4666 3915 4102 
Q 4550 3538 4550 2338 
Q 4550 1131 3912 565 
Q 3275 0 1925 0 
L 628 0 
L 628 4666 
z
" transform="scale(0.015625)"/>
       <path id="DejaVuSans-28" d="M 628 4666 
L 3578 4666 
L 3578 4134 
L 1259 4134 
L 1259 2753 
L 3481 2753 
L 3481 2222 
L 1259 2222 
L 1259 531 
L 3634 531 
L 3634 0 
L 628 0 
L 628 4666 
z
" transform="scale(0.015625)"/>
       <path id="DejaVuSans-29" d="M 628 4666 
L 3309 4666 
L 3309 4134 
L 1259 4134 
L 1259 2759 
L 3109 2759 
L 3109 2228 
L 1259 2228 
L 1259 0 
L 628 0 
L 628 4666 
z
" transform="scale(0.015625)"/>
       <path id="DejaVuSans-24" d="M 2188 4044 
L 1331 1722 
L 3047 1722 
L 2188 4044 
z
M 1831 4666 
L 2547 4666 
L 4325 0 
L 3669 0 
L 3244 1197 
L 1141 1197 
L 716 0 
L 50 0 
L 1831 4666 
z
" transform="scale(0.015625)"/>
       <path id="DejaVuSans-38" d="M 556 4666 
L 1191 4666 
L 1191 1831 
Q 1191 1081 1462 751 
Q 1734 422 2344 422 
Q 2950 422 3222 751 
Q 3494 1081 3494 1831 
L 3494 4666 
L 4128 4666 
L 4128 1753 
Q 4128 841 3676 375 
Q 3225 -91 2344 -91 
Q 1459 -91 1007 375 
Q 556 841 556 1753 
L 556 4666 
z
" transform="scale(0.015625)"/>
       <path id="DejaVuSans-2f" d="M 628 4666 
L 1259 4666 
L 1259 531 
L 3531 531 
L 3531 0 
L 628 0 
L 628 4666 
z
" transform="scale(0.015625)"/>
       <path id="DejaVuSans-37" d="M -19 4666 
L 3928 4666 
L 3928 4134 
L 2272 4134 
L 2272 0 
L 1638 0 
L 1638 4134 
L -19 4134 
L -19 4666 
z
" transform="scale(0.015625)"/>
      </defs>
      <use xlink:href="#DejaVuSans-55"/>
      <use xlink:href="#DejaVuSans-52" transform="translate(38.90625 0)"/>
      <use xlink:href="#DejaVuSans-5a" transform="translate(100.09375 0)"/>
      <use xlink:href="#DejaVuSans-56" transform="translate(181.875 0)"/>
      <use xlink:href="#DejaVuSans-3" transform="translate(233.96875 0)"/>
      <use xlink:href="#DejaVuSans-4c" transform="translate(265.75 0)"/>
      <use xlink:href="#DejaVuSans-51" transform="translate(293.53125 0)"/>
      <use xlink:href="#DejaVuSans-3" transform="translate(356.90625 0)"/>
      <use xlink:href="#DejaVuSans-57" transform="translate(388.6875 0)"/>
      <use xlink:href="#DejaVuSans-4b" transform="translate(427.890625 0)"/>
      <use xlink:href="#DejaVuSans-48" transform="translate(491.265625 0)"/>
      <use xlink:href="#DejaVuSans-3" transform="translate(552.796875 0)"/>
      <use xlink:href="#DejaVuSans-27" transform="translate(584.578125 0)"/>
      <use xlink:href="#DejaVuSans-28" transform="translate(661.578125 0)"/>
      <use xlink:href="#DejaVuSans-29" transform="translate(724.765625 0)"/>
      <use xlink:href="#DejaVuSans-24" transform="translate(773.109375 0)"/>
      <use xlink:href="#DejaVuSans-38" transform="translate(841.515625 0)"/>
      <use xlink:href="#DejaVuSans-2f" transform="translate(914.703125 0)"/>
      <use xlink:href="#DejaVuSans-37" transform="translate(956.65625 0)"/>
      <use xlink:href="#DejaVuSans-3" transform="translate(1017.734375 0)"/>
      <use xlink:href="#DejaVuSans-53" transform="translate(1049.515625 0)"/>
      <use xlink:href="#DejaVuSans-44" transform="translate(1113 0)"/>
      <use xlink:href="#DejaVuSans-55" transform="translate(1174.28125 0)"/>
      <use xlink:href="#DejaVuSans-57" transform="translate(1215.390625 0)"/>
      <use xlink:href="#DejaVuSans-4c" transform="translate(1254.59375 0)"/>
      <use xlink:href="#DejaVuSans-57" transform="translate(1282.375 0)"/>
      <use xlink:href="#DejaVuSans-4c" transform="translate(1321.578125 0)"/>
      <use xlink:href="#DejaVuSans-52" transform="translate(1349.359375 0)"/>
      <use xlink:href="#DejaVuSans-51" transform="translate(1410.546875 0)"/>
      <use xlink:href="#DejaVuSans-3" transform="translate(1473.921875 0)"/>
      <use xlink:href="#DejaVuSans-b" transform="translate(1505.703125 0)"/>
      <use xlink:href="#DejaVuSans-50" transform="translate(1544.71875 0)"/>
      <use xlink:href="#DejaVuSans-4c" transform="translate(1642.125 0)"/>
      <use xlink:href="#DejaVuSans-4f" transform="translate(1669.90625 0)"/>
      <use xlink:href="#DejaVuSans-4f" transform="translate(1697.6875 0)"/>
      <use xlink:href="#DejaVuSans-4c" transform="translate(1725.46875 0)"/>
      <use xlink:href="#DejaVuSans-52" transform="translate(1753.25 0)"/>
      <use xlink:href="#DejaVuSans-51" transform="translate(1814.4375 0)"/>
      <use xlink:href="#DejaVuSans-56" transform="translate(1877.8125 0)"/>
      <use xlink:href="#DejaVuSans-c" transform="translate(1929.90625 0)"/>
     </g>
    </g>
   </g>
   <g id="line2d_35">
    <path d="M 43.115209 49.062363 
L 45.52358 51.10928 
L 47.93195 51.918383 
L 50.340321 53.408259 
L 52.529749 54.521595 
L 59.535917 55.253479 
L 61.944288 55.93775 
L 64.352659 57.118156 
L 66.761029 57.865952 
L 71.358828 59.917321 
L 73.767198 60.846278 
L 75.956626 61.937398 
L 78.364997 57.080462 
L 80.773367 57.333104 
L 82.962795 58.01854 
L 85.371165 58.519767 
L 87.779536 58.742553 
L 90.187907 59.614721 
L 92.377334 60.209219 
L 94.785705 61.314922 
L 97.194076 62.726893 
L 99.383503 64.150319 
L 101.791874 65.17414 
L 104.200244 65.710518 
L 108.798043 66.340978 
L 111.206413 66.60892 
L 113.614784 72.14165 
L 115.804212 72.439535 
L 123.029323 72.439535 
L 125.218751 73.068235 
L 127.627122 74.411603 
L 130.035492 75.908046 
L 132.22492 76.827695 
L 139.450032 76.827695 
L 144.04783 78.252563 
L 146.456201 78.908176 
L 148.645629 79.25453 
L 158.060168 79.25453 
L 160.468539 79.371604 
L 162.876909 79.982679 
L 169.883078 80.97447 
L 172.291449 81.985006 
L 174.699819 82.581861 
L 181.705988 82.497772 
L 184.114359 82.867607 
L 186.522729 84.195081 
L 188.9311 84.823202 
L 195.937269 85.723389 
L 198.126697 86.430495 
L 200.535067 87.054045 
L 202.943438 87.851925 
L 207.541236 88.453153 
L 209.949607 88.567395 
L 212.357977 89.290315 
L 214.547405 89.290315 
L 219.364146 90.872394 
L 221.772517 91.329867 
L 223.961945 91.504948 
L 226.370315 91.504948 
L 230.968114 92.168958 
L 235.784855 92.682509 
L 240.382653 94.668856 
L 245.199394 96.411829 
L 247.388822 97.725242 
L 249.797193 98.004025 
L 254.394991 98.004025 
L 256.803362 98.209943 
L 259.211732 98.844532 
L 261.620103 99.73696 
L 263.809531 100.307272 
L 268.626272 100.307272 
L 273.22407 101.541496 
L 275.632441 102.579418 
L 278.040811 103.163608 
L 280.230239 103.163608 
L 282.63861 104.41059 
L 285.04698 105.270685 
L 287.455351 106.402398 
L 292.053149 107.111736 
L 294.46152 108.549757 
L 296.650947 109.437364 
L 299.059318 110.617283 
L 301.467689 112.018321 
L 303.657116 114.096661 
L 306.065487 115.843672 
L 308.473858 116.201927 
L 310.882228 116.68952 
L 322.486195 118.094543 
L 324.894566 119.709621 
L 329.492364 121.408221 
L 331.900735 122.847941 
L 334.309106 123.573318 
L 341.315274 124.411065 
L 343.504702 124.793071 
L 345.913073 126.038689 
L 348.321443 128.179067 
L 350.510871 129.064244 
L 355.327612 132.619221 
L 357.735983 134.671552 
L 359.925411 137.530371 
L 362.333781 138.468897 
L 364.742152 140.336208 
L 366.93158 140.595107 
L 369.33995 141.314681 
L 371.748321 142.456576 
L 373.937749 143.355683 
L 376.346119 144.061893 
L 378.75449 144.324625 
L 381.16286 145.754111 
L 383.352288 148.316817 
L 385.760659 148.316817 
L 388.169029 150.023063 
L 390.358457 151.765812 
L 392.766828 154.681004 
L 395.175198 154.673911 
L 397.364626 155.74051 
L 399.772997 156.516398 
L 409.187536 157.549656 
L 411.595907 158.979748 
L 413.785334 161.113104 
L 416.193705 162.476824 
L 420.791503 166.528971 
L 423.199874 157.337112 
L 430.206043 162.884096 
L 432.614413 163.728515 
L 435.022784 164.739044 
L 437.212212 165.811018 
L 439.620582 166.616393 
L 442.028953 166.873112 
L 444.218381 177.45941 
L 446.626751 177.457763 
L 467.645258 194.900024 
L 470.053629 197.336482 
L 472.461999 197.92957 
L 474.87037 199.054531 
L 477.059798 199.319273 
L 479.468168 200.20547 
L 481.876539 201.473825 
L 484.065967 202.310275 
L 486.474337 202.771206 
L 488.882708 204.051778 
L 491.291078 205.827525 
L 493.480506 207.283409 
L 495.888877 207.87406 
L 498.297247 209.45357 
L 500.486675 210.41727 
L 502.895046 210.390075 
L 505.303416 211.048474 
L 519.315754 210.839618 
L 519.315754 210.839618 
" clip-path="url(#p7cd7d42b31)" style="fill: none; stroke: #3ecf8e; stroke-width: 2.4; stroke-linecap: square"/>
   </g>
   <g id="patch_3">
    <path d="M 40.925781 313.062363 
L 40.925781 35.862363 
" style="fill: none; stroke: #000000; stroke-width: 0.8; stroke-linejoin: miter; stroke-linecap: square"/>
   </g>
   <g id="patch_4">
    <path d="M 543.125781 313.062363 
L 543.125781 35.862363 
" style="fill: none; stroke: #000000; stroke-width: 0.8; stroke-linejoin: miter; stroke-linecap: square"/>
   </g>
   <g id="patch_5">
    <path d="M 40.925781 313.062363 
L 543.125781 313.062363 
" style="fill: none; stroke: #000000; stroke-width: 0.8; stroke-linejoin: miter; stroke-linecap: square"/>
   </g>
   <g id="patch_6">
    <path d="M 40.925781 35.862363 
L 543.125781 35.862363 
" style="fill: none; stroke: #000000; stroke-width: 0.8; stroke-linejoin: miter; stroke-linecap: square"/>
   </g>
   <g id="text_20">
    <!-- Online conversion: 40M-row table partitioned live under load -->
    <g transform="translate(124.737266 16.659355) scale(0.11 -0.11)">
     <defs>
      <path id="DejaVuSans-32" d="M 2522 4238 
Q 1834 4238 1429 3725 
Q 1025 3213 1025 2328 
Q 1025 1447 1429 934 
Q 1834 422 2522 422 
Q 3209 422 3611 934 
Q 4013 1447 4013 2328 
Q 4013 3213 3611 3725 
Q 3209 4238 2522 4238 
z
M 2522 4750 
Q 3503 4750 4090 4092 
Q 4678 3434 4678 2328 
Q 4678 1225 4090 567 
Q 3503 -91 2522 -91 
Q 1538 -91 948 565 
Q 359 1222 359 2328 
Q 359 3434 948 4092 
Q 1538 4750 2522 4750 
z
" transform="scale(0.015625)"/>
      <path id="DejaVuSans-46" d="M 3122 3366 
L 3122 2828 
Q 2878 2963 2633 3030 
Q 2388 3097 2138 3097 
Q 1578 3097 1268 2742 
Q 959 2388 959 1747 
Q 959 1106 1268 751 
Q 1578 397 2138 397 
Q 2388 397 2633 464 
Q 2878 531 3122 666 
L 3122 134 
Q 2881 22 2623 -34 
Q 2366 -91 2075 -91 
Q 1284 -91 818 406 
Q 353 903 353 1747 
Q 353 2603 823 3093 
Q 1294 3584 2113 3584 
Q 2378 3584 2631 3529 
Q 2884 3475 3122 3366 
z
" transform="scale(0.015625)"/>
      <path id="DejaVuSans-59" d="M 191 3500 
L 800 3500 
L 1894 563 
L 2988 3500 
L 3597 3500 
L 2284 0 
L 1503 0 
L 191 3500 
z
" transform="scale(0.015625)"/>
      <path id="DejaVuSans-1d" d="M 750 794 
L 1409 794 
L 1409 0 
L 750 0 
L 750 794 
z
M 750 3309 
L 1409 3309 
L 1409 2516 
L 750 2516 
L 750 3309 
z
" transform="scale(0.015625)"/>
      <path id="DejaVuSans-30" d="M 628 4666 
L 1569 4666 
L 2759 1491 
L 3956 4666 
L 4897 4666 
L 4897 0 
L 4281 0 
L 4281 4097 
L 3078 897 
L 2444 897 
L 1241 4097 
L 1241 0 
L 628 0 
L 628 4666 
z
" transform="scale(0.015625)"/>
      <path id="DejaVuSans-10" d="M 313 2009 
L 1997 2009 
L 1997 1497 
L 313 1497 
L 313 2009 
z
" transform="scale(0.015625)"/>
      <path id="DejaVuSans-45" d="M 3116 1747 
Q 3116 2381 2855 2742 
Q 2594 3103 2138 3103 
Q 1681 3103 1420 2742 
Q 1159 2381 1159 1747 
Q 1159 1113 1420 752 
Q 1681 391 2138 391 
Q 2594 391 2855 752 
Q 3116 1113 3116 1747 
z
M 1159 2969 
Q 1341 3281 1617 3432 
Q 1894 3584 2278 3584 
Q 2916 3584 3314 3078 
Q 3713 2572 3713 1747 
Q 3713 922 3314 415 
Q 2916 -91 2278 -91 
Q 1894 -91 1617 61 
Q 1341 213 1159 525 
L 1159 0 
L 581 0 
L 581 4863 
L 1159 4863 
L 1159 2969 
z
" transform="scale(0.015625)"/>
     </defs>
     <use xlink:href="#DejaVuSans-32"/>
     <use xlink:href="#DejaVuSans-51" transform="translate(78.71875 0)"/>
     <use xlink:href="#DejaVuSans-4f" transform="translate(142.09375 0)"/>
     <use xlink:href="#DejaVuSans-4c" transform="translate(169.875 0)"/>
     <use xlink:href="#DejaVuSans-51" transform="translate(197.65625 0)"/>
     <use xlink:href="#DejaVuSans-48" transform="translate(261.03125 0)"/>
     <use xlink:href="#DejaVuSans-3" transform="translate(322.5625 0)"/>
     <use xlink:href="#DejaVuSans-46" transform="translate(354.34375 0)"/>
     <use xlink:href="#DejaVuSans-52" transform="translate(409.328125 0)"/>
     <use xlink:href="#DejaVuSans-51" transform="translate(470.515625 0)"/>
     <use xlink:href="#DejaVuSans-59" transform="translate(533.890625 0)"/>
     <use xlink:href="#DejaVuSans-48" transform="translate(593.078125 0)"/>
     <use xlink:href="#DejaVuSans-55" transform="translate(654.609375 0)"/>
     <use xlink:href="#DejaVuSans-56" transform="translate(695.71875 0)"/>
     <use xlink:href="#DejaVuSans-4c" transform="translate(747.8125 0)"/>
     <use xlink:href="#DejaVuSans-52" transform="translate(775.59375 0)"/>
     <use xlink:href="#DejaVuSans-51" transform="translate(836.78125 0)"/>
     <use xlink:href="#DejaVuSans-1d" transform="translate(900.15625 0)"/>
     <use xlink:href="#DejaVuSans-3" transform="translate(933.84375 0)"/>
     <use xlink:href="#DejaVuSans-17" transform="translate(965.625 0)"/>
     <use xlink:href="#DejaVuSans-13" transform="translate(1029.25 0)"/>
     <use xlink:href="#DejaVuSans-30" transform="translate(1092.875 0)"/>
     <use xlink:href="#DejaVuSans-10" transform="translate(1179.15625 0)"/>
     <use xlink:href="#DejaVuSans-55" transform="translate(1215.234375 0)"/>
     <use xlink:href="#DejaVuSans-52" transform="translate(1254.140625 0)"/>
     <use xlink:href="#DejaVuSans-5a" transform="translate(1315.328125 0)"/>
     <use xlink:href="#DejaVuSans-3" transform="translate(1397.109375 0)"/>
     <use xlink:href="#DejaVuSans-57" transform="translate(1428.890625 0)"/>
     <use xlink:href="#DejaVuSans-44" transform="translate(1468.09375 0)"/>
     <use xlink:href="#DejaVuSans-45" transform="translate(1529.375 0)"/>
     <use xlink:href="#DejaVuSans-4f" transform="translate(1592.859375 0)"/>
     <use xlink:href="#DejaVuSans-48" transform="translate(1620.640625 0)"/>
     <use xlink:href="#DejaVuSans-3" transform="translate(1682.171875 0)"/>
     <use xlink:href="#DejaVuSans-53" transform="translate(1713.953125 0)"/>
     <use xlink:href="#DejaVuSans-44" transform="translate(1777.4375 0)"/>
     <use xlink:href="#DejaVuSans-55" transform="translate(1838.71875 0)"/>
     <use xlink:href="#DejaVuSans-57" transform="translate(1879.828125 0)"/>
     <use xlink:href="#DejaVuSans-4c" transform="translate(1919.03125 0)"/>
     <use xlink:href="#DejaVuSans-57" transform="translate(1946.8125 0)"/>
     <use xlink:href="#DejaVuSans-4c" transform="translate(1986.015625 0)"/>
     <use xlink:href="#DejaVuSans-52" transform="translate(2013.796875 0)"/>
     <use xlink:href="#DejaVuSans-51" transform="translate(2074.984375 0)"/>
     <use xlink:href="#DejaVuSans-48" transform="translate(2138.359375 0)"/>
     <use xlink:href="#DejaVuSans-47" transform="translate(2199.890625 0)"/>
     <use xlink:href="#DejaVuSans-3" transform="translate(2263.375 0)"/>
     <use xlink:href="#DejaVuSans-4f" transform="translate(2295.15625 0)"/>
     <use xlink:href="#DejaVuSans-4c" transform="translate(2322.9375 0)"/>
     <use xlink:href="#DejaVuSans-59" transform="translate(2350.71875 0)"/>
     <use xlink:href="#DejaVuSans-48" transform="translate(2409.90625 0)"/>
     <use xlink:href="#DejaVuSans-3" transform="translate(2471.4375 0)"/>
     <use xlink:href="#DejaVuSans-58" transform="translate(2503.21875 0)"/>
     <use xlink:href="#DejaVuSans-51" transform="translate(2566.59375 0)"/>
     <use xlink:href="#DejaVuSans-47" transform="translate(2629.96875 0)"/>
     <use xlink:href="#DejaVuSans-48" transform="translate(2693.453125 0)"/>
     <use xlink:href="#DejaVuSans-55" transform="translate(2754.984375 0)"/>
     <use xlink:href="#DejaVuSans-3" transform="translate(2796.09375 0)"/>
     <use xlink:href="#DejaVuSans-4f" transform="translate(2827.875 0)"/>
     <use xlink:href="#DejaVuSans-52" transform="translate(2855.65625 0)"/>
     <use xlink:href="#DejaVuSans-44" transform="translate(2916.84375 0)"/>
     <use xlink:href="#DejaVuSans-47" transform="translate(2978.125 0)"/>
    </g>
    <!-- (drained 25M rows while the workload ran; continues to zero past the window) -->
    <g transform="translate(75.795859 29.862363) scale(0.11 -0.11)">
     <defs>
      <path id="DejaVuSans-4e" d="M 581 4863 
L 1159 4863 
L 1159 1991 
L 2875 3500 
L 3609 3500 
L 1753 1863 
L 3688 0 
L 2938 0 
L 1159 1709 
L 1159 0 
L 581 0 
L 581 4863 
z
" transform="scale(0.015625)"/>
      <path id="DejaVuSans-1e" d="M 750 3309 
L 1409 3309 
L 1409 2516 
L 750 2516 
L 750 3309 
z
M 750 794 
L 1409 794 
L 1409 256 
L 897 -744 
L 494 -744 
L 750 256 
L 750 794 
z
" transform="scale(0.015625)"/>
      <path id="DejaVuSans-5d" d="M 353 3500 
L 3084 3500 
L 3084 2975 
L 922 459 
L 3084 459 
L 3084 0 
L 275 0 
L 275 525 
L 2438 3041 
L 353 3041 
L 353 3500 
z
" transform="scale(0.015625)"/>
     </defs>
     <use xlink:href="#DejaVuSans-b"/>
     <use xlink:href="#DejaVuSans-47" transform="translate(39.015625 0)"/>
     <use xlink:href="#DejaVuSans-55" transform="translate(102.5 0)"/>
     <use xlink:href="#DejaVuSans-44" transform="translate(143.609375 0)"/>
     <use xlink:href="#DejaVuSans-4c" transform="translate(204.890625 0)"/>
     <use xlink:href="#DejaVuSans-51" transform="translate(232.671875 0)"/>
     <use xlink:href="#DejaVuSans-48" transform="translate(296.046875 0)"/>
     <use xlink:href="#DejaVuSans-47" transform="translate(357.578125 0)"/>
     <use xlink:href="#DejaVuSans-3" transform="translate(421.0625 0)"/>
     <use xlink:href="#DejaVuSans-15" transform="translate(452.84375 0)"/>
     <use xlink:href="#DejaVuSans-18" transform="translate(516.46875 0)"/>
     <use xlink:href="#DejaVuSans-30" transform="translate(580.09375 0)"/>
     <use xlink:href="#DejaVuSans-3" transform="translate(666.375 0)"/>
     <use xlink:href="#DejaVuSans-55" transform="translate(698.15625 0)"/>
     <use xlink:href="#DejaVuSans-52" transform="translate(737.0625 0)"/>
     <use xlink:href="#DejaVuSans-5a" transform="translate(798.25 0)"/>
     <use xlink:href="#DejaVuSans-56" transform="translate(880.03125 0)"/>
     <use xlink:href="#DejaVuSans-3" transform="translate(932.125 0)"/>
     <use xlink:href="#DejaVuSans-5a" transform="translate(963.90625 0)"/>
     <use xlink:href="#DejaVuSans-4b" transform="translate(1045.6875 0)"/>
     <use xlink:href="#DejaVuSans-4c" transform="translate(1109.0625 0)"/>
     <use xlink:href="#DejaVuSans-4f" transform="translate(1136.84375 0)"/>
     <use xlink:href="#DejaVuSans-48" transform="translate(1164.625 0)"/>
     <use xlink:href="#DejaVuSans-3" transform="translate(1226.15625 0)"/>
     <use xlink:href="#DejaVuSans-57" transform="translate(1257.9375 0)"/>
     <use xlink:href="#DejaVuSans-4b" transform="translate(1297.140625 0)"/>
     <use xlink:href="#DejaVuSans-48" transform="translate(1360.515625 0)"/>
     <use xlink:href="#DejaVuSans-3" transform="translate(1422.046875 0)"/>
     <use xlink:href="#DejaVuSans-5a" transform="translate(1453.828125 0)"/>
     <use xlink:href="#DejaVuSans-52" transform="translate(1535.609375 0)"/>
     <use xlink:href="#DejaVuSans-55" transform="translate(1596.796875 0)"/>
     <use xlink:href="#DejaVuSans-4e" transform="translate(1637.90625 0)"/>
     <use xlink:href="#DejaVuSans-4f" transform="translate(1695.8125 0)"/>
     <use xlink:href="#DejaVuSans-52" transform="translate(1723.59375 0)"/>
     <use xlink:href="#DejaVuSans-44" transform="translate(1784.78125 0)"/>
     <use xlink:href="#DejaVuSans-47" transform="translate(1846.0625 0)"/>
     <use xlink:href="#DejaVuSans-3" transform="translate(1909.546875 0)"/>
     <use xlink:href="#DejaVuSans-55" transform="translate(1941.328125 0)"/>
     <use xlink:href="#DejaVuSans-44" transform="translate(1982.4375 0)"/>
     <use xlink:href="#DejaVuSans-51" transform="translate(2043.71875 0)"/>
     <use xlink:href="#DejaVuSans-1e" transform="translate(2107.09375 0)"/>
     <use xlink:href="#DejaVuSans-3" transform="translate(2140.78125 0)"/>
     <use xlink:href="#DejaVuSans-46" transform="translate(2172.5625 0)"/>
     <use xlink:href="#DejaVuSans-52" transform="translate(2227.546875 0)"/>
     <use xlink:href="#DejaVuSans-51" transform="translate(2288.734375 0)"/>
     <use xlink:href="#DejaVuSans-57" transform="translate(2352.109375 0)"/>
     <use xlink:href="#DejaVuSans-4c" transform="translate(2391.3125 0)"/>
     <use xlink:href="#DejaVuSans-51" transform="translate(2419.09375 0)"/>
     <use xlink:href="#DejaVuSans-58" transform="translate(2482.46875 0)"/>
     <use xlink:href="#DejaVuSans-48" transform="translate(2545.84375 0)"/>
     <use xlink:href="#DejaVuSans-56" transform="translate(2607.375 0)"/>
     <use xlink:href="#DejaVuSans-3" transform="translate(2659.46875 0)"/>
     <use xlink:href="#DejaVuSans-57" transform="translate(2691.25 0)"/>
     <use xlink:href="#DejaVuSans-52" transform="translate(2730.453125 0)"/>
     <use xlink:href="#DejaVuSans-3" transform="translate(2791.640625 0)"/>
     <use xlink:href="#DejaVuSans-5d" transform="translate(2823.421875 0)"/>
     <use xlink:href="#DejaVuSans-48" transform="translate(2875.90625 0)"/>
     <use xlink:href="#DejaVuSans-55" transform="translate(2937.4375 0)"/>
     <use xlink:href="#DejaVuSans-52" transform="translate(2976.34375 0)"/>
     <use xlink:href="#DejaVuSans-3" transform="translate(3037.53125 0)"/>
     <use xlink:href="#DejaVuSans-53" transform="translate(3069.3125 0)"/>
     <use xlink:href="#DejaVuSans-44" transform="translate(3132.796875 0)"/>
     <use xlink:href="#DejaVuSans-56" transform="translate(3194.078125 0)"/>
     <use xlink:href="#DejaVuSans-57" transform="translate(3246.171875 0)"/>
     <use xlink:href="#DejaVuSans-3" transform="translate(3285.375 0)"/>
     <use xlink:href="#DejaVuSans-57" transform="translate(3317.15625 0)"/>
     <use xlink:href="#DejaVuSans-4b" transform="translate(3356.359375 0)"/>
     <use xlink:href="#DejaVuSans-48" transform="translate(3419.734375 0)"/>
     <use xlink:href="#DejaVuSans-3" transform="translate(3481.265625 0)"/>
     <use xlink:href="#DejaVuSans-5a" transform="translate(3513.046875 0)"/>
     <use xlink:href="#DejaVuSans-4c" transform="translate(3594.828125 0)"/>
     <use xlink:href="#DejaVuSans-51" transform="translate(3622.609375 0)"/>
     <use xlink:href="#DejaVuSans-47" transform="translate(3685.984375 0)"/>
     <use xlink:href="#DejaVuSans-52" transform="translate(3749.46875 0)"/>
     <use xlink:href="#DejaVuSans-5a" transform="translate(3810.65625 0)"/>
     <use xlink:href="#DejaVuSans-c" transform="translate(3892.4375 0)"/>
    </g>
   </g>
   <g id="legend_1">
    <g id="line2d_36">
     <path d="M 384.977344 48.960801 
L 394.977344 48.960801 
L 404.977344 48.960801 
" style="fill: none; stroke: #3ecf8e; stroke-width: 2.4; stroke-linecap: square"/>
    </g>
    <g id="text_21">
     <!-- rows left in the DEFAULT -->
     <g transform="translate(412.977344 52.460801) scale(0.1 -0.1)">
      <defs>
       <path id="DejaVuSans-49" d="M 2375 4863 
L 2375 4384 
L 1825 4384 
Q 1516 4384 1395 4259 
Q 1275 4134 1275 3809 
L 1275 3500 
L 2222 3500 
L 2222 3053 
L 1275 3053 
L 1275 0 
L 697 0 
L 697 3053 
L 147 3053 
L 147 3500 
L 697 3500 
L 697 3744 
Q 697 4328 969 4595 
Q 1241 4863 1831 4863 
L 2375 4863 
z
" transform="scale(0.015625)"/>
      </defs>
      <use xlink:href="#DejaVuSans-55"/>
      <use xlink:href="#DejaVuSans-52" transform="translate(38.90625 0)"/>
      <use xlink:href="#DejaVuSans-5a" transform="translate(100.09375 0)"/>
      <use xlink:href="#DejaVuSans-56" transform="translate(181.875 0)"/>
      <use xlink:href="#DejaVuSans-3" transform="translate(233.96875 0)"/>
      <use xlink:href="#DejaVuSans-4f" transform="translate(265.75 0)"/>
      <use xlink:href="#DejaVuSans-48" transform="translate(293.53125 0)"/>
      <use xlink:href="#DejaVuSans-49" transform="translate(355.0625 0)"/>
      <use xlink:href="#DejaVuSans-57" transform="translate(388.515625 0)"/>
      <use xlink:href="#DejaVuSans-3" transform="translate(427.71875 0)"/>
      <use xlink:href="#DejaVuSans-4c" transform="translate(459.5 0)"/>
      <use xlink:href="#DejaVuSans-51" transform="translate(487.28125 0)"/>
      <use xlink:href="#DejaVuSans-3" transform="translate(550.65625 0)"/>
      <use xlink:href="#DejaVuSans-57" transform="translate(582.4375 0)"/>
      <use xlink:href="#DejaVuSans-4b" transform="translate(621.640625 0)"/>
      <use xlink:href="#DejaVuSans-48" transform="translate(685.015625 0)"/>
      <use xlink:href="#DejaVuSans-3" transform="translate(746.546875 0)"/>
      <use xlink:href="#DejaVuSans-27" transform="translate(778.328125 0)"/>
      <use xlink:href="#DejaVuSans-28" transform="translate(855.328125 0)"/>
      <use xlink:href="#DejaVuSans-29" transform="translate(918.515625 0)"/>
      <use xlink:href="#DejaVuSans-24" transform="translate(966.859375 0)"/>
      <use xlink:href="#DejaVuSans-38" transform="translate(1035.265625 0)"/>
      <use xlink:href="#DejaVuSans-2f" transform="translate(1108.453125 0)"/>
      <use xlink:href="#DejaVuSans-37" transform="translate(1150.40625 0)"/>
     </g>
    </g>
    <g id="line2d_37">
     <path d="M 384.977344 63.961582 
L 394.977344 63.961582 
L 394.977344 63.961582 
L 404.977344 63.961582 
L 404.977344 63.961582 
" style="fill: none; stroke: #9aa0a6; stroke-width: 1.8; stroke-linecap: square"/>
    </g>
    <g id="text_22">
     <!-- partitions created -->
     <g transform="translate(412.977344 67.461582) scale(0.1 -0.1)">
      <use xlink:href="#DejaVuSans-53"/>
      <use xlink:href="#DejaVuSans-44" transform="translate(63.484375 0)"/>
      <use xlink:href="#DejaVuSans-55" transform="translate(124.765625 0)"/>
      <use xlink:href="#DejaVuSans-57" transform="translate(165.875 0)"/>
      <use xlink:href="#DejaVuSans-4c" transform="translate(205.078125 0)"/>
      <use xlink:href="#DejaVuSans-57" transform="translate(232.859375 0)"/>
      <use xlink:href="#DejaVuSans-4c" transform="translate(272.0625 0)"/>
      <use xlink:href="#DejaVuSans-52" transform="translate(299.84375 0)"/>
      <use xlink:href="#DejaVuSans-51" transform="translate(361.03125 0)"/>
      <use xlink:href="#DejaVuSans-56" transform="translate(424.40625 0)"/>
      <use xlink:href="#DejaVuSans-3" transform="translate(476.5 0)"/>
      <use xlink:href="#DejaVuSans-46" transform="translate(508.28125 0)"/>
      <use xlink:href="#DejaVuSans-55" transform="translate(563.265625 0)"/>
      <use xlink:href="#DejaVuSans-48" transform="translate(602.171875 0)"/>
      <use xlink:href="#DejaVuSans-44" transform="translate(663.703125 0)"/>
      <use xlink:href="#DejaVuSans-57" transform="translate(724.984375 0)"/>
      <use xlink:href="#DejaVuSans-48" transform="translate(764.1875 0)"/>
      <use xlink:href="#DejaVuSans-47" transform="translate(825.71875 0)"/>
     </g>
    </g>
   </g>
  </g>
  <g id="axes_2">
   <g id="matplotlib.axis_3">
    <g id="ytick_10">
     <g id="line2d_38">
      <defs>
       <path id="mb510372d29" d="M 0 0 
L 3.5 0 
" style="stroke: #000000; stroke-width: 0.8"/>
      </defs>
      <g>
       <use xlink:href="#mb510372d29" x="543.125781" y="313.062363" style="stroke: #000000; stroke-width: 0.8"/>
      </g>
     </g>
     <g id="text_23">
      <!-- 0.0 -->
      <g transform="translate(550.125781 316.861191) scale(0.1 -0.1)">
       <defs>
        <path id="DejaVuSans-11" d="M 684 794 
L 1344 794 
L 1344 0 
L 684 0 
L 684 794 
z
" transform="scale(0.015625)"/>
       </defs>
       <use xlink:href="#DejaVuSans-13"/>
       <use xlink:href="#DejaVuSans-11" transform="translate(63.625 0)"/>
       <use xlink:href="#DejaVuSans-13" transform="translate(95.40625 0)"/>
      </g>
     </g>
    </g>
    <g id="ytick_11">
     <g id="line2d_39">
      <g>
       <use xlink:href="#mb510372d29" x="543.125781" y="268.352686" style="stroke: #000000; stroke-width: 0.8"/>
      </g>
     </g>
     <g id="text_24">
      <!-- 0.5 -->
      <g transform="translate(550.125781 272.151514) scale(0.1 -0.1)">
       <use xlink:href="#DejaVuSans-13"/>
       <use xlink:href="#DejaVuSans-11" transform="translate(63.625 0)"/>
       <use xlink:href="#DejaVuSans-18" transform="translate(95.40625 0)"/>
      </g>
     </g>
    </g>
    <g id="ytick_12">
     <g id="line2d_40">
      <g>
       <use xlink:href="#mb510372d29" x="543.125781" y="223.643008" style="stroke: #000000; stroke-width: 0.8"/>
      </g>
     </g>
     <g id="text_25">
      <!-- 1.0 -->
      <g transform="translate(550.125781 227.441837) scale(0.1 -0.1)">
       <use xlink:href="#DejaVuSans-14"/>
       <use xlink:href="#DejaVuSans-11" transform="translate(63.625 0)"/>
       <use xlink:href="#DejaVuSans-13" transform="translate(95.40625 0)"/>
      </g>
     </g>
    </g>
    <g id="ytick_13">
     <g id="line2d_41">
      <g>
       <use xlink:href="#mb510372d29" x="543.125781" y="178.933331" style="stroke: #000000; stroke-width: 0.8"/>
      </g>
     </g>
     <g id="text_26">
      <!-- 1.5 -->
      <g transform="translate(550.125781 182.732159) scale(0.1 -0.1)">
       <use xlink:href="#DejaVuSans-14"/>
       <use xlink:href="#DejaVuSans-11" transform="translate(63.625 0)"/>
       <use xlink:href="#DejaVuSans-18" transform="translate(95.40625 0)"/>
      </g>
     </g>
    </g>
    <g id="ytick_14">
     <g id="line2d_42">
      <g>
       <use xlink:href="#mb510372d29" x="543.125781" y="134.223654" style="stroke: #000000; stroke-width: 0.8"/>
      </g>
     </g>
     <g id="text_27">
      <!-- 2.0 -->
      <g transform="translate(550.125781 138.022482) scale(0.1 -0.1)">
       <use xlink:href="#DejaVuSans-15"/>
       <use xlink:href="#DejaVuSans-11" transform="translate(63.625 0)"/>
       <use xlink:href="#DejaVuSans-13" transform="translate(95.40625 0)"/>
      </g>
     </g>
    </g>
    <g id="ytick_15">
     <g id="line2d_43">
      <g>
       <use xlink:href="#mb510372d29" x="543.125781" y="89.513976" style="stroke: #000000; stroke-width: 0.8"/>
      </g>
     </g>
     <g id="text_28">
      <!-- 2.5 -->
      <g transform="translate(550.125781 93.312804) scale(0.1 -0.1)">
       <use xlink:href="#DejaVuSans-15"/>
       <use xlink:href="#DejaVuSans-11" transform="translate(63.625 0)"/>
       <use xlink:href="#DejaVuSans-18" transform="translate(95.40625 0)"/>
      </g>
     </g>
    </g>
    <g id="ytick_16">
     <g id="line2d_44">
      <g>
       <use xlink:href="#mb510372d29" x="543.125781" y="44.804299" style="stroke: #000000; stroke-width: 0.8"/>
      </g>
     </g>
     <g id="text_29">
      <!-- 3.0 -->
      <g transform="translate(550.125781 48.603127) scale(0.1 -0.1)">
       <use xlink:href="#DejaVuSans-16"/>
       <use xlink:href="#DejaVuSans-11" transform="translate(63.625 0)"/>
       <use xlink:href="#DejaVuSans-13" transform="translate(95.40625 0)"/>
      </g>
     </g>
    </g>
    <g id="text_30">
     <!-- partitions -->
     <g style="fill: #9aa0a6" transform="translate(577.627344 198.287363) rotate(-90) scale(0.1 -0.1)">
      <use xlink:href="#DejaVuSans-53"/>
      <use xlink:href="#DejaVuSans-44" transform="translate(63.484375 0)"/>
      <use xlink:href="#DejaVuSans-55" transform="translate(124.765625 0)"/>
      <use xlink:href="#DejaVuSans-57" transform="translate(165.875 0)"/>
      <use xlink:href="#DejaVuSans-4c" transform="translate(205.078125 0)"/>
      <use xlink:href="#DejaVuSans-57" transform="translate(232.859375 0)"/>
      <use xlink:href="#DejaVuSans-4c" transform="translate(272.0625 0)"/>
      <use xlink:href="#DejaVuSans-52" transform="translate(299.84375 0)"/>
      <use xlink:href="#DejaVuSans-51" transform="translate(361.03125 0)"/>
      <use xlink:href="#DejaVuSans-56" transform="translate(424.40625 0)"/>
     </g>
    </g>
   </g>
   <g id="line2d_45">
    <path d="M 43.115209 223.643008 
L 184.114359 223.643008 
L 184.114359 134.223654 
L 505.303416 134.223654 
L 505.303416 44.804299 
L 519.315754 44.804299 
L 519.315754 44.804299 
" clip-path="url(#p7cd7d42b31)" style="fill: none; stroke: #9aa0a6; stroke-width: 1.8; stroke-linecap: square"/>
   </g>
   <g id="patch_7">
    <path d="M 40.925781 313.062363 
L 40.925781 35.862363 
" style="fill: none; stroke: #000000; stroke-width: 0.8; stroke-linejoin: miter; stroke-linecap: square"/>
   </g>
   <g id="patch_8">
    <path d="M 543.125781 313.062363 
L 543.125781 35.862363 
" style="fill: none; stroke: #000000; stroke-width: 0.8; stroke-linejoin: miter; stroke-linecap: square"/>
   </g>
   <g id="patch_9">
    <path d="M 40.925781 313.062363 
L 543.125781 313.062363 
" style="fill: none; stroke: #000000; stroke-width: 0.8; stroke-linejoin: miter; stroke-linecap: square"/>
   </g>
   <g id="patch_10">
    <path d="M 40.925781 35.862363 
L 543.125781 35.862363 
" style="fill: none; stroke: #000000; stroke-width: 0.8; stroke-linejoin: miter; stroke-linecap: square"/>
   </g>
  </g>
 </g>
 <defs>
  <clipPath id="p7cd7d42b31">
   <rect x="40.925781" y="35.862363" width="502.2" height="277.2"/>
  </clipPath>
 </defs>
</svg>
