<?xml version="1.0" encoding="utf-8" standalone="no"?>
<!DOCTYPE svg PUBLIC "-//W3C//DTD SVG 1.1//EN"
  "http://www.w3.org/Graphics/SVG/1.1/DTD/svg11.dtd">
<svg xmlns:xlink="http://www.w3.org/1999/xlink" width="556.688281pt" height="351.263145pt" viewBox="0 0 556.688281 351.263145" xmlns="http://www.w3.org/2000/svg" version="1.1">
 <metadata>
  <rdf:RDF xmlns:dc="http://purl.org/dc/elements/1.1/" xmlns:cc="http://creativecommons.org/ns#" xmlns:rdf="http://www.w3.org/1999/02/22-rdf-syntax-ns#">
   <cc:Work>
    <dc:type rdf:resource="http://purl.org/dc/dcmitype/StillImage"/>
    <dc:date>2026-06-22T14:45:40.403196</dc:date>
    <dc:format>image/svg+xml</dc:format>
    <dc:creator>
     <cc:Agent>
      <dc:title>Matplotlib v3.11.0, https://matplotlib.org/</dc:title>
     </cc:Agent>
    </dc:creator>
   </cc:Work>
  </rdf:RDF>
 </metadata>
 <defs>
  <style type="text/css">*{stroke-linejoin: round; stroke-linecap: butt}</style>
 </defs>
 <g id="figure_1">
  <g id="patch_1">
   <path d="M 0 351.263145 
L 556.688281 351.263145 
L 556.688281 0 
L 0 0 
L 0 351.263145 
z
" style="fill: none"/>
  </g>
  <g id="axes_1">
   <g id="patch_2">
    <path d="M 47.288281 313.062363 
L 549.488281 313.062363 
L 549.488281 35.862363 
L 47.288281 35.862363 
z
" style="fill: #ffffff"/>
   </g>
   <g id="matplotlib.axis_1">
    <g id="xtick_1">
     <g id="line2d_1">
      <path d="M 47.288281 313.062363 
L 47.288281 35.862363 
" clip-path="url(#p75b426e02f)" style="fill: none; stroke: #b0b0b0; stroke-opacity: 0.25; stroke-width: 0.8; stroke-linecap: square"/>
     </g>
     <g id="line2d_2">
      <defs>
       <path id="m8939f387d4" d="M 0 0 
L 0 3.5 
" style="stroke: #000000; stroke-width: 0.8"/>
      </defs>
      <g>
       <use xlink:href="#m8939f387d4" x="47.288281" y="313.062363" style="stroke: #000000; stroke-width: 0.8"/>
      </g>
     </g>
     <g id="text_1">
      <!-- 0 -->
      <g transform="translate(44.107031 327.66002) scale(0.1 -0.1)">
       <defs>
        <path id="DejaVuSans-13" d="M 2034 4250 
Q 1547 4250 1301 3770 
Q 1056 3291 1056 2328 
Q 1056 1369 1301 889 
Q 1547 409 2034 409 
Q 2525 409 2770 889 
Q 3016 1369 3016 2328 
Q 3016 3291 2770 3770 
Q 2525 4250 2034 4250 
z
M 2034 4750 
Q 2819 4750 3233 4129 
Q 3647 3509 3647 2328 
Q 3647 1150 3233 529 
Q 2819 -91 2034 -91 
Q 1250 -91 836 529 
Q 422 1150 422 2328 
Q 422 3509 836 4129 
Q 1250 4750 2034 4750 
z
" transform="scale(0.015625)"/>
       </defs>
       <use xlink:href="#DejaVuSans-13"/>
      </g>
     </g>
    </g>
    <g id="xtick_2">
     <g id="line2d_3">
      <path d="M 120.870699 313.062363 
L 120.870699 35.862363 
" clip-path="url(#p75b426e02f)" style="fill: none; stroke: #b0b0b0; stroke-opacity: 0.25; stroke-width: 0.8; stroke-linecap: square"/>
     </g>
     <g id="line2d_4">
      <g>
       <use xlink:href="#m8939f387d4" x="120.870699" y="313.062363" style="stroke: #000000; stroke-width: 0.8"/>
      </g>
     </g>
     <g id="text_2">
      <!-- 1 -->
      <g transform="translate(117.689449 327.66002) scale(0.1 -0.1)">
       <defs>
        <path id="DejaVuSans-14" d="M 794 531 
L 1825 531 
L 1825 4091 
L 703 3866 
L 703 4441 
L 1819 4666 
L 2450 4666 
L 2450 531 
L 3481 531 
L 3481 0 
L 794 0 
L 794 531 
z
" transform="scale(0.015625)"/>
       </defs>
       <use xlink:href="#DejaVuSans-14"/>
      </g>
     </g>
    </g>
    <g id="xtick_3">
     <g id="line2d_5">
      <path d="M 194.453116 313.062363 
L 194.453116 35.862363 
" clip-path="url(#p75b426e02f)" style="fill: none; stroke: #b0b0b0; stroke-opacity: 0.25; stroke-width: 0.8; stroke-linecap: square"/>
     </g>
     <g id="line2d_6">
      <g>
       <use xlink:href="#m8939f387d4" x="194.453116" y="313.062363" style="stroke: #000000; stroke-width: 0.8"/>
      </g>
     </g>
     <g id="text_3">
      <!-- 2 -->
      <g transform="translate(191.271866 327.66002) scale(0.1 -0.1)">
       <defs>
        <path id="DejaVuSans-15" d="M 1228 531 
L 3431 531 
L 3431 0 
L 469 0 
L 469 531 
Q 828 903 1448 1529 
Q 2069 2156 2228 2338 
Q 2531 2678 2651 2914 
Q 2772 3150 2772 3378 
Q 2772 3750 2511 3984 
Q 2250 4219 1831 4219 
Q 1534 4219 1204 4116 
Q 875 4013 500 3803 
L 500 4441 
Q 881 4594 1212 4672 
Q 1544 4750 1819 4750 
Q 2544 4750 2975 4387 
Q 3406 4025 3406 3419 
Q 3406 3131 3298 2873 
Q 3191 2616 2906 2266 
Q 2828 2175 2409 1742 
Q 1991 1309 1228 531 
z
" transform="scale(0.015625)"/>
       </defs>
       <use xlink:href="#DejaVuSans-15"/>
      </g>
     </g>
    </g>
    <g id="xtick_4">
     <g id="line2d_7">
      <path d="M 268.035534 313.062363 
L 268.035534 35.862363 
" clip-path="url(#p75b426e02f)" style="fill: none; stroke: #b0b0b0; stroke-opacity: 0.25; stroke-width: 0.8; stroke-linecap: square"/>
     </g>
     <g id="line2d_8">
      <g>
       <use xlink:href="#m8939f387d4" x="268.035534" y="313.062363" style="stroke: #000000; stroke-width: 0.8"/>
      </g>
     </g>
     <g id="text_4">
      <!-- 3 -->
      <g transform="translate(264.854284 327.66002) scale(0.1 -0.1)">
       <defs>
        <path id="DejaVuSans-16" d="M 2597 2516 
Q 3050 2419 3304 2112 
Q 3559 1806 3559 1356 
Q 3559 666 3084 287 
Q 2609 -91 1734 -91 
Q 1441 -91 1130 -33 
Q 819 25 488 141 
L 488 750 
Q 750 597 1062 519 
Q 1375 441 1716 441 
Q 2309 441 2620 675 
Q 2931 909 2931 1356 
Q 2931 1769 2642 2001 
Q 2353 2234 1838 2234 
L 1294 2234 
L 1294 2753 
L 1863 2753 
Q 2328 2753 2575 2939 
Q 2822 3125 2822 3475 
Q 2822 3834 2567 4026 
Q 2313 4219 1838 4219 
Q 1578 4219 1281 4162 
Q 984 4106 628 3988 
L 628 4550 
Q 988 4650 1302 4700 
Q 1616 4750 1894 4750 
Q 2613 4750 3031 4423 
Q 3450 4097 3450 3541 
Q 3450 3153 3228 2886 
Q 3006 2619 2597 2516 
z
" transform="scale(0.015625)"/>
       </defs>
       <use xlink:href="#DejaVuSans-16"/>
      </g>
     </g>
    </g>
    <g id="xtick_5">
     <g id="line2d_9">
      <path d="M 341.617952 313.062363 
L 341.617952 35.862363 
" clip-path="url(#p75b426e02f)" style="fill: none; stroke: #b0b0b0; stroke-opacity: 0.25; stroke-width: 0.8; stroke-linecap: square"/>
     </g>
     <g id="line2d_10">
      <g>
       <use xlink:href="#m8939f387d4" x="341.617952" y="313.062363" style="stroke: #000000; stroke-width: 0.8"/>
      </g>
     </g>
     <g id="text_5">
      <!-- 4 -->
      <g transform="translate(338.436702 327.66002) scale(0.1 -0.1)">
       <defs>
        <path id="DejaVuSans-17" d="M 2419 4116 
L 825 1625 
L 2419 1625 
L 2419 4116 
z
M 2253 4666 
L 3047 4666 
L 3047 1625 
L 3713 1625 
L 3713 1100 
L 3047 1100 
L 3047 0 
L 2419 0 
L 2419 1100 
L 313 1100 
L 313 1709 
L 2253 4666 
z
" transform="scale(0.015625)"/>
       </defs>
       <use xlink:href="#DejaVuSans-17"/>
      </g>
     </g>
    </g>
    <g id="xtick_6">
     <g id="line2d_11">
      <path d="M 415.200369 313.062363 
L 415.200369 35.862363 
" clip-path="url(#p75b426e02f)" style="fill: none; stroke: #b0b0b0; stroke-opacity: 0.25; stroke-width: 0.8; stroke-linecap: square"/>
     </g>
     <g id="line2d_12">
      <g>
       <use xlink:href="#m8939f387d4" x="415.200369" y="313.062363" style="stroke: #000000; stroke-width: 0.8"/>
      </g>
     </g>
     <g id="text_6">
      <!-- 5 -->
      <g transform="translate(412.019119 327.66002) scale(0.1 -0.1)">
       <defs>
        <path id="DejaVuSans-18" d="M 691 4666 
L 3169 4666 
L 3169 4134 
L 1269 4134 
L 1269 2991 
Q 1406 3038 1543 3061 
Q 1681 3084 1819 3084 
Q 2600 3084 3056 2656 
Q 3513 2228 3513 1497 
Q 3513 744 3044 326 
Q 2575 -91 1722 -91 
Q 1428 -91 1123 -41 
Q 819 9 494 109 
L 494 744 
Q 775 591 1075 516 
Q 1375 441 1709 441 
Q 2250 441 2565 725 
Q 2881 1009 2881 1497 
Q 2881 1984 2565 2268 
Q 2250 2553 1709 2553 
Q 1456 2553 1204 2497 
Q 953 2441 691 2322 
L 691 4666 
z
" transform="scale(0.015625)"/>
       </defs>
       <use xlink:href="#DejaVuSans-18"/>
      </g>
     </g>
    </g>
    <g id="xtick_7">
     <g id="line2d_13">
      <path d="M 488.782787 313.062363 
L 488.782787 35.862363 
" clip-path="url(#p75b426e02f)" style="fill: none; stroke: #b0b0b0; stroke-opacity: 0.25; stroke-width: 0.8; stroke-linecap: square"/>
     </g>
     <g id="line2d_14">
      <g>
       <use xlink:href="#m8939f387d4" x="488.782787" y="313.062363" style="stroke: #000000; stroke-width: 0.8"/>
      </g>
     </g>
     <g id="text_7">
      <!-- 6 -->
      <g transform="translate(485.601537 327.66002) scale(0.1 -0.1)">
       <defs>
        <path id="DejaVuSans-19" d="M 2113 2584 
Q 1688 2584 1439 2293 
Q 1191 2003 1191 1497 
Q 1191 994 1439 701 
Q 1688 409 2113 409 
Q 2538 409 2786 701 
Q 3034 994 3034 1497 
Q 3034 2003 2786 2293 
Q 2538 2584 2113 2584 
z
M 3366 4563 
L 3366 3988 
Q 3128 4100 2886 4159 
Q 2644 4219 2406 4219 
Q 1781 4219 1451 3797 
Q 1122 3375 1075 2522 
Q 1259 2794 1537 2939 
Q 1816 3084 2150 3084 
Q 2853 3084 3261 2657 
Q 3669 2231 3669 1497 
Q 3669 778 3244 343 
Q 2819 -91 2113 -91 
Q 1303 -91 875 529 
Q 447 1150 447 2328 
Q 447 3434 972 4092 
Q 1497 4750 2381 4750 
Q 2619 4750 2861 4703 
Q 3103 4656 3366 4563 
z
" transform="scale(0.015625)"/>
       </defs>
       <use xlink:href="#DejaVuSans-19"/>
      </g>
     </g>
    </g>
    <g id="text_8">
     <!-- elapsed in the conversion window (minutes) -->
     <g transform="translate(187.720313 341.660801) scale(0.1 -0.1)">
      <defs>
       <path id="DejaVuSans-48" d="M 3597 1894 
L 3597 1613 
L 953 1613 
Q 991 1019 1311 708 
Q 1631 397 2203 397 
Q 2534 397 2845 478 
Q 3156 559 3463 722 
L 3463 178 
Q 3153 47 2828 -22 
Q 2503 -91 2169 -91 
Q 1331 -91 842 396 
Q 353 884 353 1716 
Q 353 2575 817 3079 
Q 1281 3584 2069 3584 
Q 2775 3584 3186 3129 
Q 3597 2675 3597 1894 
z
M 3022 2063 
Q 3016 2534 2758 2815 
Q 2500 3097 2075 3097 
Q 1594 3097 1305 2825 
Q 1016 2553 972 2059 
L 3022 2063 
z
" transform="scale(0.015625)"/>
       <path id="DejaVuSans-4f" d="M 603 4863 
L 1178 4863 
L 1178 0 
L 603 0 
L 603 4863 
z
" transform="scale(0.015625)"/>
       <path id="DejaVuSans-44" d="M 2194 1759 
Q 1497 1759 1228 1600 
Q 959 1441 959 1056 
Q 959 750 1161 570 
Q 1363 391 1709 391 
Q 2188 391 2477 730 
Q 2766 1069 2766 1631 
L 2766 1759 
L 2194 1759 
z
M 3341 1997 
L 3341 0 
L 2766 0 
L 2766 531 
Q 2569 213 2275 61 
Q 1981 -91 1556 -91 
Q 1019 -91 701 211 
Q 384 513 384 1019 
Q 384 1609 779 1909 
Q 1175 2209 1959 2209 
L 2766 2209 
L 2766 2266 
Q 2766 2663 2505 2880 
Q 2244 3097 1772 3097 
Q 1472 3097 1187 3025 
Q 903 2953 641 2809 
L 641 3341 
Q 956 3463 1253 3523 
Q 1550 3584 1831 3584 
Q 2591 3584 2966 3190 
Q 3341 2797 3341 1997 
z
" transform="scale(0.015625)"/>
       <path id="DejaVuSans-53" d="M 1159 525 
L 1159 -1331 
L 581 -1331 
L 581 3500 
L 1159 3500 
L 1159 2969 
Q 1341 3281 1617 3432 
Q 1894 3584 2278 3584 
Q 2916 3584 3314 3078 
Q 3713 2572 3713 1747 
Q 3713 922 3314 415 
Q 2916 -91 2278 -91 
Q 1894 -91 1617 61 
Q 1341 213 1159 525 
z
M 3116 1747 
Q 3116 2381 2855 2742 
Q 2594 3103 2138 3103 
Q 1681 3103 1420 2742 
Q 1159 2381 1159 1747 
Q 1159 1113 1420 752 
Q 1681 391 2138 391 
Q 2594 391 2855 752 
Q 3116 1113 3116 1747 
z
" transform="scale(0.015625)"/>
       <path id="DejaVuSans-56" d="M 2834 3397 
L 2834 2853 
Q 2591 2978 2328 3040 
Q 2066 3103 1784 3103 
Q 1356 3103 1142 2972 
Q 928 2841 928 2578 
Q 928 2378 1081 2264 
Q 1234 2150 1697 2047 
L 1894 2003 
Q 2506 1872 2764 1633 
Q 3022 1394 3022 966 
Q 3022 478 2636 193 
Q 2250 -91 1575 -91 
Q 1294 -91 989 -36 
Q 684 19 347 128 
L 347 722 
Q 666 556 975 473 
Q 1284 391 1588 391 
Q 1994 391 2212 530 
Q 2431 669 2431 922 
Q 2431 1156 2273 1281 
Q 2116 1406 1581 1522 
L 1381 1569 
Q 847 1681 609 1914 
Q 372 2147 372 2553 
Q 372 3047 722 3315 
Q 1072 3584 1716 3584 
Q 2034 3584 2315 3537 
Q 2597 3491 2834 3397 
z
" transform="scale(0.015625)"/>
       <path id="DejaVuSans-47" d="M 2906 2969 
L 2906 4863 
L 3481 4863 
L 3481 0 
L 2906 0 
L 2906 525 
Q 2725 213 2448 61 
Q 2172 -91 1784 -91 
Q 1150 -91 751 415 
Q 353 922 353 1747 
Q 353 2572 751 3078 
Q 1150 3584 1784 3584 
Q 2172 3584 2448 3432 
Q 2725 3281 2906 2969 
z
M 947 1747 
Q 947 1113 1208 752 
Q 1469 391 1925 391 
Q 2381 391 2643 752 
Q 2906 1113 2906 1747 
Q 2906 2381 2643 2742 
Q 2381 3103 1925 3103 
Q 1469 3103 1208 2742 
Q 947 2381 947 1747 
z
" transform="scale(0.015625)"/>
       <path id="DejaVuSans-3" transform="scale(0.015625)"/>
       <path id="DejaVuSans-4c" d="M 603 3500 
L 1178 3500 
L 1178 0 
L 603 0 
L 603 3500 
z
M 603 4863 
L 1178 4863 
L 1178 4134 
L 603 4134 
L 603 4863 
z
" transform="scale(0.015625)"/>
       <path id="DejaVuSans-51" d="M 3513 2113 
L 3513 0 
L 2938 0 
L 2938 2094 
Q 2938 2591 2744 2837 
Q 2550 3084 2163 3084 
Q 1697 3084 1428 2787 
Q 1159 2491 1159 1978 
L 1159 0 
L 581 0 
L 581 3500 
L 1159 3500 
L 1159 2956 
Q 1366 3272 1645 3428 
Q 1925 3584 2291 3584 
Q 2894 3584 3203 3211 
Q 3513 2838 3513 2113 
z
" transform="scale(0.015625)"/>
       <path id="DejaVuSans-57" d="M 1172 4494 
L 1172 3500 
L 2356 3500 
L 2356 3053 
L 1172 3053 
L 1172 1153 
Q 1172 725 1289 603 
Q 1406 481 1766 481 
L 2356 481 
L 2356 0 
L 1766 0 
Q 1100 0 847 248 
Q 594 497 594 1153 
L 594 3053 
L 172 3053 
L 172 3500 
L 594 3500 
L 594 4494 
L 1172 4494 
z
" transform="scale(0.015625)"/>
       <path id="DejaVuSans-4b" d="M 3513 2113 
L 3513 0 
L 2938 0 
L 2938 2094 
Q 2938 2591 2744 2837 
Q 2550 3084 2163 3084 
Q 1697 3084 1428 2787 
Q 1159 2491 1159 1978 
L 1159 0 
L 581 0 
L 581 4863 
L 1159 4863 
L 1159 2956 
Q 1366 3272 1645 3428 
Q 1925 3584 2291 3584 
Q 2894 3584 3203 3211 
Q 3513 2838 3513 2113 
z
" transform="scale(0.015625)"/>
       <path id="DejaVuSans-46" d="M 3122 3366 
L 3122 2828 
Q 2878 2963 2633 3030 
Q 2388 3097 2138 3097 
Q 1578 3097 1268 2742 
Q 959 2388 959 1747 
Q 959 1106 1268 751 
Q 1578 397 2138 397 
Q 2388 397 2633 464 
Q 2878 531 3122 666 
L 3122 134 
Q 2881 22 2623 -34 
Q 2366 -91 2075 -91 
Q 1284 -91 818 406 
Q 353 903 353 1747 
Q 353 2603 823 3093 
Q 1294 3584 2113 3584 
Q 2378 3584 2631 3529 
Q 2884 3475 3122 3366 
z
" transform="scale(0.015625)"/>
       <path id="DejaVuSans-52" d="M 1959 3097 
Q 1497 3097 1228 2736 
Q 959 2375 959 1747 
Q 959 1119 1226 758 
Q 1494 397 1959 397 
Q 2419 397 2687 759 
Q 2956 1122 2956 1747 
Q 2956 2369 2687 2733 
Q 2419 3097 1959 3097 
z
M 1959 3584 
Q 2709 3584 3137 3096 
Q 3566 2609 3566 1747 
Q 3566 888 3137 398 
Q 2709 -91 1959 -91 
Q 1206 -91 779 398 
Q 353 888 353 1747 
Q 353 2609 779 3096 
Q 1206 3584 1959 3584 
z
" transform="scale(0.015625)"/>
       <path id="DejaVuSans-59" d="M 191 3500 
L 800 3500 
L 1894 563 
L 2988 3500 
L 3597 3500 
L 2284 0 
L 1503 0 
L 191 3500 
z
" transform="scale(0.015625)"/>
       <path id="DejaVuSans-55" d="M 2631 2963 
Q 2534 3019 2420 3045 
Q 2306 3072 2169 3072 
Q 1681 3072 1420 2755 
Q 1159 2438 1159 1844 
L 1159 0 
L 581 0 
L 581 3500 
L 1159 3500 
L 1159 2956 
Q 1341 3275 1631 3429 
Q 1922 3584 2338 3584 
Q 2397 3584 2469 3576 
Q 2541 3569 2628 3553 
L 2631 2963 
z
" transform="scale(0.015625)"/>
       <path id="DejaVuSans-5a" d="M 269 3500 
L 844 3500 
L 1563 769 
L 2278 3500 
L 2956 3500 
L 3675 769 
L 4391 3500 
L 4966 3500 
L 4050 0 
L 3372 0 
L 2619 2869 
L 1863 0 
L 1184 0 
L 269 3500 
z
" transform="scale(0.015625)"/>
       <path id="DejaVuSans-b" d="M 1984 4856 
Q 1566 4138 1362 3434 
Q 1159 2731 1159 2009 
Q 1159 1288 1364 580 
Q 1569 -128 1984 -844 
L 1484 -844 
Q 1016 -109 783 600 
Q 550 1309 550 2009 
Q 550 2706 781 3412 
Q 1013 4119 1484 4856 
L 1984 4856 
z
" transform="scale(0.015625)"/>
       <path id="DejaVuSans-50" d="M 3328 2828 
Q 3544 3216 3844 3400 
Q 4144 3584 4550 3584 
Q 5097 3584 5394 3201 
Q 5691 2819 5691 2113 
L 5691 0 
L 5113 0 
L 5113 2094 
Q 5113 2597 4934 2840 
Q 4756 3084 4391 3084 
Q 3944 3084 3684 2787 
Q 3425 2491 3425 1978 
L 3425 0 
L 2847 0 
L 2847 2094 
Q 2847 2600 2669 2842 
Q 2491 3084 2119 3084 
Q 1678 3084 1418 2786 
Q 1159 2488 1159 1978 
L 1159 0 
L 581 0 
L 581 3500 
L 1159 3500 
L 1159 2956 
Q 1356 3278 1631 3431 
Q 1906 3584 2284 3584 
Q 2666 3584 2933 3390 
Q 3200 3197 3328 2828 
z
" transform="scale(0.015625)"/>
       <path id="DejaVuSans-58" d="M 544 1381 
L 544 3500 
L 1119 3500 
L 1119 1403 
Q 1119 906 1312 657 
Q 1506 409 1894 409 
Q 2359 409 2629 706 
Q 2900 1003 2900 1516 
L 2900 3500 
L 3475 3500 
L 3475 0 
L 2900 0 
L 2900 538 
Q 2691 219 2414 64 
Q 2138 -91 1772 -91 
Q 1169 -91 856 284 
Q 544 659 544 1381 
z
M 1991 3584 
L 1991 3584 
z
" transform="scale(0.015625)"/>
       <path id="DejaVuSans-c" d="M 513 4856 
L 1013 4856 
Q 1481 4119 1714 3412 
Q 1947 2706 1947 2009 
Q 1947 1309 1714 600 
Q 1481 -109 1013 -844 
L 513 -844 
Q 928 -128 1133 580 
Q 1338 1288 1338 2009 
Q 1338 2731 1133 3434 
Q 928 4138 513 4856 
z
" transform="scale(0.015625)"/>
      </defs>
      <use xlink:href="#DejaVuSans-48"/>
      <use xlink:href="#DejaVuSans-4f" transform="translate(61.53125 0)"/>
      <use xlink:href="#DejaVuSans-44" transform="translate(89.3125 0)"/>
      <use xlink:href="#DejaVuSans-53" transform="translate(150.59375 0)"/>
      <use xlink:href="#DejaVuSans-56" transform="translate(214.078125 0)"/>
      <use xlink:href="#DejaVuSans-48" transform="translate(266.171875 0)"/>
      <use xlink:href="#DejaVuSans-47" transform="translate(327.703125 0)"/>
      <use xlink:href="#DejaVuSans-3" transform="translate(391.1875 0)"/>
      <use xlink:href="#DejaVuSans-4c" transform="translate(422.96875 0)"/>
      <use xlink:href="#DejaVuSans-51" transform="translate(450.75 0)"/>
      <use xlink:href="#DejaVuSans-3" transform="translate(514.125 0)"/>
      <use xlink:href="#DejaVuSans-57" transform="translate(545.90625 0)"/>
      <use xlink:href="#DejaVuSans-4b" transform="translate(585.109375 0)"/>
      <use xlink:href="#DejaVuSans-48" transform="translate(648.484375 0)"/>
      <use xlink:href="#DejaVuSans-3" transform="translate(710.015625 0)"/>
      <use xlink:href="#DejaVuSans-46" transform="translate(741.796875 0)"/>
      <use xlink:href="#DejaVuSans-52" transform="translate(796.78125 0)"/>
      <use xlink:href="#DejaVuSans-51" transform="translate(857.96875 0)"/>
      <use xlink:href="#DejaVuSans-59" transform="translate(921.34375 0)"/>
      <use xlink:href="#DejaVuSans-48" transform="translate(980.53125 0)"/>
      <use xlink:href="#DejaVuSans-55" transform="translate(1042.0625 0)"/>
      <use xlink:href="#DejaVuSans-56" transform="translate(1083.171875 0)"/>
      <use xlink:href="#DejaVuSans-4c" transform="translate(1135.265625 0)"/>
      <use xlink:href="#DejaVuSans-52" transform="translate(1163.046875 0)"/>
      <use xlink:href="#DejaVuSans-51" transform="translate(1224.234375 0)"/>
      <use xlink:href="#DejaVuSans-3" transform="translate(1287.609375 0)"/>
      <use xlink:href="#DejaVuSans-5a" transform="translate(1319.390625 0)"/>
      <use xlink:href="#DejaVuSans-4c" transform="translate(1401.171875 0)"/>
      <use xlink:href="#DejaVuSans-51" transform="translate(1428.953125 0)"/>
      <use xlink:href="#DejaVuSans-47" transform="translate(1492.328125 0)"/>
      <use xlink:href="#DejaVuSans-52" transform="translate(1555.8125 0)"/>
      <use xlink:href="#DejaVuSans-5a" transform="translate(1617 0)"/>
      <use xlink:href="#DejaVuSans-3" transform="translate(1698.78125 0)"/>
      <use xlink:href="#DejaVuSans-b" transform="translate(1730.5625 0)"/>
      <use xlink:href="#DejaVuSans-50" transform="translate(1769.578125 0)"/>
      <use xlink:href="#DejaVuSans-4c" transform="translate(1866.984375 0)"/>
      <use xlink:href="#DejaVuSans-51" transform="translate(1894.765625 0)"/>
      <use xlink:href="#DejaVuSans-58" transform="translate(1958.140625 0)"/>
      <use xlink:href="#DejaVuSans-57" transform="translate(2021.515625 0)"/>
      <use xlink:href="#DejaVuSans-48" transform="translate(2060.71875 0)"/>
      <use xlink:href="#DejaVuSans-56" transform="translate(2122.25 0)"/>
      <use xlink:href="#DejaVuSans-c" transform="translate(2174.34375 0)"/>
     </g>
    </g>
   </g>
   <g id="matplotlib.axis_2">
    <g id="ytick_1">
     <g id="line2d_15">
      <path d="M 47.288281 313.062363 
L 549.488281 313.062363 
" clip-path="url(#p75b426e02f)" style="fill: none; stroke: #b0b0b0; stroke-opacity: 0.25; stroke-width: 0.8; stroke-linecap: square"/>
     </g>
     <g id="line2d_16">
      <defs>
       <path id="m68ad74dfaf" d="M 0 0 
L -3.5 0 
" style="stroke: #000000; stroke-width: 0.8"/>
      </defs>
      <g>
       <use xlink:href="#m68ad74dfaf" x="47.288281" y="313.062363" style="stroke: #000000; stroke-width: 0.8"/>
      </g>
     </g>
     <g id="text_9">
      <!-- 0 -->
      <g transform="translate(33.925781 316.861191) scale(0.1 -0.1)">
       <use xlink:href="#DejaVuSans-13"/>
      </g>
     </g>
    </g>
    <g id="ytick_2">
     <g id="line2d_17">
      <path d="M 47.288281 277.685402 
L 549.488281 277.685402 
" clip-path="url(#p75b426e02f)" style="fill: none; stroke: #b0b0b0; stroke-opacity: 0.25; stroke-width: 0.8; stroke-linecap: square"/>
     </g>
     <g id="line2d_18">
      <g>
       <use xlink:href="#m68ad74dfaf" x="47.288281" y="277.685402" style="stroke: #000000; stroke-width: 0.8"/>
      </g>
     </g>
     <g id="text_10">
      <!-- 50 -->
      <g transform="translate(27.563281 281.48423) scale(0.1 -0.1)">
       <use xlink:href="#DejaVuSans-18"/>
       <use xlink:href="#DejaVuSans-13" transform="translate(63.625 0)"/>
      </g>
     </g>
    </g>
    <g id="ytick_3">
     <g id="line2d_19">
      <path d="M 47.288281 242.308441 
L 549.488281 242.308441 
" clip-path="url(#p75b426e02f)" style="fill: none; stroke: #b0b0b0; stroke-opacity: 0.25; stroke-width: 0.8; stroke-linecap: square"/>
     </g>
     <g id="line2d_20">
      <g>
       <use xlink:href="#m68ad74dfaf" x="47.288281" y="242.308441" style="stroke: #000000; stroke-width: 0.8"/>
      </g>
     </g>
     <g id="text_11">
      <!-- 100 -->
      <g transform="translate(21.200781 246.107269) scale(0.1 -0.1)">
       <use xlink:href="#DejaVuSans-14"/>
       <use xlink:href="#DejaVuSans-13" transform="translate(63.625 0)"/>
       <use xlink:href="#DejaVuSans-13" transform="translate(127.25 0)"/>
      </g>
     </g>
    </g>
    <g id="ytick_4">
     <g id="line2d_21">
      <path d="M 47.288281 206.93148 
L 549.488281 206.93148 
" clip-path="url(#p75b426e02f)" style="fill: none; stroke: #b0b0b0; stroke-opacity: 0.25; stroke-width: 0.8; stroke-linecap: square"/>
     </g>
     <g id="line2d_22">
      <g>
       <use xlink:href="#m68ad74dfaf" x="47.288281" y="206.93148" style="stroke: #000000; stroke-width: 0.8"/>
      </g>
     </g>
     <g id="text_12">
      <!-- 150 -->
      <g transform="translate(21.200781 210.730308) scale(0.1 -0.1)">
       <use xlink:href="#DejaVuSans-14"/>
       <use xlink:href="#DejaVuSans-18" transform="translate(63.625 0)"/>
       <use xlink:href="#DejaVuSans-13" transform="translate(127.25 0)"/>
      </g>
     </g>
    </g>
    <g id="ytick_5">
     <g id="line2d_23">
      <path d="M 47.288281 171.554519 
L 549.488281 171.554519 
" clip-path="url(#p75b426e02f)" style="fill: none; stroke: #b0b0b0; stroke-opacity: 0.25; stroke-width: 0.8; stroke-linecap: square"/>
     </g>
     <g id="line2d_24">
      <g>
       <use xlink:href="#m68ad74dfaf" x="47.288281" y="171.554519" style="stroke: #000000; stroke-width: 0.8"/>
      </g>
     </g>
     <g id="text_13">
      <!-- 200 -->
      <g transform="translate(21.200781 175.353347) scale(0.1 -0.1)">
       <use xlink:href="#DejaVuSans-15"/>
       <use xlink:href="#DejaVuSans-13" transform="translate(63.625 0)"/>
       <use xlink:href="#DejaVuSans-13" transform="translate(127.25 0)"/>
      </g>
     </g>
    </g>
    <g id="ytick_6">
     <g id="line2d_25">
      <path d="M 47.288281 136.177557 
L 549.488281 136.177557 
" clip-path="url(#p75b426e02f)" style="fill: none; stroke: #b0b0b0; stroke-opacity: 0.25; stroke-width: 0.8; stroke-linecap: square"/>
     </g>
     <g id="line2d_26">
      <g>
       <use xlink:href="#m68ad74dfaf" x="47.288281" y="136.177557" style="stroke: #000000; stroke-width: 0.8"/>
      </g>
     </g>
     <g id="text_14">
      <!-- 250 -->
      <g transform="translate(21.200781 139.976386) scale(0.1 -0.1)">
       <use xlink:href="#DejaVuSans-15"/>
       <use xlink:href="#DejaVuSans-18" transform="translate(63.625 0)"/>
       <use xlink:href="#DejaVuSans-13" transform="translate(127.25 0)"/>
      </g>
     </g>
    </g>
    <g id="ytick_7">
     <g id="line2d_27">
      <path d="M 47.288281 100.800596 
L 549.488281 100.800596 
" clip-path="url(#p75b426e02f)" style="fill: none; stroke: #b0b0b0; stroke-opacity: 0.25; stroke-width: 0.8; stroke-linecap: square"/>
     </g>
     <g id="line2d_28">
      <g>
       <use xlink:href="#m68ad74dfaf" x="47.288281" y="100.800596" style="stroke: #000000; stroke-width: 0.8"/>
      </g>
     </g>
     <g id="text_15">
      <!-- 300 -->
      <g transform="translate(21.200781 104.599424) scale(0.1 -0.1)">
       <use xlink:href="#DejaVuSans-16"/>
       <use xlink:href="#DejaVuSans-13" transform="translate(63.625 0)"/>
       <use xlink:href="#DejaVuSans-13" transform="translate(127.25 0)"/>
      </g>
     </g>
    </g>
    <g id="ytick_8">
     <g id="line2d_29">
      <path d="M 47.288281 65.423635 
L 549.488281 65.423635 
" clip-path="url(#p75b426e02f)" style="fill: none; stroke: #b0b0b0; stroke-opacity: 0.25; stroke-width: 0.8; stroke-linecap: square"/>
     </g>
     <g id="line2d_30">
      <g>
       <use xlink:href="#m68ad74dfaf" x="47.288281" y="65.423635" style="stroke: #000000; stroke-width: 0.8"/>
      </g>
     </g>
     <g id="text_16">
      <!-- 350 -->
      <g transform="translate(21.200781 69.222463) scale(0.1 -0.1)">
       <use xlink:href="#DejaVuSans-16"/>
       <use xlink:href="#DejaVuSans-18" transform="translate(63.625 0)"/>
       <use xlink:href="#DejaVuSans-13" transform="translate(127.25 0)"/>
      </g>
     </g>
    </g>
    <g id="text_17">
     <!-- ambient-workload transaction latency (ms) -->
     <g transform="translate(14.798438 282.51002) rotate(-90) scale(0.1 -0.1)">
      <defs>
       <path id="DejaVuSans-45" d="M 3116 1747 
Q 3116 2381 2855 2742 
Q 2594 3103 2138 3103 
Q 1681 3103 1420 2742 
Q 1159 2381 1159 1747 
Q 1159 1113 1420 752 
Q 1681 391 2138 391 
Q 2594 391 2855 752 
Q 3116 1113 3116 1747 
z
M 1159 2969 
Q 1341 3281 1617 3432 
Q 1894 3584 2278 3584 
Q 2916 3584 3314 3078 
Q 3713 2572 3713 1747 
Q 3713 922 3314 415 
Q 2916 -91 2278 -91 
Q 1894 -91 1617 61 
Q 1341 213 1159 525 
L 1159 0 
L 581 0 
L 581 4863 
L 1159 4863 
L 1159 2969 
z
" transform="scale(0.015625)"/>
       <path id="DejaVuSans-10" d="M 313 2009 
L 1997 2009 
L 1997 1497 
L 313 1497 
L 313 2009 
z
" transform="scale(0.015625)"/>
       <path id="DejaVuSans-4e" d="M 581 4863 
L 1159 4863 
L 1159 1991 
L 2875 3500 
L 3609 3500 
L 1753 1863 
L 3688 0 
L 2938 0 
L 1159 1709 
L 1159 0 
L 581 0 
L 581 4863 
z
" transform="scale(0.015625)"/>
       <path id="DejaVuSans-5c" d="M 2059 -325 
Q 1816 -950 1584 -1140 
Q 1353 -1331 966 -1331 
L 506 -1331 
L 506 -850 
L 844 -850 
Q 1081 -850 1212 -737 
Q 1344 -625 1503 -206 
L 1606 56 
L 191 3500 
L 800 3500 
L 1894 763 
L 2988 3500 
L 3597 3500 
L 2059 -325 
z
" transform="scale(0.015625)"/>
      </defs>
      <use xlink:href="#DejaVuSans-44"/>
      <use xlink:href="#DejaVuSans-50" transform="translate(61.28125 0)"/>
      <use xlink:href="#DejaVuSans-45" transform="translate(158.6875 0)"/>
      <use xlink:href="#DejaVuSans-4c" transform="translate(222.171875 0)"/>
      <use xlink:href="#DejaVuSans-48" transform="translate(249.953125 0)"/>
      <use xlink:href="#DejaVuSans-51" transform="translate(311.484375 0)"/>
      <use xlink:href="#DejaVuSans-57" transform="translate(374.859375 0)"/>
      <use xlink:href="#DejaVuSans-10" transform="translate(414.0625 0)"/>
      <use xlink:href="#DejaVuSans-5a" transform="translate(450.140625 0)"/>
      <use xlink:href="#DejaVuSans-52" transform="translate(531.921875 0)"/>
      <use xlink:href="#DejaVuSans-55" transform="translate(593.109375 0)"/>
      <use xlink:href="#DejaVuSans-4e" transform="translate(634.21875 0)"/>
      <use xlink:href="#DejaVuSans-4f" transform="translate(692.125 0)"/>
      <use xlink:href="#DejaVuSans-52" transform="translate(719.90625 0)"/>
      <use xlink:href="#DejaVuSans-44" transform="translate(781.09375 0)"/>
      <use xlink:href="#DejaVuSans-47" transform="translate(842.375 0)"/>
      <use xlink:href="#DejaVuSans-3" transform="translate(905.859375 0)"/>
      <use xlink:href="#DejaVuSans-57" transform="translate(937.640625 0)"/>
      <use xlink:href="#DejaVuSans-55" transform="translate(976.84375 0)"/>
      <use xlink:href="#DejaVuSans-44" transform="translate(1017.953125 0)"/>
      <use xlink:href="#DejaVuSans-51" transform="translate(1079.234375 0)"/>
      <use xlink:href="#DejaVuSans-56" transform="translate(1142.609375 0)"/>
      <use xlink:href="#DejaVuSans-44" transform="translate(1194.703125 0)"/>
      <use xlink:href="#DejaVuSans-46" transform="translate(1255.984375 0)"/>
      <use xlink:href="#DejaVuSans-57" transform="translate(1310.96875 0)"/>
      <use xlink:href="#DejaVuSans-4c" transform="translate(1350.171875 0)"/>
      <use xlink:href="#DejaVuSans-52" transform="translate(1377.953125 0)"/>
      <use xlink:href="#DejaVuSans-51" transform="translate(1439.140625 0)"/>
      <use xlink:href="#DejaVuSans-3" transform="translate(1502.515625 0)"/>
      <use xlink:href="#DejaVuSans-4f" transform="translate(1534.296875 0)"/>
      <use xlink:href="#DejaVuSans-44" transform="translate(1562.078125 0)"/>
      <use xlink:href="#DejaVuSans-57" transform="translate(1623.359375 0)"/>
      <use xlink:href="#DejaVuSans-48" transform="translate(1662.5625 0)"/>
      <use xlink:href="#DejaVuSans-51" transform="translate(1724.09375 0)"/>
      <use xlink:href="#DejaVuSans-46" transform="translate(1787.46875 0)"/>
      <use xlink:href="#DejaVuSans-5c" transform="translate(1842.453125 0)"/>
      <use xlink:href="#DejaVuSans-3" transform="translate(1901.640625 0)"/>
      <use xlink:href="#DejaVuSans-b" transform="translate(1933.421875 0)"/>
      <use xlink:href="#DejaVuSans-50" transform="translate(1972.4375 0)"/>
      <use xlink:href="#DejaVuSans-56" transform="translate(2069.84375 0)"/>
      <use xlink:href="#DejaVuSans-c" transform="translate(2121.9375 0)"/>
     </g>
    </g>
   </g>
   <g id="line2d_31">
    <path d="M 47.288281 241.975897 
L 59.552018 191.857357 
L 71.815754 256.826438 
L 84.07949 257.321008 
L 96.343226 253.068697 
L 108.606963 257.88987 
L 120.870699 244.968788 
L 133.134435 243.929413 
L 145.398171 257.592703 
L 157.661908 256.620544 
L 169.925644 244.182712 
L 182.18938 255.351927 
L 194.453116 252.21116 
L 206.716853 257.031625 
L 218.980589 245.282228 
L 231.244325 251.746307 
L 243.508061 257.057804 
L 255.771798 257.027379 
L 268.035534 244.142383 
L 280.29927 254.389673 
L 292.563007 256.880211 
L 304.826743 256.890117 
L 317.090479 243.568568 
L 329.354215 249.05695 
L 341.617952 256.744364 
L 353.881688 257.434922 
L 366.145424 245.915476 
L 378.40916 252.615165 
L 390.672897 256.378566 
L 402.936633 257.525487 
L 415.200369 245.709582 
L 427.464105 253.352421 
L 439.727842 257.304735 
L 451.991578 257.616052 
L 464.255314 248.998224 
L 476.51905 250.762827 
L 488.782787 254.585662 
L 501.046523 257.911096 
L 501.88662 -1 
M 524.753931 -1 
L 525.573996 251.294897 
" clip-path="url(#p75b426e02f)" style="fill: none; stroke: #d2553b; stroke-opacity: 0.85; stroke-width: 1.3; stroke-linecap: square"/>
   </g>
   <g id="line2d_32">
    <path d="M 47.288281 245.513594 
L 59.552018 205.777483 
L 71.815754 258.212508 
L 84.07949 258.12265 
L 96.343226 257.375489 
L 108.606963 258.543636 
L 120.870699 257.086813 
L 133.134435 257.408035 
L 145.398171 258.588211 
L 157.661908 257.98751 
L 169.925644 254.507832 
L 182.18938 257.811333 
L 194.453116 255.204758 
L 206.716853 258.347648 
L 218.980589 255.418435 
L 231.244325 257.863691 
L 243.508061 258.151659 
L 255.771798 258.394345 
L 268.035534 256.597903 
L 280.29927 257.950011 
L 292.563007 258.288922 
L 304.826743 258.158027 
L 317.090479 253.718926 
L 329.354215 257.496478 
L 341.617952 258.059679 
L 353.881688 258.527363 
L 366.145424 255.712064 
L 378.40916 257.610392 
L 390.672897 257.985388 
L 402.936633 258.351185 
L 415.200369 255.995787 
L 427.464105 257.66558 
L 439.727842 258.276186 
L 451.991578 258.515334 
L 464.255314 256.689883 
L 476.51905 255.982344 
L 488.782787 256.808042 
L 501.046523 258.689389 
L 513.310259 187.062363 
L 525.573996 257.66558 
" clip-path="url(#p75b426e02f)" style="fill: none; stroke: #e8a33d; stroke-width: 1.6; stroke-linecap: square"/>
   </g>
   <g id="line2d_33">
    <path d="M 47.288281 259.388084 
L 59.552018 244.97551 
L 71.815754 259.515087 
L 84.07949 259.47971 
L 96.343226 259.585134 
L 108.606963 259.733009 
L 120.870699 259.494569 
L 133.134435 259.41957 
L 145.398171 259.631124 
L 157.661908 259.393744 
L 169.925644 259.191742 
L 182.18938 259.459192 
L 194.453116 258.766511 
L 206.716853 259.598577 
L 218.980589 259.41957 
L 231.244325 259.57169 
L 243.508061 259.471927 
L 255.771798 259.552587 
L 268.035534 259.480418 
L 280.29927 259.506243 
L 292.563007 259.428768 
L 304.826743 259.48714 
L 317.090479 259.372872 
L 329.354215 259.478295 
L 341.617952 259.38207 
L 353.881688 259.658364 
L 366.145424 259.336787 
L 378.40916 259.418862 
L 390.672897 259.437966 
L 402.936633 259.574167 
L 415.200369 259.46556 
L 427.464105 259.506243 
L 439.727842 259.495984 
L 451.991578 259.58478 
L 464.255314 259.359429 
L 476.51905 259.25259 
L 488.782787 258.925353 
L 501.046523 259.670038 
L 513.310259 258.268403 
L 525.573996 259.318745 
" clip-path="url(#p75b426e02f)" style="fill: none; stroke: #3ecf8e; stroke-width: 2.4; stroke-linecap: square"/>
   </g>
   <g id="line2d_34">
    <path d="M 47.288281 259.61202 
L 549.488281 259.61202 
" clip-path="url(#p75b426e02f)" style="fill: none; stroke-dasharray: 4.81,2.08; stroke-dashoffset: 0; stroke: #9aa0a6; stroke-width: 1.3"/>
   </g>
   <g id="patch_3">
    <path d="M 47.288281 313.062363 
L 47.288281 35.862363 
" style="fill: none; stroke: #000000; stroke-width: 0.8; stroke-linejoin: miter; stroke-linecap: square"/>
   </g>
   <g id="patch_4">
    <path d="M 549.488281 313.062363 
L 549.488281 35.862363 
" style="fill: none; stroke: #000000; stroke-width: 0.8; stroke-linejoin: miter; stroke-linecap: square"/>
   </g>
   <g id="patch_5">
    <path d="M 47.288281 313.062363 
L 549.488281 313.062363 
" style="fill: none; stroke: #000000; stroke-width: 0.8; stroke-linejoin: miter; stroke-linecap: square"/>
   </g>
   <g id="patch_6">
    <path d="M 47.288281 35.862363 
L 549.488281 35.862363 
" style="fill: none; stroke: #000000; stroke-width: 0.8; stroke-linejoin: miter; stroke-linecap: square"/>
   </g>
   <g id="text_18">
    <!-- The drain is unnoticeable: workload latency holds at the baseline -->
    <g transform="translate(118.761719 16.659355) scale(0.11 -0.11)">
     <defs>
      <path id="DejaVuSans-37" d="M -19 4666 
L 3928 4666 
L 3928 4134 
L 2272 4134 
L 2272 0 
L 1638 0 
L 1638 4134 
L -19 4134 
L -19 4666 
z
" transform="scale(0.015625)"/>
      <path id="DejaVuSans-1d" d="M 750 794 
L 1409 794 
L 1409 0 
L 750 0 
L 750 794 
z
M 750 3309 
L 1409 3309 
L 1409 2516 
L 750 2516 
L 750 3309 
z
" transform="scale(0.015625)"/>
     </defs>
     <use xlink:href="#DejaVuSans-37"/>
     <use xlink:href="#DejaVuSans-4b" transform="translate(61.078125 0)"/>
     <use xlink:href="#DejaVuSans-48" transform="translate(124.453125 0)"/>
     <use xlink:href="#DejaVuSans-3" transform="translate(185.984375 0)"/>
     <use xlink:href="#DejaVuSans-47" transform="translate(217.765625 0)"/>
     <use xlink:href="#DejaVuSans-55" transform="translate(281.25 0)"/>
     <use xlink:href="#DejaVuSans-44" transform="translate(322.359375 0)"/>
     <use xlink:href="#DejaVuSans-4c" transform="translate(383.640625 0)"/>
     <use xlink:href="#DejaVuSans-51" transform="translate(411.421875 0)"/>
     <use xlink:href="#DejaVuSans-3" transform="translate(474.796875 0)"/>
     <use xlink:href="#DejaVuSans-4c" transform="translate(506.578125 0)"/>
     <use xlink:href="#DejaVuSans-56" transform="translate(534.359375 0)"/>
     <use xlink:href="#DejaVuSans-3" transform="translate(586.453125 0)"/>
     <use xlink:href="#DejaVuSans-58" transform="translate(618.234375 0)"/>
     <use xlink:href="#DejaVuSans-51" transform="translate(681.609375 0)"/>
     <use xlink:href="#DejaVuSans-51" transform="translate(744.984375 0)"/>
     <use xlink:href="#DejaVuSans-52" transform="translate(808.359375 0)"/>
     <use xlink:href="#DejaVuSans-57" transform="translate(869.546875 0)"/>
     <use xlink:href="#DejaVuSans-4c" transform="translate(908.75 0)"/>
     <use xlink:href="#DejaVuSans-46" transform="translate(936.53125 0)"/>
     <use xlink:href="#DejaVuSans-48" transform="translate(991.515625 0)"/>
     <use xlink:href="#DejaVuSans-44" transform="translate(1053.046875 0)"/>
     <use xlink:href="#DejaVuSans-45" transform="translate(1114.328125 0)"/>
     <use xlink:href="#DejaVuSans-4f" transform="translate(1177.8125 0)"/>
     <use xlink:href="#DejaVuSans-48" transform="translate(1205.59375 0)"/>
     <use xlink:href="#DejaVuSans-1d" transform="translate(1267.125 0)"/>
     <use xlink:href="#DejaVuSans-3" transform="translate(1300.8125 0)"/>
     <use xlink:href="#DejaVuSans-5a" transform="translate(1332.59375 0)"/>
     <use xlink:href="#DejaVuSans-52" transform="translate(1414.375 0)"/>
     <use xlink:href="#DejaVuSans-55" transform="translate(1475.5625 0)"/>
     <use xlink:href="#DejaVuSans-4e" transform="translate(1516.671875 0)"/>
     <use xlink:href="#DejaVuSans-4f" transform="translate(1574.578125 0)"/>
     <use xlink:href="#DejaVuSans-52" transform="translate(1602.359375 0)"/>
     <use xlink:href="#DejaVuSans-44" transform="translate(1663.546875 0)"/>
     <use xlink:href="#DejaVuSans-47" transform="translate(1724.828125 0)"/>
     <use xlink:href="#DejaVuSans-3" transform="translate(1788.3125 0)"/>
     <use xlink:href="#DejaVuSans-4f" transform="translate(1820.09375 0)"/>
     <use xlink:href="#DejaVuSans-44" transform="translate(1847.875 0)"/>
     <use xlink:href="#DejaVuSans-57" transform="translate(1909.15625 0)"/>
     <use xlink:href="#DejaVuSans-48" transform="translate(1948.359375 0)"/>
     <use xlink:href="#DejaVuSans-51" transform="translate(2009.890625 0)"/>
     <use xlink:href="#DejaVuSans-46" transform="translate(2073.265625 0)"/>
     <use xlink:href="#DejaVuSans-5c" transform="translate(2128.25 0)"/>
     <use xlink:href="#DejaVuSans-3" transform="translate(2187.4375 0)"/>
     <use xlink:href="#DejaVuSans-4b" transform="translate(2219.21875 0)"/>
     <use xlink:href="#DejaVuSans-52" transform="translate(2282.59375 0)"/>
     <use xlink:href="#DejaVuSans-4f" transform="translate(2343.78125 0)"/>
     <use xlink:href="#DejaVuSans-47" transform="translate(2371.5625 0)"/>
     <use xlink:href="#DejaVuSans-56" transform="translate(2435.046875 0)"/>
     <use xlink:href="#DejaVuSans-3" transform="translate(2487.140625 0)"/>
     <use xlink:href="#DejaVuSans-44" transform="translate(2518.921875 0)"/>
     <use xlink:href="#DejaVuSans-57" transform="translate(2580.203125 0)"/>
     <use xlink:href="#DejaVuSans-3" transform="translate(2619.40625 0)"/>
     <use xlink:href="#DejaVuSans-57" transform="translate(2651.1875 0)"/>
     <use xlink:href="#DejaVuSans-4b" transform="translate(2690.390625 0)"/>
     <use xlink:href="#DejaVuSans-48" transform="translate(2753.765625 0)"/>
     <use xlink:href="#DejaVuSans-3" transform="translate(2815.296875 0)"/>
     <use xlink:href="#DejaVuSans-45" transform="translate(2847.078125 0)"/>
     <use xlink:href="#DejaVuSans-44" transform="translate(2910.5625 0)"/>
     <use xlink:href="#DejaVuSans-56" transform="translate(2971.84375 0)"/>
     <use xlink:href="#DejaVuSans-48" transform="translate(3023.9375 0)"/>
     <use xlink:href="#DejaVuSans-4f" transform="translate(3085.46875 0)"/>
     <use xlink:href="#DejaVuSans-4c" transform="translate(3113.25 0)"/>
     <use xlink:href="#DejaVuSans-51" transform="translate(3141.03125 0)"/>
     <use xlink:href="#DejaVuSans-48" transform="translate(3204.40625 0)"/>
    </g>
    <!-- while pgpm partitions the table underneath it -->
    <g transform="translate(172.902344 29.862363) scale(0.11 -0.11)">
     <defs>
      <path id="DejaVuSans-4a" d="M 2906 1791 
Q 2906 2416 2648 2759 
Q 2391 3103 1925 3103 
Q 1463 3103 1205 2759 
Q 947 2416 947 1791 
Q 947 1169 1205 825 
Q 1463 481 1925 481 
Q 2391 481 2648 825 
Q 2906 1169 2906 1791 
z
M 3481 434 
Q 3481 -459 3084 -895 
Q 2688 -1331 1869 -1331 
Q 1566 -1331 1297 -1286 
Q 1028 -1241 775 -1147 
L 775 -588 
Q 1028 -725 1275 -790 
Q 1522 -856 1778 -856 
Q 2344 -856 2625 -561 
Q 2906 -266 2906 331 
L 2906 616 
Q 2728 306 2450 153 
Q 2172 0 1784 0 
Q 1141 0 747 490 
Q 353 981 353 1791 
Q 353 2603 747 3093 
Q 1141 3584 1784 3584 
Q 2172 3584 2450 3431 
Q 2728 3278 2906 2969 
L 2906 3500 
L 3481 3500 
L 3481 434 
z
" transform="scale(0.015625)"/>
     </defs>
     <use xlink:href="#DejaVuSans-5a"/>
     <use xlink:href="#DejaVuSans-4b" transform="translate(81.78125 0)"/>
     <use xlink:href="#DejaVuSans-4c" transform="translate(145.15625 0)"/>
     <use xlink:href="#DejaVuSans-4f" transform="translate(172.9375 0)"/>
     <use xlink:href="#DejaVuSans-48" transform="translate(200.71875 0)"/>
     <use xlink:href="#DejaVuSans-3" transform="translate(262.25 0)"/>
     <use xlink:href="#DejaVuSans-53" transform="translate(294.03125 0)"/>
     <use xlink:href="#DejaVuSans-4a" transform="translate(357.515625 0)"/>
     <use xlink:href="#DejaVuSans-53" transform="translate(421 0)"/>
     <use xlink:href="#DejaVuSans-50" transform="translate(484.484375 0)"/>
     <use xlink:href="#DejaVuSans-3" transform="translate(581.890625 0)"/>
     <use xlink:href="#DejaVuSans-53" transform="translate(613.671875 0)"/>
     <use xlink:href="#DejaVuSans-44" transform="translate(677.15625 0)"/>
     <use xlink:href="#DejaVuSans-55" transform="translate(738.4375 0)"/>
     <use xlink:href="#DejaVuSans-57" transform="translate(779.546875 0)"/>
     <use xlink:href="#DejaVuSans-4c" transform="translate(818.75 0)"/>
     <use xlink:href="#DejaVuSans-57" transform="translate(846.53125 0)"/>
     <use xlink:href="#DejaVuSans-4c" transform="translate(885.734375 0)"/>
     <use xlink:href="#DejaVuSans-52" transform="translate(913.515625 0)"/>
     <use xlink:href="#DejaVuSans-51" transform="translate(974.703125 0)"/>
     <use xlink:href="#DejaVuSans-56" transform="translate(1038.078125 0)"/>
     <use xlink:href="#DejaVuSans-3" transform="translate(1090.171875 0)"/>
     <use xlink:href="#DejaVuSans-57" transform="translate(1121.953125 0)"/>
     <use xlink:href="#DejaVuSans-4b" transform="translate(1161.15625 0)"/>
     <use xlink:href="#DejaVuSans-48" transform="translate(1224.53125 0)"/>
     <use xlink:href="#DejaVuSans-3" transform="translate(1286.0625 0)"/>
     <use xlink:href="#DejaVuSans-57" transform="translate(1317.84375 0)"/>
     <use xlink:href="#DejaVuSans-44" transform="translate(1357.046875 0)"/>
     <use xlink:href="#DejaVuSans-45" transform="translate(1418.328125 0)"/>
     <use xlink:href="#DejaVuSans-4f" transform="translate(1481.8125 0)"/>
     <use xlink:href="#DejaVuSans-48" transform="translate(1509.59375 0)"/>
     <use xlink:href="#DejaVuSans-3" transform="translate(1571.125 0)"/>
     <use xlink:href="#DejaVuSans-58" transform="translate(1602.90625 0)"/>
     <use xlink:href="#DejaVuSans-51" transform="translate(1666.28125 0)"/>
     <use xlink:href="#DejaVuSans-47" transform="translate(1729.65625 0)"/>
     <use xlink:href="#DejaVuSans-48" transform="translate(1793.140625 0)"/>
     <use xlink:href="#DejaVuSans-55" transform="translate(1854.671875 0)"/>
     <use xlink:href="#DejaVuSans-51" transform="translate(1894.03125 0)"/>
     <use xlink:href="#DejaVuSans-48" transform="translate(1957.40625 0)"/>
     <use xlink:href="#DejaVuSans-44" transform="translate(2018.9375 0)"/>
     <use xlink:href="#DejaVuSans-57" transform="translate(2080.21875 0)"/>
     <use xlink:href="#DejaVuSans-4b" transform="translate(2119.421875 0)"/>
     <use xlink:href="#DejaVuSans-3" transform="translate(2182.796875 0)"/>
     <use xlink:href="#DejaVuSans-4c" transform="translate(2214.578125 0)"/>
     <use xlink:href="#DejaVuSans-57" transform="translate(2242.359375 0)"/>
    </g>
   </g>
   <g id="legend_1">
    <g id="line2d_35">
     <path d="M 321.030469 48.960801 
L 331.030469 48.960801 
L 341.030469 48.960801 
" style="fill: none; stroke: #d2553b; stroke-opacity: 0.85; stroke-width: 1.3; stroke-linecap: square"/>
    </g>
    <g id="text_19">
     <!-- p99 -->
     <g transform="translate(349.030469 52.460801) scale(0.1 -0.1)">
      <defs>
       <path id="DejaVuSans-1c" d="M 703 97 
L 703 672 
Q 941 559 1184 500 
Q 1428 441 1663 441 
Q 2288 441 2617 861 
Q 2947 1281 2994 2138 
Q 2813 1869 2534 1725 
Q 2256 1581 1919 1581 
Q 1219 1581 811 2004 
Q 403 2428 403 3163 
Q 403 3881 828 4315 
Q 1253 4750 1959 4750 
Q 2769 4750 3195 4129 
Q 3622 3509 3622 2328 
Q 3622 1225 3098 567 
Q 2575 -91 1691 -91 
Q 1453 -91 1209 -44 
Q 966 3 703 97 
z
M 1959 2075 
Q 2384 2075 2632 2365 
Q 2881 2656 2881 3163 
Q 2881 3666 2632 3958 
Q 2384 4250 1959 4250 
Q 1534 4250 1286 3958 
Q 1038 3666 1038 3163 
Q 1038 2656 1286 2365 
Q 1534 2075 1959 2075 
z
" transform="scale(0.015625)"/>
      </defs>
      <use xlink:href="#DejaVuSans-53"/>
      <use xlink:href="#DejaVuSans-1c" transform="translate(63.484375 0)"/>
      <use xlink:href="#DejaVuSans-1c" transform="translate(127.109375 0)"/>
     </g>
    </g>
    <g id="line2d_36">
     <path d="M 321.030469 63.961582 
L 331.030469 63.961582 
L 341.030469 63.961582 
" style="fill: none; stroke: #e8a33d; stroke-width: 1.6; stroke-linecap: square"/>
    </g>
    <g id="text_20">
     <!-- p95 -->
     <g transform="translate(349.030469 67.461582) scale(0.1 -0.1)">
      <use xlink:href="#DejaVuSans-53"/>
      <use xlink:href="#DejaVuSans-1c" transform="translate(63.484375 0)"/>
      <use xlink:href="#DejaVuSans-18" transform="translate(127.109375 0)"/>
     </g>
    </g>
    <g id="line2d_37">
     <path d="M 388.103906 48.960801 
L 398.103906 48.960801 
L 408.103906 48.960801 
" style="fill: none; stroke: #3ecf8e; stroke-width: 2.4; stroke-linecap: square"/>
    </g>
    <g id="text_21">
     <!-- p50 (median) -->
     <g transform="translate(416.103906 52.460801) scale(0.1 -0.1)">
      <use xlink:href="#DejaVuSans-53"/>
      <use xlink:href="#DejaVuSans-18" transform="translate(63.484375 0)"/>
      <use xlink:href="#DejaVuSans-13" transform="translate(127.109375 0)"/>
      <use xlink:href="#DejaVuSans-3" transform="translate(190.734375 0)"/>
      <use xlink:href="#DejaVuSans-b" transform="translate(222.515625 0)"/>
      <use xlink:href="#DejaVuSans-50" transform="translate(261.53125 0)"/>
      <use xlink:href="#DejaVuSans-48" transform="translate(358.9375 0)"/>
      <use xlink:href="#DejaVuSans-47" transform="translate(420.46875 0)"/>
      <use xlink:href="#DejaVuSans-4c" transform="translate(483.953125 0)"/>
      <use xlink:href="#DejaVuSans-44" transform="translate(511.734375 0)"/>
      <use xlink:href="#DejaVuSans-51" transform="translate(573.015625 0)"/>
      <use xlink:href="#DejaVuSans-c" transform="translate(636.390625 0)"/>
     </g>
    </g>
    <g id="line2d_38">
     <path d="M 388.103906 63.961582 
L 398.103906 63.961582 
L 408.103906 63.961582 
" style="fill: none; stroke-dasharray: 4.81,2.08; stroke-dashoffset: 0; stroke: #9aa0a6; stroke-width: 1.3"/>
    </g>
    <g id="text_22">
     <!-- baseline median (76 ms) -->
     <g transform="translate(416.103906 67.461582) scale(0.1 -0.1)">
      <defs>
       <path id="DejaVuSans-1a" d="M 525 4666 
L 3525 4666 
L 3525 4397 
L 1831 0 
L 1172 0 
L 2766 4134 
L 525 4134 
L 525 4666 
z
" transform="scale(0.015625)"/>
      </defs>
      <use xlink:href="#DejaVuSans-45"/>
      <use xlink:href="#DejaVuSans-44" transform="translate(63.484375 0)"/>
      <use xlink:href="#DejaVuSans-56" transform="translate(124.765625 0)"/>
      <use xlink:href="#DejaVuSans-48" transform="translate(176.859375 0)"/>
      <use xlink:href="#DejaVuSans-4f" transform="translate(238.390625 0)"/>
      <use xlink:href="#DejaVuSans-4c" transform="translate(266.171875 0)"/>
      <use xlink:href="#DejaVuSans-51" transform="translate(293.953125 0)"/>
      <use xlink:href="#DejaVuSans-48" transform="translate(357.328125 0)"/>
      <use xlink:href="#DejaVuSans-3" transform="translate(418.859375 0)"/>
      <use xlink:href="#DejaVuSans-50" transform="translate(450.640625 0)"/>
      <use xlink:href="#DejaVuSans-48" transform="translate(548.046875 0)"/>
      <use xlink:href="#DejaVuSans-47" transform="translate(609.578125 0)"/>
      <use xlink:href="#DejaVuSans-4c" transform="translate(673.0625 0)"/>
      <use xlink:href="#DejaVuSans-44" transform="translate(700.84375 0)"/>
      <use xlink:href="#DejaVuSans-51" transform="translate(762.125 0)"/>
      <use xlink:href="#DejaVuSans-3" transform="translate(825.5 0)"/>
      <use xlink:href="#DejaVuSans-b" transform="translate(857.28125 0)"/>
      <use xlink:href="#DejaVuSans-1a" transform="translate(896.296875 0)"/>
      <use xlink:href="#DejaVuSans-19" transform="translate(959.921875 0)"/>
      <use xlink:href="#DejaVuSans-3" transform="translate(1023.546875 0)"/>
      <use xlink:href="#DejaVuSans-50" transform="translate(1055.328125 0)"/>
      <use xlink:href="#DejaVuSans-56" transform="translate(1152.734375 0)"/>
      <use xlink:href="#DejaVuSans-c" transform="translate(1204.828125 0)"/>
     </g>
    </g>
   </g>
  </g>
 </g>
 <defs>
  <clipPath id="p75b426e02f">
   <rect x="47.288281" y="35.862363" width="502.2" height="277.2"/>
  </clipPath>
 </defs>
</svg>
