<?xml version="1.0" encoding="utf-8" standalone="no"?>
<!DOCTYPE svg PUBLIC "-//W3C//DTD SVG 1.1//EN"
  "http://www.w3.org/Graphics/SVG/1.1/DTD/svg11.dtd">
<svg xmlns:xlink="http://www.w3.org/1999/xlink" width="575.775781pt" height="351.263145pt" viewBox="0 0 575.775781 351.263145" xmlns="http://www.w3.org/2000/svg" version="1.1">
 <metadata>
  <rdf:RDF xmlns:dc="http://purl.org/dc/elements/1.1/" xmlns:cc="http://creativecommons.org/ns#" xmlns:rdf="http://www.w3.org/1999/02/22-rdf-syntax-ns#">
   <cc:Work>
    <dc:type rdf:resource="http://purl.org/dc/dcmitype/StillImage"/>
    <dc:date>2026-06-22T14:45:40.488130</dc:date>
    <dc:format>image/svg+xml</dc:format>
    <dc:creator>
     <cc:Agent>
      <dc:title>Matplotlib v3.11.0, https://matplotlib.org/</dc:title>
     </cc:Agent>
    </dc:creator>
   </cc:Work>
  </rdf:RDF>
 </metadata>
 <defs>
  <style type="text/css">*{stroke-linejoin: round; stroke-linecap: butt}</style>
 </defs>
 <g id="figure_1">
  <g id="patch_1">
   <path d="M 0 351.263145 
L 575.775781 351.263145 
L 575.775781 0 
L 0 0 
L 0 351.263145 
z
" style="fill: none"/>
  </g>
  <g id="axes_1">
   <g id="patch_2">
    <path d="M 66.375781 313.062363 
L 568.575781 313.062363 
L 568.575781 35.862363 
L 66.375781 35.862363 
z
" style="fill: #ffffff"/>
   </g>
   <g id="matplotlib.axis_1">
    <g id="xtick_1">
     <g id="line2d_1">
      <path d="M 66.375781 313.062363 
L 66.375781 35.862363 
" clip-path="url(#p97ffdb8da4)" style="fill: none; stroke: #b0b0b0; stroke-opacity: 0.25; stroke-width: 0.8; stroke-linecap: square"/>
     </g>
     <g id="line2d_2">
      <defs>
       <path id="m81a67db05b" d="M 0 0 
L 0 3.5 
" style="stroke: #000000; stroke-width: 0.8"/>
      </defs>
      <g>
       <use xlink:href="#m81a67db05b" x="66.375781" y="313.062363" style="stroke: #000000; stroke-width: 0.8"/>
      </g>
     </g>
     <g id="text_1">
      <!-- 0 -->
      <g transform="translate(63.194531 327.66002) scale(0.1 -0.1)">
       <defs>
        <path id="DejaVuSans-13" d="M 2034 4250 
Q 1547 4250 1301 3770 
Q 1056 3291 1056 2328 
Q 1056 1369 1301 889 
Q 1547 409 2034 409 
Q 2525 409 2770 889 
Q 3016 1369 3016 2328 
Q 3016 3291 2770 3770 
Q 2525 4250 2034 4250 
z
M 2034 4750 
Q 2819 4750 3233 4129 
Q 3647 3509 3647 2328 
Q 3647 1150 3233 529 
Q 2819 -91 2034 -91 
Q 1250 -91 836 529 
Q 422 1150 422 2328 
Q 422 3509 836 4129 
Q 1250 4750 2034 4750 
z
" transform="scale(0.015625)"/>
       </defs>
       <use xlink:href="#DejaVuSans-13"/>
      </g>
     </g>
    </g>
    <g id="xtick_2">
     <g id="line2d_3">
      <path d="M 132.074368 313.062363 
L 132.074368 35.862363 
" clip-path="url(#p97ffdb8da4)" style="fill: none; stroke: #b0b0b0; stroke-opacity: 0.25; stroke-width: 0.8; stroke-linecap: square"/>
     </g>
     <g id="line2d_4">
      <g>
       <use xlink:href="#m81a67db05b" x="132.074368" y="313.062363" style="stroke: #000000; stroke-width: 0.8"/>
      </g>
     </g>
     <g id="text_2">
      <!-- 5 -->
      <g transform="translate(128.893118 327.66002) scale(0.1 -0.1)">
       <defs>
        <path id="DejaVuSans-18" d="M 691 4666 
L 3169 4666 
L 3169 4134 
L 1269 4134 
L 1269 2991 
Q 1406 3038 1543 3061 
Q 1681 3084 1819 3084 
Q 2600 3084 3056 2656 
Q 3513 2228 3513 1497 
Q 3513 744 3044 326 
Q 2575 -91 1722 -91 
Q 1428 -91 1123 -41 
Q 819 9 494 109 
L 494 744 
Q 775 591 1075 516 
Q 1375 441 1709 441 
Q 2250 441 2565 725 
Q 2881 1009 2881 1497 
Q 2881 1984 2565 2268 
Q 2250 2553 1709 2553 
Q 1456 2553 1204 2497 
Q 953 2441 691 2322 
L 691 4666 
z
" transform="scale(0.015625)"/>
       </defs>
       <use xlink:href="#DejaVuSans-18"/>
      </g>
     </g>
    </g>
    <g id="xtick_3">
     <g id="line2d_5">
      <path d="M 197.772956 313.062363 
L 197.772956 35.862363 
" clip-path="url(#p97ffdb8da4)" style="fill: none; stroke: #b0b0b0; stroke-opacity: 0.25; stroke-width: 0.8; stroke-linecap: square"/>
     </g>
     <g id="line2d_6">
      <g>
       <use xlink:href="#m81a67db05b" x="197.772956" y="313.062363" style="stroke: #000000; stroke-width: 0.8"/>
      </g>
     </g>
     <g id="text_3">
      <!-- 10 -->
      <g transform="translate(191.410456 327.66002) scale(0.1 -0.1)">
       <defs>
        <path id="DejaVuSans-14" d="M 794 531 
L 1825 531 
L 1825 4091 
L 703 3866 
L 703 4441 
L 1819 4666 
L 2450 4666 
L 2450 531 
L 3481 531 
L 3481 0 
L 794 0 
L 794 531 
z
" transform="scale(0.015625)"/>
       </defs>
       <use xlink:href="#DejaVuSans-14"/>
       <use xlink:href="#DejaVuSans-13" transform="translate(63.625 0)"/>
      </g>
     </g>
    </g>
    <g id="xtick_4">
     <g id="line2d_7">
      <path d="M 263.471543 313.062363 
L 263.471543 35.862363 
" clip-path="url(#p97ffdb8da4)" style="fill: none; stroke: #b0b0b0; stroke-opacity: 0.25; stroke-width: 0.8; stroke-linecap: square"/>
     </g>
     <g id="line2d_8">
      <g>
       <use xlink:href="#m81a67db05b" x="263.471543" y="313.062363" style="stroke: #000000; stroke-width: 0.8"/>
      </g>
     </g>
     <g id="text_4">
      <!-- 15 -->
      <g transform="translate(257.109043 327.66002) scale(0.1 -0.1)">
       <use xlink:href="#DejaVuSans-14"/>
       <use xlink:href="#DejaVuSans-18" transform="translate(63.625 0)"/>
      </g>
     </g>
    </g>
    <g id="xtick_5">
     <g id="line2d_9">
      <path d="M 329.17013 313.062363 
L 329.17013 35.862363 
" clip-path="url(#p97ffdb8da4)" style="fill: none; stroke: #b0b0b0; stroke-opacity: 0.25; stroke-width: 0.8; stroke-linecap: square"/>
     </g>
     <g id="line2d_10">
      <g>
       <use xlink:href="#m81a67db05b" x="329.17013" y="313.062363" style="stroke: #000000; stroke-width: 0.8"/>
      </g>
     </g>
     <g id="text_5">
      <!-- 20 -->
      <g transform="translate(322.80763 327.66002) scale(0.1 -0.1)">
       <defs>
        <path id="DejaVuSans-15" d="M 1228 531 
L 3431 531 
L 3431 0 
L 469 0 
L 469 531 
Q 828 903 1448 1529 
Q 2069 2156 2228 2338 
Q 2531 2678 2651 2914 
Q 2772 3150 2772 3378 
Q 2772 3750 2511 3984 
Q 2250 4219 1831 4219 
Q 1534 4219 1204 4116 
Q 875 4013 500 3803 
L 500 4441 
Q 881 4594 1212 4672 
Q 1544 4750 1819 4750 
Q 2544 4750 2975 4387 
Q 3406 4025 3406 3419 
Q 3406 3131 3298 2873 
Q 3191 2616 2906 2266 
Q 2828 2175 2409 1742 
Q 1991 1309 1228 531 
z
" transform="scale(0.015625)"/>
       </defs>
       <use xlink:href="#DejaVuSans-15"/>
       <use xlink:href="#DejaVuSans-13" transform="translate(63.625 0)"/>
      </g>
     </g>
    </g>
    <g id="xtick_6">
     <g id="line2d_11">
      <path d="M 394.868717 313.062363 
L 394.868717 35.862363 
" clip-path="url(#p97ffdb8da4)" style="fill: none; stroke: #b0b0b0; stroke-opacity: 0.25; stroke-width: 0.8; stroke-linecap: square"/>
     </g>
     <g id="line2d_12">
      <g>
       <use xlink:href="#m81a67db05b" x="394.868717" y="313.062363" style="stroke: #000000; stroke-width: 0.8"/>
      </g>
     </g>
     <g id="text_6">
      <!-- 25 -->
      <g transform="translate(388.506217 327.66002) scale(0.1 -0.1)">
       <use xlink:href="#DejaVuSans-15"/>
       <use xlink:href="#DejaVuSans-18" transform="translate(63.625 0)"/>
      </g>
     </g>
    </g>
    <g id="xtick_7">
     <g id="line2d_13">
      <path d="M 460.567304 313.062363 
L 460.567304 35.862363 
" clip-path="url(#p97ffdb8da4)" style="fill: none; stroke: #b0b0b0; stroke-opacity: 0.25; stroke-width: 0.8; stroke-linecap: square"/>
     </g>
     <g id="line2d_14">
      <g>
       <use xlink:href="#m81a67db05b" x="460.567304" y="313.062363" style="stroke: #000000; stroke-width: 0.8"/>
      </g>
     </g>
     <g id="text_7">
      <!-- 30 -->
      <g transform="translate(454.204804 327.66002) scale(0.1 -0.1)">
       <defs>
        <path id="DejaVuSans-16" d="M 2597 2516 
Q 3050 2419 3304 2112 
Q 3559 1806 3559 1356 
Q 3559 666 3084 287 
Q 2609 -91 1734 -91 
Q 1441 -91 1130 -33 
Q 819 25 488 141 
L 488 750 
Q 750 597 1062 519 
Q 1375 441 1716 441 
Q 2309 441 2620 675 
Q 2931 909 2931 1356 
Q 2931 1769 2642 2001 
Q 2353 2234 1838 2234 
L 1294 2234 
L 1294 2753 
L 1863 2753 
Q 2328 2753 2575 2939 
Q 2822 3125 2822 3475 
Q 2822 3834 2567 4026 
Q 2313 4219 1838 4219 
Q 1578 4219 1281 4162 
Q 984 4106 628 3988 
L 628 4550 
Q 988 4650 1302 4700 
Q 1616 4750 1894 4750 
Q 2613 4750 3031 4423 
Q 3450 4097 3450 3541 
Q 3450 3153 3228 2886 
Q 3006 2619 2597 2516 
z
" transform="scale(0.015625)"/>
       </defs>
       <use xlink:href="#DejaVuSans-16"/>
       <use xlink:href="#DejaVuSans-13" transform="translate(63.625 0)"/>
      </g>
     </g>
    </g>
    <g id="xtick_8">
     <g id="line2d_15">
      <path d="M 526.265891 313.062363 
L 526.265891 35.862363 
" clip-path="url(#p97ffdb8da4)" style="fill: none; stroke: #b0b0b0; stroke-opacity: 0.25; stroke-width: 0.8; stroke-linecap: square"/>
     </g>
     <g id="line2d_16">
      <g>
       <use xlink:href="#m81a67db05b" x="526.265891" y="313.062363" style="stroke: #000000; stroke-width: 0.8"/>
      </g>
     </g>
     <g id="text_8">
      <!-- 35 -->
      <g transform="translate(519.903391 327.66002) scale(0.1 -0.1)">
       <use xlink:href="#DejaVuSans-16"/>
       <use xlink:href="#DejaVuSans-18" transform="translate(63.625 0)"/>
      </g>
     </g>
    </g>
    <g id="text_9">
     <!-- elapsed (minutes) -->
     <g transform="translate(272.1875 341.660801) scale(0.1 -0.1)">
      <defs>
       <path id="DejaVuSans-48" d="M 3597 1894 
L 3597 1613 
L 953 1613 
Q 991 1019 1311 708 
Q 1631 397 2203 397 
Q 2534 397 2845 478 
Q 3156 559 3463 722 
L 3463 178 
Q 3153 47 2828 -22 
Q 2503 -91 2169 -91 
Q 1331 -91 842 396 
Q 353 884 353 1716 
Q 353 2575 817 3079 
Q 1281 3584 2069 3584 
Q 2775 3584 3186 3129 
Q 3597 2675 3597 1894 
z
M 3022 2063 
Q 3016 2534 2758 2815 
Q 2500 3097 2075 3097 
Q 1594 3097 1305 2825 
Q 1016 2553 972 2059 
L 3022 2063 
z
" transform="scale(0.015625)"/>
       <path id="DejaVuSans-4f" d="M 603 4863 
L 1178 4863 
L 1178 0 
L 603 0 
L 603 4863 
z
" transform="scale(0.015625)"/>
       <path id="DejaVuSans-44" d="M 2194 1759 
Q 1497 1759 1228 1600 
Q 959 1441 959 1056 
Q 959 750 1161 570 
Q 1363 391 1709 391 
Q 2188 391 2477 730 
Q 2766 1069 2766 1631 
L 2766 1759 
L 2194 1759 
z
M 3341 1997 
L 3341 0 
L 2766 0 
L 2766 531 
Q 2569 213 2275 61 
Q 1981 -91 1556 -91 
Q 1019 -91 701 211 
Q 384 513 384 1019 
Q 384 1609 779 1909 
Q 1175 2209 1959 2209 
L 2766 2209 
L 2766 2266 
Q 2766 2663 2505 2880 
Q 2244 3097 1772 3097 
Q 1472 3097 1187 3025 
Q 903 2953 641 2809 
L 641 3341 
Q 956 3463 1253 3523 
Q 1550 3584 1831 3584 
Q 2591 3584 2966 3190 
Q 3341 2797 3341 1997 
z
" transform="scale(0.015625)"/>
       <path id="DejaVuSans-53" d="M 1159 525 
L 1159 -1331 
L 581 -1331 
L 581 3500 
L 1159 3500 
L 1159 2969 
Q 1341 3281 1617 3432 
Q 1894 3584 2278 3584 
Q 2916 3584 3314 3078 
Q 3713 2572 3713 1747 
Q 3713 922 3314 415 
Q 2916 -91 2278 -91 
Q 1894 -91 1617 61 
Q 1341 213 1159 525 
z
M 3116 1747 
Q 3116 2381 2855 2742 
Q 2594 3103 2138 3103 
Q 1681 3103 1420 2742 
Q 1159 2381 1159 1747 
Q 1159 1113 1420 752 
Q 1681 391 2138 391 
Q 2594 391 2855 752 
Q 3116 1113 3116 1747 
z
" transform="scale(0.015625)"/>
       <path id="DejaVuSans-56" d="M 2834 3397 
L 2834 2853 
Q 2591 2978 2328 3040 
Q 2066 3103 1784 3103 
Q 1356 3103 1142 2972 
Q 928 2841 928 2578 
Q 928 2378 1081 2264 
Q 1234 2150 1697 2047 
L 1894 2003 
Q 2506 1872 2764 1633 
Q 3022 1394 3022 966 
Q 3022 478 2636 193 
Q 2250 -91 1575 -91 
Q 1294 -91 989 -36 
Q 684 19 347 128 
L 347 722 
Q 666 556 975 473 
Q 1284 391 1588 391 
Q 1994 391 2212 530 
Q 2431 669 2431 922 
Q 2431 1156 2273 1281 
Q 2116 1406 1581 1522 
L 1381 1569 
Q 847 1681 609 1914 
Q 372 2147 372 2553 
Q 372 3047 722 3315 
Q 1072 3584 1716 3584 
Q 2034 3584 2315 3537 
Q 2597 3491 2834 3397 
z
" transform="scale(0.015625)"/>
       <path id="DejaVuSans-47" d="M 2906 2969 
L 2906 4863 
L 3481 4863 
L 3481 0 
L 2906 0 
L 2906 525 
Q 2725 213 2448 61 
Q 2172 -91 1784 -91 
Q 1150 -91 751 415 
Q 353 922 353 1747 
Q 353 2572 751 3078 
Q 1150 3584 1784 3584 
Q 2172 3584 2448 3432 
Q 2725 3281 2906 2969 
z
M 947 1747 
Q 947 1113 1208 752 
Q 1469 391 1925 391 
Q 2381 391 2643 752 
Q 2906 1113 2906 1747 
Q 2906 2381 2643 2742 
Q 2381 3103 1925 3103 
Q 1469 3103 1208 2742 
Q 947 2381 947 1747 
z
" transform="scale(0.015625)"/>
       <path id="DejaVuSans-3" transform="scale(0.015625)"/>
       <path id="DejaVuSans-b" d="M 1984 4856 
Q 1566 4138 1362 3434 
Q 1159 2731 1159 2009 
Q 1159 1288 1364 580 
Q 1569 -128 1984 -844 
L 1484 -844 
Q 1016 -109 783 600 
Q 550 1309 550 2009 
Q 550 2706 781 3412 
Q 1013 4119 1484 4856 
L 1984 4856 
z
" transform="scale(0.015625)"/>
       <path id="DejaVuSans-50" d="M 3328 2828 
Q 3544 3216 3844 3400 
Q 4144 3584 4550 3584 
Q 5097 3584 5394 3201 
Q 5691 2819 5691 2113 
L 5691 0 
L 5113 0 
L 5113 2094 
Q 5113 2597 4934 2840 
Q 4756 3084 4391 3084 
Q 3944 3084 3684 2787 
Q 3425 2491 3425 1978 
L 3425 0 
L 2847 0 
L 2847 2094 
Q 2847 2600 2669 2842 
Q 2491 3084 2119 3084 
Q 1678 3084 1418 2786 
Q 1159 2488 1159 1978 
L 1159 0 
L 581 0 
L 581 3500 
L 1159 3500 
L 1159 2956 
Q 1356 3278 1631 3431 
Q 1906 3584 2284 3584 
Q 2666 3584 2933 3390 
Q 3200 3197 3328 2828 
z
" transform="scale(0.015625)"/>
       <path id="DejaVuSans-4c" d="M 603 3500 
L 1178 3500 
L 1178 0 
L 603 0 
L 603 3500 
z
M 603 4863 
L 1178 4863 
L 1178 4134 
L 603 4134 
L 603 4863 
z
" transform="scale(0.015625)"/>
       <path id="DejaVuSans-51" d="M 3513 2113 
L 3513 0 
L 2938 0 
L 2938 2094 
Q 2938 2591 2744 2837 
Q 2550 3084 2163 3084 
Q 1697 3084 1428 2787 
Q 1159 2491 1159 1978 
L 1159 0 
L 581 0 
L 581 3500 
L 1159 3500 
L 1159 2956 
Q 1366 3272 1645 3428 
Q 1925 3584 2291 3584 
Q 2894 3584 3203 3211 
Q 3513 2838 3513 2113 
z
" transform="scale(0.015625)"/>
       <path id="DejaVuSans-58" d="M 544 1381 
L 544 3500 
L 1119 3500 
L 1119 1403 
Q 1119 906 1312 657 
Q 1506 409 1894 409 
Q 2359 409 2629 706 
Q 2900 1003 2900 1516 
L 2900 3500 
L 3475 3500 
L 3475 0 
L 2900 0 
L 2900 538 
Q 2691 219 2414 64 
Q 2138 -91 1772 -91 
Q 1169 -91 856 284 
Q 544 659 544 1381 
z
M 1991 3584 
L 1991 3584 
z
" transform="scale(0.015625)"/>
       <path id="DejaVuSans-57" d="M 1172 4494 
L 1172 3500 
L 2356 3500 
L 2356 3053 
L 1172 3053 
L 1172 1153 
Q 1172 725 1289 603 
Q 1406 481 1766 481 
L 2356 481 
L 2356 0 
L 1766 0 
Q 1100 0 847 248 
Q 594 497 594 1153 
L 594 3053 
L 172 3053 
L 172 3500 
L 594 3500 
L 594 4494 
L 1172 4494 
z
" transform="scale(0.015625)"/>
       <path id="DejaVuSans-c" d="M 513 4856 
L 1013 4856 
Q 1481 4119 1714 3412 
Q 1947 2706 1947 2009 
Q 1947 1309 1714 600 
Q 1481 -109 1013 -844 
L 513 -844 
Q 928 -128 1133 580 
Q 1338 1288 1338 2009 
Q 1338 2731 1133 3434 
Q 928 4138 513 4856 
z
" transform="scale(0.015625)"/>
      </defs>
      <use xlink:href="#DejaVuSans-48"/>
      <use xlink:href="#DejaVuSans-4f" transform="translate(61.53125 0)"/>
      <use xlink:href="#DejaVuSans-44" transform="translate(89.3125 0)"/>
      <use xlink:href="#DejaVuSans-53" transform="translate(150.59375 0)"/>
      <use xlink:href="#DejaVuSans-56" transform="translate(214.078125 0)"/>
      <use xlink:href="#DejaVuSans-48" transform="translate(266.171875 0)"/>
      <use xlink:href="#DejaVuSans-47" transform="translate(327.703125 0)"/>
      <use xlink:href="#DejaVuSans-3" transform="translate(391.1875 0)"/>
      <use xlink:href="#DejaVuSans-b" transform="translate(422.96875 0)"/>
      <use xlink:href="#DejaVuSans-50" transform="translate(461.984375 0)"/>
      <use xlink:href="#DejaVuSans-4c" transform="translate(559.390625 0)"/>
      <use xlink:href="#DejaVuSans-51" transform="translate(587.171875 0)"/>
      <use xlink:href="#DejaVuSans-58" transform="translate(650.546875 0)"/>
      <use xlink:href="#DejaVuSans-57" transform="translate(713.921875 0)"/>
      <use xlink:href="#DejaVuSans-48" transform="translate(753.125 0)"/>
      <use xlink:href="#DejaVuSans-56" transform="translate(814.65625 0)"/>
      <use xlink:href="#DejaVuSans-c" transform="translate(866.75 0)"/>
     </g>
    </g>
   </g>
   <g id="matplotlib.axis_2">
    <g id="ytick_1">
     <g id="line2d_17">
      <path d="M 66.375781 313.062363 
L 568.575781 313.062363 
" clip-path="url(#p97ffdb8da4)" style="fill: none; stroke: #b0b0b0; stroke-opacity: 0.25; stroke-width: 0.8; stroke-linecap: square"/>
     </g>
     <g id="line2d_18">
      <defs>
       <path id="m55c3ddbd25" d="M 0 0 
L -3.5 0 
" style="stroke: #000000; stroke-width: 0.8"/>
      </defs>
      <g>
       <use xlink:href="#m55c3ddbd25" x="66.375781" y="313.062363" style="stroke: #000000; stroke-width: 0.8"/>
      </g>
     </g>
     <g id="text_10">
      <!-- 0 -->
      <g transform="translate(53.013281 316.861191) scale(0.1 -0.1)">
       <use xlink:href="#DejaVuSans-13"/>
      </g>
     </g>
    </g>
    <g id="ytick_2">
     <g id="line2d_19">
      <path d="M 66.375781 279.462363 
L 568.575781 279.462363 
" clip-path="url(#p97ffdb8da4)" style="fill: none; stroke: #b0b0b0; stroke-opacity: 0.25; stroke-width: 0.8; stroke-linecap: square"/>
     </g>
     <g id="line2d_20">
      <g>
       <use xlink:href="#m55c3ddbd25" x="66.375781" y="279.462363" style="stroke: #000000; stroke-width: 0.8"/>
      </g>
     </g>
     <g id="text_11">
      <!-- 20000 -->
      <g transform="translate(27.563281 283.261191) scale(0.1 -0.1)">
       <use xlink:href="#DejaVuSans-15"/>
       <use xlink:href="#DejaVuSans-13" transform="translate(63.625 0)"/>
       <use xlink:href="#DejaVuSans-13" transform="translate(127.25 0)"/>
       <use xlink:href="#DejaVuSans-13" transform="translate(190.875 0)"/>
       <use xlink:href="#DejaVuSans-13" transform="translate(254.5 0)"/>
      </g>
     </g>
    </g>
    <g id="ytick_3">
     <g id="line2d_21">
      <path d="M 66.375781 245.862363 
L 568.575781 245.862363 
" clip-path="url(#p97ffdb8da4)" style="fill: none; stroke: #b0b0b0; stroke-opacity: 0.25; stroke-width: 0.8; stroke-linecap: square"/>
     </g>
     <g id="line2d_22">
      <g>
       <use xlink:href="#m55c3ddbd25" x="66.375781" y="245.862363" style="stroke: #000000; stroke-width: 0.8"/>
      </g>
     </g>
     <g id="text_12">
      <!-- 40000 -->
      <g transform="translate(27.563281 249.661191) scale(0.1 -0.1)">
       <defs>
        <path id="DejaVuSans-17" d="M 2419 4116 
L 825 1625 
L 2419 1625 
L 2419 4116 
z
M 2253 4666 
L 3047 4666 
L 3047 1625 
L 3713 1625 
L 3713 1100 
L 3047 1100 
L 3047 0 
L 2419 0 
L 2419 1100 
L 313 1100 
L 313 1709 
L 2253 4666 
z
" transform="scale(0.015625)"/>
       </defs>
       <use xlink:href="#DejaVuSans-17"/>
       <use xlink:href="#DejaVuSans-13" transform="translate(63.625 0)"/>
       <use xlink:href="#DejaVuSans-13" transform="translate(127.25 0)"/>
       <use xlink:href="#DejaVuSans-13" transform="translate(190.875 0)"/>
       <use xlink:href="#DejaVuSans-13" transform="translate(254.5 0)"/>
      </g>
     </g>
    </g>
    <g id="ytick_4">
     <g id="line2d_23">
      <path d="M 66.375781 212.262363 
L 568.575781 212.262363 
" clip-path="url(#p97ffdb8da4)" style="fill: none; stroke: #b0b0b0; stroke-opacity: 0.25; stroke-width: 0.8; stroke-linecap: square"/>
     </g>
     <g id="line2d_24">
      <g>
       <use xlink:href="#m55c3ddbd25" x="66.375781" y="212.262363" style="stroke: #000000; stroke-width: 0.8"/>
      </g>
     </g>
     <g id="text_13">
      <!-- 60000 -->
      <g transform="translate(27.563281 216.061191) scale(0.1 -0.1)">
       <defs>
        <path id="DejaVuSans-19" d="M 2113 2584 
Q 1688 2584 1439 2293 
Q 1191 2003 1191 1497 
Q 1191 994 1439 701 
Q 1688 409 2113 409 
Q 2538 409 2786 701 
Q 3034 994 3034 1497 
Q 3034 2003 2786 2293 
Q 2538 2584 2113 2584 
z
M 3366 4563 
L 3366 3988 
Q 3128 4100 2886 4159 
Q 2644 4219 2406 4219 
Q 1781 4219 1451 3797 
Q 1122 3375 1075 2522 
Q 1259 2794 1537 2939 
Q 1816 3084 2150 3084 
Q 2853 3084 3261 2657 
Q 3669 2231 3669 1497 
Q 3669 778 3244 343 
Q 2819 -91 2113 -91 
Q 1303 -91 875 529 
Q 447 1150 447 2328 
Q 447 3434 972 4092 
Q 1497 4750 2381 4750 
Q 2619 4750 2861 4703 
Q 3103 4656 3366 4563 
z
" transform="scale(0.015625)"/>
       </defs>
       <use xlink:href="#DejaVuSans-19"/>
       <use xlink:href="#DejaVuSans-13" transform="translate(63.625 0)"/>
       <use xlink:href="#DejaVuSans-13" transform="translate(127.25 0)"/>
       <use xlink:href="#DejaVuSans-13" transform="translate(190.875 0)"/>
       <use xlink:href="#DejaVuSans-13" transform="translate(254.5 0)"/>
      </g>
     </g>
    </g>
    <g id="ytick_5">
     <g id="line2d_25">
      <path d="M 66.375781 178.662363 
L 568.575781 178.662363 
" clip-path="url(#p97ffdb8da4)" style="fill: none; stroke: #b0b0b0; stroke-opacity: 0.25; stroke-width: 0.8; stroke-linecap: square"/>
     </g>
     <g id="line2d_26">
      <g>
       <use xlink:href="#m55c3ddbd25" x="66.375781" y="178.662363" style="stroke: #000000; stroke-width: 0.8"/>
      </g>
     </g>
     <g id="text_14">
      <!-- 80000 -->
      <g transform="translate(27.563281 182.461191) scale(0.1 -0.1)">
       <defs>
        <path id="DejaVuSans-1b" d="M 2034 2216 
Q 1584 2216 1326 1975 
Q 1069 1734 1069 1313 
Q 1069 891 1326 650 
Q 1584 409 2034 409 
Q 2484 409 2743 651 
Q 3003 894 3003 1313 
Q 3003 1734 2745 1975 
Q 2488 2216 2034 2216 
z
M 1403 2484 
Q 997 2584 770 2862 
Q 544 3141 544 3541 
Q 544 4100 942 4425 
Q 1341 4750 2034 4750 
Q 2731 4750 3128 4425 
Q 3525 4100 3525 3541 
Q 3525 3141 3298 2862 
Q 3072 2584 2669 2484 
Q 3125 2378 3379 2068 
Q 3634 1759 3634 1313 
Q 3634 634 3220 271 
Q 2806 -91 2034 -91 
Q 1263 -91 848 271 
Q 434 634 434 1313 
Q 434 1759 690 2068 
Q 947 2378 1403 2484 
z
M 1172 3481 
Q 1172 3119 1398 2916 
Q 1625 2713 2034 2713 
Q 2441 2713 2670 2916 
Q 2900 3119 2900 3481 
Q 2900 3844 2670 4047 
Q 2441 4250 2034 4250 
Q 1625 4250 1398 4047 
Q 1172 3844 1172 3481 
z
" transform="scale(0.015625)"/>
       </defs>
       <use xlink:href="#DejaVuSans-1b"/>
       <use xlink:href="#DejaVuSans-13" transform="translate(63.625 0)"/>
       <use xlink:href="#DejaVuSans-13" transform="translate(127.25 0)"/>
       <use xlink:href="#DejaVuSans-13" transform="translate(190.875 0)"/>
       <use xlink:href="#DejaVuSans-13" transform="translate(254.5 0)"/>
      </g>
     </g>
    </g>
    <g id="ytick_6">
     <g id="line2d_27">
      <path d="M 66.375781 145.062363 
L 568.575781 145.062363 
" clip-path="url(#p97ffdb8da4)" style="fill: none; stroke: #b0b0b0; stroke-opacity: 0.25; stroke-width: 0.8; stroke-linecap: square"/>
     </g>
     <g id="line2d_28">
      <g>
       <use xlink:href="#m55c3ddbd25" x="66.375781" y="145.062363" style="stroke: #000000; stroke-width: 0.8"/>
      </g>
     </g>
     <g id="text_15">
      <!-- 100000 -->
      <g transform="translate(21.200781 148.861191) scale(0.1 -0.1)">
       <use xlink:href="#DejaVuSans-14"/>
       <use xlink:href="#DejaVuSans-13" transform="translate(63.625 0)"/>
       <use xlink:href="#DejaVuSans-13" transform="translate(127.25 0)"/>
       <use xlink:href="#DejaVuSans-13" transform="translate(190.875 0)"/>
       <use xlink:href="#DejaVuSans-13" transform="translate(254.5 0)"/>
       <use xlink:href="#DejaVuSans-13" transform="translate(318.125 0)"/>
      </g>
     </g>
    </g>
    <g id="ytick_7">
     <g id="line2d_29">
      <path d="M 66.375781 111.462363 
L 568.575781 111.462363 
" clip-path="url(#p97ffdb8da4)" style="fill: none; stroke: #b0b0b0; stroke-opacity: 0.25; stroke-width: 0.8; stroke-linecap: square"/>
     </g>
     <g id="line2d_30">
      <g>
       <use xlink:href="#m55c3ddbd25" x="66.375781" y="111.462363" style="stroke: #000000; stroke-width: 0.8"/>
      </g>
     </g>
     <g id="text_16">
      <!-- 120000 -->
      <g transform="translate(21.200781 115.261191) scale(0.1 -0.1)">
       <use xlink:href="#DejaVuSans-14"/>
       <use xlink:href="#DejaVuSans-15" transform="translate(63.625 0)"/>
       <use xlink:href="#DejaVuSans-13" transform="translate(127.25 0)"/>
       <use xlink:href="#DejaVuSans-13" transform="translate(190.875 0)"/>
       <use xlink:href="#DejaVuSans-13" transform="translate(254.5 0)"/>
       <use xlink:href="#DejaVuSans-13" transform="translate(318.125 0)"/>
      </g>
     </g>
    </g>
    <g id="ytick_8">
     <g id="line2d_31">
      <path d="M 66.375781 77.862363 
L 568.575781 77.862363 
" clip-path="url(#p97ffdb8da4)" style="fill: none; stroke: #b0b0b0; stroke-opacity: 0.25; stroke-width: 0.8; stroke-linecap: square"/>
     </g>
     <g id="line2d_32">
      <g>
       <use xlink:href="#m55c3ddbd25" x="66.375781" y="77.862363" style="stroke: #000000; stroke-width: 0.8"/>
      </g>
     </g>
     <g id="text_17">
      <!-- 140000 -->
      <g transform="translate(21.200781 81.661191) scale(0.1 -0.1)">
       <use xlink:href="#DejaVuSans-14"/>
       <use xlink:href="#DejaVuSans-17" transform="translate(63.625 0)"/>
       <use xlink:href="#DejaVuSans-13" transform="translate(127.25 0)"/>
       <use xlink:href="#DejaVuSans-13" transform="translate(190.875 0)"/>
       <use xlink:href="#DejaVuSans-13" transform="translate(254.5 0)"/>
       <use xlink:href="#DejaVuSans-13" transform="translate(318.125 0)"/>
      </g>
     </g>
    </g>
    <g id="ytick_9">
     <g id="line2d_33">
      <path d="M 66.375781 44.262363 
L 568.575781 44.262363 
" clip-path="url(#p97ffdb8da4)" style="fill: none; stroke: #b0b0b0; stroke-opacity: 0.25; stroke-width: 0.8; stroke-linecap: square"/>
     </g>
     <g id="line2d_34">
      <g>
       <use xlink:href="#m55c3ddbd25" x="66.375781" y="44.262363" style="stroke: #000000; stroke-width: 0.8"/>
      </g>
     </g>
     <g id="text_18">
      <!-- 160000 -->
      <g transform="translate(21.200781 48.061191) scale(0.1 -0.1)">
       <use xlink:href="#DejaVuSans-14"/>
       <use xlink:href="#DejaVuSans-19" transform="translate(63.625 0)"/>
       <use xlink:href="#DejaVuSans-13" transform="translate(127.25 0)"/>
       <use xlink:href="#DejaVuSans-13" transform="translate(190.875 0)"/>
       <use xlink:href="#DejaVuSans-13" transform="translate(254.5 0)"/>
       <use xlink:href="#DejaVuSans-13" transform="translate(318.125 0)"/>
      </g>
     </g>
    </g>
    <g id="text_19">
     <!-- per-tick drain budget (rows) -->
     <g transform="translate(14.798438 244.193613) rotate(-90) scale(0.1 -0.1)">
      <defs>
       <path id="DejaVuSans-55" d="M 2631 2963 
Q 2534 3019 2420 3045 
Q 2306 3072 2169 3072 
Q 1681 3072 1420 2755 
Q 1159 2438 1159 1844 
L 1159 0 
L 581 0 
L 581 3500 
L 1159 3500 
L 1159 2956 
Q 1341 3275 1631 3429 
Q 1922 3584 2338 3584 
Q 2397 3584 2469 3576 
Q 2541 3569 2628 3553 
L 2631 2963 
z
" transform="scale(0.015625)"/>
       <path id="DejaVuSans-10" d="M 313 2009 
L 1997 2009 
L 1997 1497 
L 313 1497 
L 313 2009 
z
" transform="scale(0.015625)"/>
       <path id="DejaVuSans-46" d="M 3122 3366 
L 3122 2828 
Q 2878 2963 2633 3030 
Q 2388 3097 2138 3097 
Q 1578 3097 1268 2742 
Q 959 2388 959 1747 
Q 959 1106 1268 751 
Q 1578 397 2138 397 
Q 2388 397 2633 464 
Q 2878 531 3122 666 
L 3122 134 
Q 2881 22 2623 -34 
Q 2366 -91 2075 -91 
Q 1284 -91 818 406 
Q 353 903 353 1747 
Q 353 2603 823 3093 
Q 1294 3584 2113 3584 
Q 2378 3584 2631 3529 
Q 2884 3475 3122 3366 
z
" transform="scale(0.015625)"/>
       <path id="DejaVuSans-4e" d="M 581 4863 
L 1159 4863 
L 1159 1991 
L 2875 3500 
L 3609 3500 
L 1753 1863 
L 3688 0 
L 2938 0 
L 1159 1709 
L 1159 0 
L 581 0 
L 581 4863 
z
" transform="scale(0.015625)"/>
       <path id="DejaVuSans-45" d="M 3116 1747 
Q 3116 2381 2855 2742 
Q 2594 3103 2138 3103 
Q 1681 3103 1420 2742 
Q 1159 2381 1159 1747 
Q 1159 1113 1420 752 
Q 1681 391 2138 391 
Q 2594 391 2855 752 
Q 3116 1113 3116 1747 
z
M 1159 2969 
Q 1341 3281 1617 3432 
Q 1894 3584 2278 3584 
Q 2916 3584 3314 3078 
Q 3713 2572 3713 1747 
Q 3713 922 3314 415 
Q 2916 -91 2278 -91 
Q 1894 -91 1617 61 
Q 1341 213 1159 525 
L 1159 0 
L 581 0 
L 581 4863 
L 1159 4863 
L 1159 2969 
z
" transform="scale(0.015625)"/>
       <path id="DejaVuSans-4a" d="M 2906 1791 
Q 2906 2416 2648 2759 
Q 2391 3103 1925 3103 
Q 1463 3103 1205 2759 
Q 947 2416 947 1791 
Q 947 1169 1205 825 
Q 1463 481 1925 481 
Q 2391 481 2648 825 
Q 2906 1169 2906 1791 
z
M 3481 434 
Q 3481 -459 3084 -895 
Q 2688 -1331 1869 -1331 
Q 1566 -1331 1297 -1286 
Q 1028 -1241 775 -1147 
L 775 -588 
Q 1028 -725 1275 -790 
Q 1522 -856 1778 -856 
Q 2344 -856 2625 -561 
Q 2906 -266 2906 331 
L 2906 616 
Q 2728 306 2450 153 
Q 2172 0 1784 0 
Q 1141 0 747 490 
Q 353 981 353 1791 
Q 353 2603 747 3093 
Q 1141 3584 1784 3584 
Q 2172 3584 2450 3431 
Q 2728 3278 2906 2969 
L 2906 3500 
L 3481 3500 
L 3481 434 
z
" transform="scale(0.015625)"/>
       <path id="DejaVuSans-52" d="M 1959 3097 
Q 1497 3097 1228 2736 
Q 959 2375 959 1747 
Q 959 1119 1226 758 
Q 1494 397 1959 397 
Q 2419 397 2687 759 
Q 2956 1122 2956 1747 
Q 2956 2369 2687 2733 
Q 2419 3097 1959 3097 
z
M 1959 3584 
Q 2709 3584 3137 3096 
Q 3566 2609 3566 1747 
Q 3566 888 3137 398 
Q 2709 -91 1959 -91 
Q 1206 -91 779 398 
Q 353 888 353 1747 
Q 353 2609 779 3096 
Q 1206 3584 1959 3584 
z
" transform="scale(0.015625)"/>
       <path id="DejaVuSans-5a" d="M 269 3500 
L 844 3500 
L 1563 769 
L 2278 3500 
L 2956 3500 
L 3675 769 
L 4391 3500 
L 4966 3500 
L 4050 0 
L 3372 0 
L 2619 2869 
L 1863 0 
L 1184 0 
L 269 3500 
z
" transform="scale(0.015625)"/>
      </defs>
      <use xlink:href="#DejaVuSans-53"/>
      <use xlink:href="#DejaVuSans-48" transform="translate(63.484375 0)"/>
      <use xlink:href="#DejaVuSans-55" transform="translate(125.015625 0)"/>
      <use xlink:href="#DejaVuSans-10" transform="translate(159.734375 0)"/>
      <use xlink:href="#DejaVuSans-57" transform="translate(195.8125 0)"/>
      <use xlink:href="#DejaVuSans-4c" transform="translate(235.015625 0)"/>
      <use xlink:href="#DejaVuSans-46" transform="translate(262.796875 0)"/>
      <use xlink:href="#DejaVuSans-4e" transform="translate(317.78125 0)"/>
      <use xlink:href="#DejaVuSans-3" transform="translate(375.6875 0)"/>
      <use xlink:href="#DejaVuSans-47" transform="translate(407.46875 0)"/>
      <use xlink:href="#DejaVuSans-55" transform="translate(470.953125 0)"/>
      <use xlink:href="#DejaVuSans-44" transform="translate(512.0625 0)"/>
      <use xlink:href="#DejaVuSans-4c" transform="translate(573.34375 0)"/>
      <use xlink:href="#DejaVuSans-51" transform="translate(601.125 0)"/>
      <use xlink:href="#DejaVuSans-3" transform="translate(664.5 0)"/>
      <use xlink:href="#DejaVuSans-45" transform="translate(696.28125 0)"/>
      <use xlink:href="#DejaVuSans-58" transform="translate(759.765625 0)"/>
      <use xlink:href="#DejaVuSans-47" transform="translate(823.140625 0)"/>
      <use xlink:href="#DejaVuSans-4a" transform="translate(886.625 0)"/>
      <use xlink:href="#DejaVuSans-48" transform="translate(950.109375 0)"/>
      <use xlink:href="#DejaVuSans-57" transform="translate(1011.640625 0)"/>
      <use xlink:href="#DejaVuSans-3" transform="translate(1050.84375 0)"/>
      <use xlink:href="#DejaVuSans-b" transform="translate(1082.625 0)"/>
      <use xlink:href="#DejaVuSans-55" transform="translate(1121.640625 0)"/>
      <use xlink:href="#DejaVuSans-52" transform="translate(1160.546875 0)"/>
      <use xlink:href="#DejaVuSans-5a" transform="translate(1221.734375 0)"/>
      <use xlink:href="#DejaVuSans-56" transform="translate(1303.515625 0)"/>
      <use xlink:href="#DejaVuSans-c" transform="translate(1355.609375 0)"/>
     </g>
    </g>
   </g>
   <g id="line2d_35">
    <path d="M 70.974682 250.062363 
L 73.383631 281.562363 
L 75.792579 242.188203 
L 77.982532 292.391643 
L 80.39148 297.312363 
L 82.800428 297.312363 
L 84.990381 265.812363 
L 89.808277 139.812363 
L 92.217226 238.250283 
L 94.407178 284.023563 
L 96.816127 281.871483 
L 99.225075 218.716923 
L 101.415028 257.976843 
L 103.823976 297.312363 
L 106.232924 265.812363 
L 108.422877 202.812363 
L 110.831825 171.312363 
L 113.240773 242.188203 
L 115.649722 179.188203 
L 117.839674 147.688203 
L 120.248623 214.626123 
L 122.657571 232.345083 
L 124.847524 237.758043 
L 127.256472 289.438203 
L 129.66542 265.812363 
L 132.074368 297.312363 
L 136.673269 297.312363 
L 139.082218 265.812363 
L 141.272171 234.312363 
L 148.499015 234.312363 
L 150.688968 257.938203 
L 153.097916 163.438203 
L 155.506864 100.438203 
L 157.696817 68.938203 
L 164.923662 68.938203 
L 167.113615 252.031323 
L 169.522563 285.500283 
L 171.931511 282.546843 
L 174.121464 282.054603 
L 183.538262 282.054603 
L 185.94721 297.312363 
L 195.364007 297.312363 
L 197.772956 277.626123 
L 200.181904 214.626123 
L 207.189753 214.626123 
L 209.598701 232.345083 
L 212.007649 229.883883 
L 214.416598 297.312363 
L 219.015499 297.312363 
L 221.424447 265.812363 
L 223.6144 289.438203 
L 226.023348 283.531323 
L 228.432296 297.312363 
L 233.031197 297.312363 
L 235.440145 265.812363 
L 237.849094 202.812363 
L 240.039047 202.812363 
L 242.447995 291.407163 
L 244.856943 257.938203 
L 247.265891 297.312363 
L 249.455844 265.812363 
L 251.864792 265.812363 
L 254.27374 289.438203 
L 256.463693 297.312363 
L 261.28159 297.312363 
L 263.690538 277.626123 
L 265.880491 249.079563 
L 268.289439 257.692923 
L 270.698387 259.845003 
L 272.88834 165.345003 
L 275.297288 239.204523 
L 279.896189 239.204523 
L 282.305138 294.599163 
L 284.714086 297.312363 
L 287.123034 283.531323 
L 289.312987 251.046843 
L 294.130883 251.046843 
L 296.320836 289.683483 
L 298.729784 283.593483 
L 301.138733 281.817723 
L 303.547681 250.190043 
L 305.737634 250.190043 
L 308.146582 242.220123 
L 310.55553 280.582923 
L 312.964478 265.568763 
L 315.154431 234.068763 
L 317.563379 261.813963 
L 319.972328 286.970283 
L 322.16228 251.414763 
L 324.571229 234.651723 
L 326.980177 195.107883 
L 329.17013 100.607883 
L 331.579078 282.568683 
L 333.988026 297.312363 
L 345.594777 297.312363 
L 348.003725 234.312363 
L 350.412673 139.812363 
L 352.602626 108.312363 
L 355.011574 76.812363 
L 359.82947 297.312363 
L 366.83732 297.312363 
L 369.027273 265.812363 
L 371.436221 171.312363 
L 373.845169 287.469243 
L 376.035122 221.515803 
L 378.44407 127.015803 
L 380.853018 64.015803 
L 383.261966 155.562363 
L 385.451919 61.062363 
L 387.860868 61.062363 
L 390.269816 297.312363 
L 392.459769 297.312363 
L 394.868717 273.688203 
L 397.277665 276.641643 
L 399.467618 288.208443 
L 401.876566 297.312363 
L 404.285514 297.312363 
L 406.694463 171.312363 
L 408.884415 76.812363 
L 411.293364 76.812363 
L 413.702312 131.938203 
L 415.892265 68.938203 
L 418.301213 61.062363 
L 420.710161 61.062363 
L 422.900114 265.812363 
L 425.309062 297.312363 
L 434.72586 297.312363 
L 437.134808 171.312363 
L 439.324761 287.469243 
L 444.142657 95.515803 
L 446.33261 61.062363 
L 453.559455 61.062363 
L 455.749408 250.062363 
L 458.158356 273.688203 
L 460.567304 248.095083 
L 462.757257 218.071803 
L 465.166205 297.312363 
L 467.575153 297.312363 
L 469.765106 202.812363 
L 472.174054 202.812363 
L 474.583003 108.312363 
L 476.991951 61.062363 
L 493.197602 61.062363 
L 495.60655 187.062363 
L 498.015499 155.562363 
L 500.424447 297.312363 
L 502.6144 289.438203 
L 505.023348 222.500283 
L 507.432296 211.672683 
L 509.622249 224.716203 
L 512.031197 193.216203 
L 516.849094 67.216203 
L 519.039047 187.062363 
L 521.447995 155.562363 
L 523.856943 92.562363 
L 526.046896 61.062363 
L 544.880491 61.062363 
L 544.880491 61.062363 
" clip-path="url(#p97ffdb8da4)" style="fill: none; stroke: #3ecf8e; stroke-width: 2; stroke-linecap: square"/>
    <defs>
     <path id="m2965a2625b" d="M 0 1.5 
C 0.397805 1.5 0.77937 1.341951 1.06066 1.06066 
C 1.341951 0.77937 1.5 0.397805 1.5 0 
C 1.5 -0.397805 1.341951 -0.77937 1.06066 -1.06066 
C 0.77937 -1.341951 0.397805 -1.5 0 -1.5 
C -0.397805 -1.5 -0.77937 -1.341951 -1.06066 -1.06066 
C -1.341951 -0.77937 -1.5 -0.397805 -1.5 0 
C -1.5 0.397805 -1.341951 0.77937 -1.06066 1.06066 
C -0.77937 1.341951 -0.397805 1.5 0 1.5 
z
" style="stroke: #3ecf8e"/>
    </defs>
    <g clip-path="url(#p97ffdb8da4)">
     <use xlink:href="#m2965a2625b" x="70.974682" y="250.062363" style="fill: #3ecf8e; stroke: #3ecf8e"/>
     <use xlink:href="#m2965a2625b" x="73.383631" y="281.562363" style="fill: #3ecf8e; stroke: #3ecf8e"/>
     <use xlink:href="#m2965a2625b" x="75.792579" y="242.188203" style="fill: #3ecf8e; stroke: #3ecf8e"/>
     <use xlink:href="#m2965a2625b" x="77.982532" y="292.391643" style="fill: #3ecf8e; stroke: #3ecf8e"/>
     <use xlink:href="#m2965a2625b" x="80.39148" y="297.312363" style="fill: #3ecf8e; stroke: #3ecf8e"/>
     <use xlink:href="#m2965a2625b" x="82.800428" y="297.312363" style="fill: #3ecf8e; stroke: #3ecf8e"/>
     <use xlink:href="#m2965a2625b" x="84.990381" y="265.812363" style="fill: #3ecf8e; stroke: #3ecf8e"/>
     <use xlink:href="#m2965a2625b" x="87.399329" y="202.812363" style="fill: #3ecf8e; stroke: #3ecf8e"/>
     <use xlink:href="#m2965a2625b" x="89.808277" y="139.812363" style="fill: #3ecf8e; stroke: #3ecf8e"/>
     <use xlink:href="#m2965a2625b" x="92.217226" y="238.250283" style="fill: #3ecf8e; stroke: #3ecf8e"/>
     <use xlink:href="#m2965a2625b" x="94.407178" y="284.023563" style="fill: #3ecf8e; stroke: #3ecf8e"/>
     <use xlink:href="#m2965a2625b" x="96.816127" y="281.871483" style="fill: #3ecf8e; stroke: #3ecf8e"/>
     <use xlink:href="#m2965a2625b" x="99.225075" y="218.716923" style="fill: #3ecf8e; stroke: #3ecf8e"/>
     <use xlink:href="#m2965a2625b" x="101.415028" y="257.976843" style="fill: #3ecf8e; stroke: #3ecf8e"/>
     <use xlink:href="#m2965a2625b" x="103.823976" y="297.312363" style="fill: #3ecf8e; stroke: #3ecf8e"/>
     <use xlink:href="#m2965a2625b" x="106.232924" y="265.812363" style="fill: #3ecf8e; stroke: #3ecf8e"/>
     <use xlink:href="#m2965a2625b" x="108.422877" y="202.812363" style="fill: #3ecf8e; stroke: #3ecf8e"/>
     <use xlink:href="#m2965a2625b" x="110.831825" y="171.312363" style="fill: #3ecf8e; stroke: #3ecf8e"/>
     <use xlink:href="#m2965a2625b" x="113.240773" y="242.188203" style="fill: #3ecf8e; stroke: #3ecf8e"/>
     <use xlink:href="#m2965a2625b" x="115.649722" y="179.188203" style="fill: #3ecf8e; stroke: #3ecf8e"/>
     <use xlink:href="#m2965a2625b" x="117.839674" y="147.688203" style="fill: #3ecf8e; stroke: #3ecf8e"/>
     <use xlink:href="#m2965a2625b" x="120.248623" y="214.626123" style="fill: #3ecf8e; stroke: #3ecf8e"/>
     <use xlink:href="#m2965a2625b" x="122.657571" y="232.345083" style="fill: #3ecf8e; stroke: #3ecf8e"/>
     <use xlink:href="#m2965a2625b" x="124.847524" y="237.758043" style="fill: #3ecf8e; stroke: #3ecf8e"/>
     <use xlink:href="#m2965a2625b" x="127.256472" y="289.438203" style="fill: #3ecf8e; stroke: #3ecf8e"/>
     <use xlink:href="#m2965a2625b" x="129.66542" y="265.812363" style="fill: #3ecf8e; stroke: #3ecf8e"/>
     <use xlink:href="#m2965a2625b" x="132.074368" y="297.312363" style="fill: #3ecf8e; stroke: #3ecf8e"/>
     <use xlink:href="#m2965a2625b" x="134.264321" y="297.312363" style="fill: #3ecf8e; stroke: #3ecf8e"/>
     <use xlink:href="#m2965a2625b" x="136.673269" y="297.312363" style="fill: #3ecf8e; stroke: #3ecf8e"/>
     <use xlink:href="#m2965a2625b" x="139.082218" y="265.812363" style="fill: #3ecf8e; stroke: #3ecf8e"/>
     <use xlink:href="#m2965a2625b" x="141.272171" y="234.312363" style="fill: #3ecf8e; stroke: #3ecf8e"/>
     <use xlink:href="#m2965a2625b" x="143.681119" y="234.312363" style="fill: #3ecf8e; stroke: #3ecf8e"/>
     <use xlink:href="#m2965a2625b" x="146.090067" y="234.312363" style="fill: #3ecf8e; stroke: #3ecf8e"/>
     <use xlink:href="#m2965a2625b" x="148.499015" y="234.312363" style="fill: #3ecf8e; stroke: #3ecf8e"/>
     <use xlink:href="#m2965a2625b" x="150.688968" y="257.938203" style="fill: #3ecf8e; stroke: #3ecf8e"/>
     <use xlink:href="#m2965a2625b" x="153.097916" y="163.438203" style="fill: #3ecf8e; stroke: #3ecf8e"/>
     <use xlink:href="#m2965a2625b" x="155.506864" y="100.438203" style="fill: #3ecf8e; stroke: #3ecf8e"/>
     <use xlink:href="#m2965a2625b" x="157.696817" y="68.938203" style="fill: #3ecf8e; stroke: #3ecf8e"/>
     <use xlink:href="#m2965a2625b" x="160.105766" y="68.938203" style="fill: #3ecf8e; stroke: #3ecf8e"/>
     <use xlink:href="#m2965a2625b" x="162.514714" y="68.938203" style="fill: #3ecf8e; stroke: #3ecf8e"/>
     <use xlink:href="#m2965a2625b" x="164.923662" y="68.938203" style="fill: #3ecf8e; stroke: #3ecf8e"/>
     <use xlink:href="#m2965a2625b" x="167.113615" y="252.031323" style="fill: #3ecf8e; stroke: #3ecf8e"/>
     <use xlink:href="#m2965a2625b" x="169.522563" y="285.500283" style="fill: #3ecf8e; stroke: #3ecf8e"/>
     <use xlink:href="#m2965a2625b" x="171.931511" y="282.546843" style="fill: #3ecf8e; stroke: #3ecf8e"/>
     <use xlink:href="#m2965a2625b" x="174.121464" y="282.054603" style="fill: #3ecf8e; stroke: #3ecf8e"/>
     <use xlink:href="#m2965a2625b" x="176.530412" y="282.054603" style="fill: #3ecf8e; stroke: #3ecf8e"/>
     <use xlink:href="#m2965a2625b" x="178.939361" y="282.054603" style="fill: #3ecf8e; stroke: #3ecf8e"/>
     <use xlink:href="#m2965a2625b" x="181.348309" y="282.054603" style="fill: #3ecf8e; stroke: #3ecf8e"/>
     <use xlink:href="#m2965a2625b" x="183.538262" y="282.054603" style="fill: #3ecf8e; stroke: #3ecf8e"/>
     <use xlink:href="#m2965a2625b" x="185.94721" y="297.312363" style="fill: #3ecf8e; stroke: #3ecf8e"/>
     <use xlink:href="#m2965a2625b" x="188.356158" y="297.312363" style="fill: #3ecf8e; stroke: #3ecf8e"/>
     <use xlink:href="#m2965a2625b" x="190.765106" y="297.312363" style="fill: #3ecf8e; stroke: #3ecf8e"/>
     <use xlink:href="#m2965a2625b" x="192.955059" y="297.312363" style="fill: #3ecf8e; stroke: #3ecf8e"/>
     <use xlink:href="#m2965a2625b" x="195.364007" y="297.312363" style="fill: #3ecf8e; stroke: #3ecf8e"/>
     <use xlink:href="#m2965a2625b" x="197.772956" y="277.626123" style="fill: #3ecf8e; stroke: #3ecf8e"/>
     <use xlink:href="#m2965a2625b" x="200.181904" y="214.626123" style="fill: #3ecf8e; stroke: #3ecf8e"/>
     <use xlink:href="#m2965a2625b" x="202.590852" y="214.626123" style="fill: #3ecf8e; stroke: #3ecf8e"/>
     <use xlink:href="#m2965a2625b" x="204.9998" y="214.626123" style="fill: #3ecf8e; stroke: #3ecf8e"/>
     <use xlink:href="#m2965a2625b" x="207.189753" y="214.626123" style="fill: #3ecf8e; stroke: #3ecf8e"/>
     <use xlink:href="#m2965a2625b" x="209.598701" y="232.345083" style="fill: #3ecf8e; stroke: #3ecf8e"/>
     <use xlink:href="#m2965a2625b" x="212.007649" y="229.883883" style="fill: #3ecf8e; stroke: #3ecf8e"/>
     <use xlink:href="#m2965a2625b" x="214.416598" y="297.312363" style="fill: #3ecf8e; stroke: #3ecf8e"/>
     <use xlink:href="#m2965a2625b" x="216.60655" y="297.312363" style="fill: #3ecf8e; stroke: #3ecf8e"/>
     <use xlink:href="#m2965a2625b" x="219.015499" y="297.312363" style="fill: #3ecf8e; stroke: #3ecf8e"/>
     <use xlink:href="#m2965a2625b" x="221.424447" y="265.812363" style="fill: #3ecf8e; stroke: #3ecf8e"/>
     <use xlink:href="#m2965a2625b" x="223.6144" y="289.438203" style="fill: #3ecf8e; stroke: #3ecf8e"/>
     <use xlink:href="#m2965a2625b" x="226.023348" y="283.531323" style="fill: #3ecf8e; stroke: #3ecf8e"/>
     <use xlink:href="#m2965a2625b" x="228.432296" y="297.312363" style="fill: #3ecf8e; stroke: #3ecf8e"/>
     <use xlink:href="#m2965a2625b" x="230.622249" y="297.312363" style="fill: #3ecf8e; stroke: #3ecf8e"/>
     <use xlink:href="#m2965a2625b" x="233.031197" y="297.312363" style="fill: #3ecf8e; stroke: #3ecf8e"/>
     <use xlink:href="#m2965a2625b" x="235.440145" y="265.812363" style="fill: #3ecf8e; stroke: #3ecf8e"/>
     <use xlink:href="#m2965a2625b" x="237.849094" y="202.812363" style="fill: #3ecf8e; stroke: #3ecf8e"/>
     <use xlink:href="#m2965a2625b" x="240.039047" y="202.812363" style="fill: #3ecf8e; stroke: #3ecf8e"/>
     <use xlink:href="#m2965a2625b" x="242.447995" y="291.407163" style="fill: #3ecf8e; stroke: #3ecf8e"/>
     <use xlink:href="#m2965a2625b" x="244.856943" y="257.938203" style="fill: #3ecf8e; stroke: #3ecf8e"/>
     <use xlink:href="#m2965a2625b" x="247.265891" y="297.312363" style="fill: #3ecf8e; stroke: #3ecf8e"/>
     <use xlink:href="#m2965a2625b" x="249.455844" y="265.812363" style="fill: #3ecf8e; stroke: #3ecf8e"/>
     <use xlink:href="#m2965a2625b" x="251.864792" y="265.812363" style="fill: #3ecf8e; stroke: #3ecf8e"/>
     <use xlink:href="#m2965a2625b" x="254.27374" y="289.438203" style="fill: #3ecf8e; stroke: #3ecf8e"/>
     <use xlink:href="#m2965a2625b" x="256.463693" y="297.312363" style="fill: #3ecf8e; stroke: #3ecf8e"/>
     <use xlink:href="#m2965a2625b" x="258.872642" y="297.312363" style="fill: #3ecf8e; stroke: #3ecf8e"/>
     <use xlink:href="#m2965a2625b" x="261.28159" y="297.312363" style="fill: #3ecf8e; stroke: #3ecf8e"/>
     <use xlink:href="#m2965a2625b" x="263.690538" y="277.626123" style="fill: #3ecf8e; stroke: #3ecf8e"/>
     <use xlink:href="#m2965a2625b" x="265.880491" y="249.079563" style="fill: #3ecf8e; stroke: #3ecf8e"/>
     <use xlink:href="#m2965a2625b" x="268.289439" y="257.692923" style="fill: #3ecf8e; stroke: #3ecf8e"/>
     <use xlink:href="#m2965a2625b" x="270.698387" y="259.845003" style="fill: #3ecf8e; stroke: #3ecf8e"/>
     <use xlink:href="#m2965a2625b" x="272.88834" y="165.345003" style="fill: #3ecf8e; stroke: #3ecf8e"/>
     <use xlink:href="#m2965a2625b" x="275.297288" y="239.204523" style="fill: #3ecf8e; stroke: #3ecf8e"/>
     <use xlink:href="#m2965a2625b" x="277.706237" y="239.204523" style="fill: #3ecf8e; stroke: #3ecf8e"/>
     <use xlink:href="#m2965a2625b" x="279.896189" y="239.204523" style="fill: #3ecf8e; stroke: #3ecf8e"/>
     <use xlink:href="#m2965a2625b" x="282.305138" y="294.599163" style="fill: #3ecf8e; stroke: #3ecf8e"/>
     <use xlink:href="#m2965a2625b" x="284.714086" y="297.312363" style="fill: #3ecf8e; stroke: #3ecf8e"/>
     <use xlink:href="#m2965a2625b" x="287.123034" y="283.531323" style="fill: #3ecf8e; stroke: #3ecf8e"/>
     <use xlink:href="#m2965a2625b" x="289.312987" y="251.046843" style="fill: #3ecf8e; stroke: #3ecf8e"/>
     <use xlink:href="#m2965a2625b" x="291.721935" y="251.046843" style="fill: #3ecf8e; stroke: #3ecf8e"/>
     <use xlink:href="#m2965a2625b" x="294.130883" y="251.046843" style="fill: #3ecf8e; stroke: #3ecf8e"/>
     <use xlink:href="#m2965a2625b" x="296.320836" y="289.683483" style="fill: #3ecf8e; stroke: #3ecf8e"/>
     <use xlink:href="#m2965a2625b" x="298.729784" y="283.593483" style="fill: #3ecf8e; stroke: #3ecf8e"/>
     <use xlink:href="#m2965a2625b" x="301.138733" y="281.817723" style="fill: #3ecf8e; stroke: #3ecf8e"/>
     <use xlink:href="#m2965a2625b" x="303.547681" y="250.190043" style="fill: #3ecf8e; stroke: #3ecf8e"/>
     <use xlink:href="#m2965a2625b" x="305.737634" y="250.190043" style="fill: #3ecf8e; stroke: #3ecf8e"/>
     <use xlink:href="#m2965a2625b" x="308.146582" y="242.220123" style="fill: #3ecf8e; stroke: #3ecf8e"/>
     <use xlink:href="#m2965a2625b" x="310.55553" y="280.582923" style="fill: #3ecf8e; stroke: #3ecf8e"/>
     <use xlink:href="#m2965a2625b" x="312.964478" y="265.568763" style="fill: #3ecf8e; stroke: #3ecf8e"/>
     <use xlink:href="#m2965a2625b" x="315.154431" y="234.068763" style="fill: #3ecf8e; stroke: #3ecf8e"/>
     <use xlink:href="#m2965a2625b" x="317.563379" y="261.813963" style="fill: #3ecf8e; stroke: #3ecf8e"/>
     <use xlink:href="#m2965a2625b" x="319.972328" y="286.970283" style="fill: #3ecf8e; stroke: #3ecf8e"/>
     <use xlink:href="#m2965a2625b" x="322.16228" y="251.414763" style="fill: #3ecf8e; stroke: #3ecf8e"/>
     <use xlink:href="#m2965a2625b" x="324.571229" y="234.651723" style="fill: #3ecf8e; stroke: #3ecf8e"/>
     <use xlink:href="#m2965a2625b" x="326.980177" y="195.107883" style="fill: #3ecf8e; stroke: #3ecf8e"/>
     <use xlink:href="#m2965a2625b" x="329.17013" y="100.607883" style="fill: #3ecf8e; stroke: #3ecf8e"/>
     <use xlink:href="#m2965a2625b" x="331.579078" y="282.568683" style="fill: #3ecf8e; stroke: #3ecf8e"/>
     <use xlink:href="#m2965a2625b" x="333.988026" y="297.312363" style="fill: #3ecf8e; stroke: #3ecf8e"/>
     <use xlink:href="#m2965a2625b" x="336.396974" y="297.312363" style="fill: #3ecf8e; stroke: #3ecf8e"/>
     <use xlink:href="#m2965a2625b" x="338.586927" y="297.312363" style="fill: #3ecf8e; stroke: #3ecf8e"/>
     <use xlink:href="#m2965a2625b" x="340.995875" y="297.312363" style="fill: #3ecf8e; stroke: #3ecf8e"/>
     <use xlink:href="#m2965a2625b" x="343.404824" y="297.312363" style="fill: #3ecf8e; stroke: #3ecf8e"/>
     <use xlink:href="#m2965a2625b" x="345.594777" y="297.312363" style="fill: #3ecf8e; stroke: #3ecf8e"/>
     <use xlink:href="#m2965a2625b" x="348.003725" y="234.312363" style="fill: #3ecf8e; stroke: #3ecf8e"/>
     <use xlink:href="#m2965a2625b" x="350.412673" y="139.812363" style="fill: #3ecf8e; stroke: #3ecf8e"/>
     <use xlink:href="#m2965a2625b" x="352.602626" y="108.312363" style="fill: #3ecf8e; stroke: #3ecf8e"/>
     <use xlink:href="#m2965a2625b" x="355.011574" y="76.812363" style="fill: #3ecf8e; stroke: #3ecf8e"/>
     <use xlink:href="#m2965a2625b" x="357.420522" y="187.062363" style="fill: #3ecf8e; stroke: #3ecf8e"/>
     <use xlink:href="#m2965a2625b" x="359.82947" y="297.312363" style="fill: #3ecf8e; stroke: #3ecf8e"/>
     <use xlink:href="#m2965a2625b" x="362.019423" y="297.312363" style="fill: #3ecf8e; stroke: #3ecf8e"/>
     <use xlink:href="#m2965a2625b" x="364.428372" y="297.312363" style="fill: #3ecf8e; stroke: #3ecf8e"/>
     <use xlink:href="#m2965a2625b" x="366.83732" y="297.312363" style="fill: #3ecf8e; stroke: #3ecf8e"/>
     <use xlink:href="#m2965a2625b" x="369.027273" y="265.812363" style="fill: #3ecf8e; stroke: #3ecf8e"/>
     <use xlink:href="#m2965a2625b" x="371.436221" y="171.312363" style="fill: #3ecf8e; stroke: #3ecf8e"/>
     <use xlink:href="#m2965a2625b" x="373.845169" y="287.469243" style="fill: #3ecf8e; stroke: #3ecf8e"/>
     <use xlink:href="#m2965a2625b" x="376.035122" y="221.515803" style="fill: #3ecf8e; stroke: #3ecf8e"/>
     <use xlink:href="#m2965a2625b" x="378.44407" y="127.015803" style="fill: #3ecf8e; stroke: #3ecf8e"/>
     <use xlink:href="#m2965a2625b" x="380.853018" y="64.015803" style="fill: #3ecf8e; stroke: #3ecf8e"/>
     <use xlink:href="#m2965a2625b" x="383.261966" y="155.562363" style="fill: #3ecf8e; stroke: #3ecf8e"/>
     <use xlink:href="#m2965a2625b" x="385.451919" y="61.062363" style="fill: #3ecf8e; stroke: #3ecf8e"/>
     <use xlink:href="#m2965a2625b" x="387.860868" y="61.062363" style="fill: #3ecf8e; stroke: #3ecf8e"/>
     <use xlink:href="#m2965a2625b" x="390.269816" y="297.312363" style="fill: #3ecf8e; stroke: #3ecf8e"/>
     <use xlink:href="#m2965a2625b" x="392.459769" y="297.312363" style="fill: #3ecf8e; stroke: #3ecf8e"/>
     <use xlink:href="#m2965a2625b" x="394.868717" y="273.688203" style="fill: #3ecf8e; stroke: #3ecf8e"/>
     <use xlink:href="#m2965a2625b" x="397.277665" y="276.641643" style="fill: #3ecf8e; stroke: #3ecf8e"/>
     <use xlink:href="#m2965a2625b" x="399.467618" y="288.208443" style="fill: #3ecf8e; stroke: #3ecf8e"/>
     <use xlink:href="#m2965a2625b" x="401.876566" y="297.312363" style="fill: #3ecf8e; stroke: #3ecf8e"/>
     <use xlink:href="#m2965a2625b" x="404.285514" y="297.312363" style="fill: #3ecf8e; stroke: #3ecf8e"/>
     <use xlink:href="#m2965a2625b" x="406.694463" y="171.312363" style="fill: #3ecf8e; stroke: #3ecf8e"/>
     <use xlink:href="#m2965a2625b" x="408.884415" y="76.812363" style="fill: #3ecf8e; stroke: #3ecf8e"/>
     <use xlink:href="#m2965a2625b" x="411.293364" y="76.812363" style="fill: #3ecf8e; stroke: #3ecf8e"/>
     <use xlink:href="#m2965a2625b" x="413.702312" y="131.938203" style="fill: #3ecf8e; stroke: #3ecf8e"/>
     <use xlink:href="#m2965a2625b" x="415.892265" y="68.938203" style="fill: #3ecf8e; stroke: #3ecf8e"/>
     <use xlink:href="#m2965a2625b" x="418.301213" y="61.062363" style="fill: #3ecf8e; stroke: #3ecf8e"/>
     <use xlink:href="#m2965a2625b" x="420.710161" y="61.062363" style="fill: #3ecf8e; stroke: #3ecf8e"/>
     <use xlink:href="#m2965a2625b" x="422.900114" y="265.812363" style="fill: #3ecf8e; stroke: #3ecf8e"/>
     <use xlink:href="#m2965a2625b" x="425.309062" y="297.312363" style="fill: #3ecf8e; stroke: #3ecf8e"/>
     <use xlink:href="#m2965a2625b" x="427.71801" y="297.312363" style="fill: #3ecf8e; stroke: #3ecf8e"/>
     <use xlink:href="#m2965a2625b" x="430.126959" y="297.312363" style="fill: #3ecf8e; stroke: #3ecf8e"/>
     <use xlink:href="#m2965a2625b" x="432.316912" y="297.312363" style="fill: #3ecf8e; stroke: #3ecf8e"/>
     <use xlink:href="#m2965a2625b" x="434.72586" y="297.312363" style="fill: #3ecf8e; stroke: #3ecf8e"/>
     <use xlink:href="#m2965a2625b" x="437.134808" y="171.312363" style="fill: #3ecf8e; stroke: #3ecf8e"/>
     <use xlink:href="#m2965a2625b" x="439.324761" y="287.469243" style="fill: #3ecf8e; stroke: #3ecf8e"/>
     <use xlink:href="#m2965a2625b" x="441.733709" y="190.015803" style="fill: #3ecf8e; stroke: #3ecf8e"/>
     <use xlink:href="#m2965a2625b" x="444.142657" y="95.515803" style="fill: #3ecf8e; stroke: #3ecf8e"/>
     <use xlink:href="#m2965a2625b" x="446.33261" y="61.062363" style="fill: #3ecf8e; stroke: #3ecf8e"/>
     <use xlink:href="#m2965a2625b" x="448.741558" y="61.062363" style="fill: #3ecf8e; stroke: #3ecf8e"/>
     <use xlink:href="#m2965a2625b" x="451.150507" y="61.062363" style="fill: #3ecf8e; stroke: #3ecf8e"/>
     <use xlink:href="#m2965a2625b" x="453.559455" y="61.062363" style="fill: #3ecf8e; stroke: #3ecf8e"/>
     <use xlink:href="#m2965a2625b" x="455.749408" y="250.062363" style="fill: #3ecf8e; stroke: #3ecf8e"/>
     <use xlink:href="#m2965a2625b" x="458.158356" y="273.688203" style="fill: #3ecf8e; stroke: #3ecf8e"/>
     <use xlink:href="#m2965a2625b" x="460.567304" y="248.095083" style="fill: #3ecf8e; stroke: #3ecf8e"/>
     <use xlink:href="#m2965a2625b" x="462.757257" y="218.071803" style="fill: #3ecf8e; stroke: #3ecf8e"/>
     <use xlink:href="#m2965a2625b" x="465.166205" y="297.312363" style="fill: #3ecf8e; stroke: #3ecf8e"/>
     <use xlink:href="#m2965a2625b" x="467.575153" y="297.312363" style="fill: #3ecf8e; stroke: #3ecf8e"/>
     <use xlink:href="#m2965a2625b" x="469.765106" y="202.812363" style="fill: #3ecf8e; stroke: #3ecf8e"/>
     <use xlink:href="#m2965a2625b" x="472.174054" y="202.812363" style="fill: #3ecf8e; stroke: #3ecf8e"/>
     <use xlink:href="#m2965a2625b" x="474.583003" y="108.312363" style="fill: #3ecf8e; stroke: #3ecf8e"/>
     <use xlink:href="#m2965a2625b" x="476.991951" y="61.062363" style="fill: #3ecf8e; stroke: #3ecf8e"/>
     <use xlink:href="#m2965a2625b" x="479.181904" y="61.062363" style="fill: #3ecf8e; stroke: #3ecf8e"/>
     <use xlink:href="#m2965a2625b" x="481.590852" y="61.062363" style="fill: #3ecf8e; stroke: #3ecf8e"/>
     <use xlink:href="#m2965a2625b" x="483.9998" y="61.062363" style="fill: #3ecf8e; stroke: #3ecf8e"/>
     <use xlink:href="#m2965a2625b" x="486.189753" y="61.062363" style="fill: #3ecf8e; stroke: #3ecf8e"/>
     <use xlink:href="#m2965a2625b" x="488.598701" y="61.062363" style="fill: #3ecf8e; stroke: #3ecf8e"/>
     <use xlink:href="#m2965a2625b" x="491.007649" y="61.062363" style="fill: #3ecf8e; stroke: #3ecf8e"/>
     <use xlink:href="#m2965a2625b" x="493.197602" y="61.062363" style="fill: #3ecf8e; stroke: #3ecf8e"/>
     <use xlink:href="#m2965a2625b" x="495.60655" y="187.062363" style="fill: #3ecf8e; stroke: #3ecf8e"/>
     <use xlink:href="#m2965a2625b" x="498.015499" y="155.562363" style="fill: #3ecf8e; stroke: #3ecf8e"/>
     <use xlink:href="#m2965a2625b" x="500.424447" y="297.312363" style="fill: #3ecf8e; stroke: #3ecf8e"/>
     <use xlink:href="#m2965a2625b" x="502.6144" y="289.438203" style="fill: #3ecf8e; stroke: #3ecf8e"/>
     <use xlink:href="#m2965a2625b" x="505.023348" y="222.500283" style="fill: #3ecf8e; stroke: #3ecf8e"/>
     <use xlink:href="#m2965a2625b" x="507.432296" y="211.672683" style="fill: #3ecf8e; stroke: #3ecf8e"/>
     <use xlink:href="#m2965a2625b" x="509.622249" y="224.716203" style="fill: #3ecf8e; stroke: #3ecf8e"/>
     <use xlink:href="#m2965a2625b" x="512.031197" y="193.216203" style="fill: #3ecf8e; stroke: #3ecf8e"/>
     <use xlink:href="#m2965a2625b" x="514.440145" y="130.216203" style="fill: #3ecf8e; stroke: #3ecf8e"/>
     <use xlink:href="#m2965a2625b" x="516.849094" y="67.216203" style="fill: #3ecf8e; stroke: #3ecf8e"/>
     <use xlink:href="#m2965a2625b" x="519.039047" y="187.062363" style="fill: #3ecf8e; stroke: #3ecf8e"/>
     <use xlink:href="#m2965a2625b" x="521.447995" y="155.562363" style="fill: #3ecf8e; stroke: #3ecf8e"/>
     <use xlink:href="#m2965a2625b" x="523.856943" y="92.562363" style="fill: #3ecf8e; stroke: #3ecf8e"/>
     <use xlink:href="#m2965a2625b" x="526.046896" y="61.062363" style="fill: #3ecf8e; stroke: #3ecf8e"/>
     <use xlink:href="#m2965a2625b" x="528.455844" y="61.062363" style="fill: #3ecf8e; stroke: #3ecf8e"/>
     <use xlink:href="#m2965a2625b" x="530.864792" y="61.062363" style="fill: #3ecf8e; stroke: #3ecf8e"/>
     <use xlink:href="#m2965a2625b" x="533.27374" y="61.062363" style="fill: #3ecf8e; stroke: #3ecf8e"/>
     <use xlink:href="#m2965a2625b" x="535.463693" y="61.062363" style="fill: #3ecf8e; stroke: #3ecf8e"/>
     <use xlink:href="#m2965a2625b" x="537.872642" y="61.062363" style="fill: #3ecf8e; stroke: #3ecf8e"/>
     <use xlink:href="#m2965a2625b" x="540.28159" y="61.062363" style="fill: #3ecf8e; stroke: #3ecf8e"/>
     <use xlink:href="#m2965a2625b" x="542.471543" y="61.062363" style="fill: #3ecf8e; stroke: #3ecf8e"/>
     <use xlink:href="#m2965a2625b" x="544.880491" y="61.062363" style="fill: #3ecf8e; stroke: #3ecf8e"/>
    </g>
   </g>
   <g id="line2d_36">
    <path d="M 66.375781 61.062363 
L 568.575781 61.062363 
" clip-path="url(#p97ffdb8da4)" style="fill: none; stroke-dasharray: 4.44,1.92; stroke-dashoffset: 0; stroke: #9aa0a6; stroke-width: 1.2"/>
   </g>
   <g id="line2d_37">
    <path d="M 66.375781 297.312363 
L 568.575781 297.312363 
" clip-path="url(#p97ffdb8da4)" style="fill: none; stroke-dasharray: 1.2,1.98; stroke-dashoffset: 0; stroke: #d2553b; stroke-width: 1.2"/>
   </g>
   <g id="patch_3">
    <path d="M 66.375781 313.062363 
L 66.375781 35.862363 
" style="fill: none; stroke: #000000; stroke-width: 0.8; stroke-linejoin: miter; stroke-linecap: square"/>
   </g>
   <g id="patch_4">
    <path d="M 568.575781 313.062363 
L 568.575781 35.862363 
" style="fill: none; stroke: #000000; stroke-width: 0.8; stroke-linejoin: miter; stroke-linecap: square"/>
   </g>
   <g id="patch_5">
    <path d="M 66.375781 313.062363 
L 568.575781 313.062363 
" style="fill: none; stroke: #000000; stroke-width: 0.8; stroke-linejoin: miter; stroke-linecap: square"/>
   </g>
   <g id="patch_6">
    <path d="M 66.375781 35.862363 
L 568.575781 35.862363 
" style="fill: none; stroke: #000000; stroke-width: 0.8; stroke-linejoin: miter; stroke-linecap: square"/>
   </g>
   <g id="text_20">
    <!-- Adaptive feathering (AIMD): the drain budget rides just under capacity, -->
    <g transform="translate(121.102578 16.659355) scale(0.11 -0.11)">
     <defs>
      <path id="DejaVuSans-24" d="M 2188 4044 
L 1331 1722 
L 3047 1722 
L 2188 4044 
z
M 1831 4666 
L 2547 4666 
L 4325 0 
L 3669 0 
L 3244 1197 
L 1141 1197 
L 716 0 
L 50 0 
L 1831 4666 
z
" transform="scale(0.015625)"/>
      <path id="DejaVuSans-59" d="M 191 3500 
L 800 3500 
L 1894 563 
L 2988 3500 
L 3597 3500 
L 2284 0 
L 1503 0 
L 191 3500 
z
" transform="scale(0.015625)"/>
      <path id="DejaVuSans-49" d="M 2375 4863 
L 2375 4384 
L 1825 4384 
Q 1516 4384 1395 4259 
Q 1275 4134 1275 3809 
L 1275 3500 
L 2222 3500 
L 2222 3053 
L 1275 3053 
L 1275 0 
L 697 0 
L 697 3053 
L 147 3053 
L 147 3500 
L 697 3500 
L 697 3744 
Q 697 4328 969 4595 
Q 1241 4863 1831 4863 
L 2375 4863 
z
" transform="scale(0.015625)"/>
      <path id="DejaVuSans-4b" d="M 3513 2113 
L 3513 0 
L 2938 0 
L 2938 2094 
Q 2938 2591 2744 2837 
Q 2550 3084 2163 3084 
Q 1697 3084 1428 2787 
Q 1159 2491 1159 1978 
L 1159 0 
L 581 0 
L 581 4863 
L 1159 4863 
L 1159 2956 
Q 1366 3272 1645 3428 
Q 1925 3584 2291 3584 
Q 2894 3584 3203 3211 
Q 3513 2838 3513 2113 
z
" transform="scale(0.015625)"/>
      <path id="DejaVuSans-2c" d="M 628 4666 
L 1259 4666 
L 1259 0 
L 628 0 
L 628 4666 
z
" transform="scale(0.015625)"/>
      <path id="DejaVuSans-30" d="M 628 4666 
L 1569 4666 
L 2759 1491 
L 3956 4666 
L 4897 4666 
L 4897 0 
L 4281 0 
L 4281 4097 
L 3078 897 
L 2444 897 
L 1241 4097 
L 1241 0 
L 628 0 
L 628 4666 
z
" transform="scale(0.015625)"/>
      <path id="DejaVuSans-27" d="M 1259 4147 
L 1259 519 
L 2022 519 
Q 2988 519 3436 956 
Q 3884 1394 3884 2338 
Q 3884 3275 3436 3711 
Q 2988 4147 2022 4147 
L 1259 4147 
z
M 628 4666 
L 1925 4666 
Q 3281 4666 3915 4102 
Q 4550 3538 4550 2338 
Q 4550 1131 3912 565 
Q 3275 0 1925 0 
L 628 0 
L 628 4666 
z
" transform="scale(0.015625)"/>
      <path id="DejaVuSans-1d" d="M 750 794 
L 1409 794 
L 1409 0 
L 750 0 
L 750 794 
z
M 750 3309 
L 1409 3309 
L 1409 2516 
L 750 2516 
L 750 3309 
z
" transform="scale(0.015625)"/>
      <path id="DejaVuSans-4d" d="M 603 3500 
L 1178 3500 
L 1178 -63 
Q 1178 -731 923 -1031 
Q 669 -1331 103 -1331 
L -116 -1331 
L -116 -844 
L 38 -844 
Q 366 -844 484 -692 
Q 603 -541 603 -63 
L 603 3500 
z
M 603 4863 
L 1178 4863 
L 1178 4134 
L 603 4134 
L 603 4863 
z
" transform="scale(0.015625)"/>
      <path id="DejaVuSans-5c" d="M 2059 -325 
Q 1816 -950 1584 -1140 
Q 1353 -1331 966 -1331 
L 506 -1331 
L 506 -850 
L 844 -850 
Q 1081 -850 1212 -737 
Q 1344 -625 1503 -206 
L 1606 56 
L 191 3500 
L 800 3500 
L 1894 763 
L 2988 3500 
L 3597 3500 
L 2059 -325 
z
" transform="scale(0.015625)"/>
      <path id="DejaVuSans-f" d="M 750 794 
L 1409 794 
L 1409 256 
L 897 -744 
L 494 -744 
L 750 256 
L 750 794 
z
" transform="scale(0.015625)"/>
     </defs>
     <use xlink:href="#DejaVuSans-24"/>
     <use xlink:href="#DejaVuSans-47" transform="translate(66.65625 0)"/>
     <use xlink:href="#DejaVuSans-44" transform="translate(130.140625 0)"/>
     <use xlink:href="#DejaVuSans-53" transform="translate(191.421875 0)"/>
     <use xlink:href="#DejaVuSans-57" transform="translate(254.90625 0)"/>
     <use xlink:href="#DejaVuSans-4c" transform="translate(294.109375 0)"/>
     <use xlink:href="#DejaVuSans-59" transform="translate(321.890625 0)"/>
     <use xlink:href="#DejaVuSans-48" transform="translate(381.078125 0)"/>
     <use xlink:href="#DejaVuSans-3" transform="translate(442.609375 0)"/>
     <use xlink:href="#DejaVuSans-49" transform="translate(474.390625 0)"/>
     <use xlink:href="#DejaVuSans-48" transform="translate(509.59375 0)"/>
     <use xlink:href="#DejaVuSans-44" transform="translate(571.125 0)"/>
     <use xlink:href="#DejaVuSans-57" transform="translate(632.40625 0)"/>
     <use xlink:href="#DejaVuSans-4b" transform="translate(671.609375 0)"/>
     <use xlink:href="#DejaVuSans-48" transform="translate(734.984375 0)"/>
     <use xlink:href="#DejaVuSans-55" transform="translate(796.515625 0)"/>
     <use xlink:href="#DejaVuSans-4c" transform="translate(837.625 0)"/>
     <use xlink:href="#DejaVuSans-51" transform="translate(865.40625 0)"/>
     <use xlink:href="#DejaVuSans-4a" transform="translate(928.78125 0)"/>
     <use xlink:href="#DejaVuSans-3" transform="translate(992.265625 0)"/>
     <use xlink:href="#DejaVuSans-b" transform="translate(1024.046875 0)"/>
     <use xlink:href="#DejaVuSans-24" transform="translate(1063.0625 0)"/>
     <use xlink:href="#DejaVuSans-2c" transform="translate(1131.46875 0)"/>
     <use xlink:href="#DejaVuSans-30" transform="translate(1160.96875 0)"/>
     <use xlink:href="#DejaVuSans-27" transform="translate(1247.25 0)"/>
     <use xlink:href="#DejaVuSans-c" transform="translate(1324.25 0)"/>
     <use xlink:href="#DejaVuSans-1d" transform="translate(1363.265625 0)"/>
     <use xlink:href="#DejaVuSans-3" transform="translate(1396.953125 0)"/>
     <use xlink:href="#DejaVuSans-57" transform="translate(1428.734375 0)"/>
     <use xlink:href="#DejaVuSans-4b" transform="translate(1467.9375 0)"/>
     <use xlink:href="#DejaVuSans-48" transform="translate(1531.3125 0)"/>
     <use xlink:href="#DejaVuSans-3" transform="translate(1592.84375 0)"/>
     <use xlink:href="#DejaVuSans-47" transform="translate(1624.625 0)"/>
     <use xlink:href="#DejaVuSans-55" transform="translate(1688.109375 0)"/>
     <use xlink:href="#DejaVuSans-44" transform="translate(1729.21875 0)"/>
     <use xlink:href="#DejaVuSans-4c" transform="translate(1790.5 0)"/>
     <use xlink:href="#DejaVuSans-51" transform="translate(1818.28125 0)"/>
     <use xlink:href="#DejaVuSans-3" transform="translate(1881.65625 0)"/>
     <use xlink:href="#DejaVuSans-45" transform="translate(1913.4375 0)"/>
     <use xlink:href="#DejaVuSans-58" transform="translate(1976.921875 0)"/>
     <use xlink:href="#DejaVuSans-47" transform="translate(2040.296875 0)"/>
     <use xlink:href="#DejaVuSans-4a" transform="translate(2103.78125 0)"/>
     <use xlink:href="#DejaVuSans-48" transform="translate(2167.265625 0)"/>
     <use xlink:href="#DejaVuSans-57" transform="translate(2228.796875 0)"/>
     <use xlink:href="#DejaVuSans-3" transform="translate(2268 0)"/>
     <use xlink:href="#DejaVuSans-55" transform="translate(2299.78125 0)"/>
     <use xlink:href="#DejaVuSans-4c" transform="translate(2340.890625 0)"/>
     <use xlink:href="#DejaVuSans-47" transform="translate(2368.671875 0)"/>
     <use xlink:href="#DejaVuSans-48" transform="translate(2432.15625 0)"/>
     <use xlink:href="#DejaVuSans-56" transform="translate(2493.6875 0)"/>
     <use xlink:href="#DejaVuSans-3" transform="translate(2545.78125 0)"/>
     <use xlink:href="#DejaVuSans-4d" transform="translate(2577.5625 0)"/>
     <use xlink:href="#DejaVuSans-58" transform="translate(2605.34375 0)"/>
     <use xlink:href="#DejaVuSans-56" transform="translate(2668.71875 0)"/>
     <use xlink:href="#DejaVuSans-57" transform="translate(2720.8125 0)"/>
     <use xlink:href="#DejaVuSans-3" transform="translate(2760.015625 0)"/>
     <use xlink:href="#DejaVuSans-58" transform="translate(2791.796875 0)"/>
     <use xlink:href="#DejaVuSans-51" transform="translate(2855.171875 0)"/>
     <use xlink:href="#DejaVuSans-47" transform="translate(2918.546875 0)"/>
     <use xlink:href="#DejaVuSans-48" transform="translate(2982.03125 0)"/>
     <use xlink:href="#DejaVuSans-55" transform="translate(3043.5625 0)"/>
     <use xlink:href="#DejaVuSans-3" transform="translate(3084.671875 0)"/>
     <use xlink:href="#DejaVuSans-46" transform="translate(3116.453125 0)"/>
     <use xlink:href="#DejaVuSans-44" transform="translate(3171.4375 0)"/>
     <use xlink:href="#DejaVuSans-53" transform="translate(3232.71875 0)"/>
     <use xlink:href="#DejaVuSans-44" transform="translate(3296.203125 0)"/>
     <use xlink:href="#DejaVuSans-46" transform="translate(3357.484375 0)"/>
     <use xlink:href="#DejaVuSans-4c" transform="translate(3412.46875 0)"/>
     <use xlink:href="#DejaVuSans-57" transform="translate(3440.25 0)"/>
     <use xlink:href="#DejaVuSans-5c" transform="translate(3479.453125 0)"/>
     <use xlink:href="#DejaVuSans-f" transform="translate(3538.640625 0)"/>
    </g>
    <!-- halving when WAL/checkpoint pressure rises and recovering when it clears -->
    <g transform="translate(111.5025 29.862363) scale(0.11 -0.11)">
     <defs>
      <path id="DejaVuSans-3a" d="M 213 4666 
L 850 4666 
L 1831 722 
L 2809 4666 
L 3519 4666 
L 4500 722 
L 5478 4666 
L 6119 4666 
L 4947 0 
L 4153 0 
L 3169 4050 
L 2175 0 
L 1381 0 
L 213 4666 
z
" transform="scale(0.015625)"/>
      <path id="DejaVuSans-2f" d="M 628 4666 
L 1259 4666 
L 1259 531 
L 3531 531 
L 3531 0 
L 628 0 
L 628 4666 
z
" transform="scale(0.015625)"/>
      <path id="DejaVuSans-12" d="M 1625 4666 
L 2156 4666 
L 531 -594 
L 0 -594 
L 1625 4666 
z
" transform="scale(0.015625)"/>
     </defs>
     <use xlink:href="#DejaVuSans-4b"/>
     <use xlink:href="#DejaVuSans-44" transform="translate(63.375 0)"/>
     <use xlink:href="#DejaVuSans-4f" transform="translate(124.65625 0)"/>
     <use xlink:href="#DejaVuSans-59" transform="translate(152.4375 0)"/>
     <use xlink:href="#DejaVuSans-4c" transform="translate(211.625 0)"/>
     <use xlink:href="#DejaVuSans-51" transform="translate(239.40625 0)"/>
     <use xlink:href="#DejaVuSans-4a" transform="translate(302.78125 0)"/>
     <use xlink:href="#DejaVuSans-3" transform="translate(366.265625 0)"/>
     <use xlink:href="#DejaVuSans-5a" transform="translate(398.046875 0)"/>
     <use xlink:href="#DejaVuSans-4b" transform="translate(479.828125 0)"/>
     <use xlink:href="#DejaVuSans-48" transform="translate(543.203125 0)"/>
     <use xlink:href="#DejaVuSans-51" transform="translate(604.734375 0)"/>
     <use xlink:href="#DejaVuSans-3" transform="translate(668.109375 0)"/>
     <use xlink:href="#DejaVuSans-3a" transform="translate(699.890625 0)"/>
     <use xlink:href="#DejaVuSans-24" transform="translate(793.296875 0)"/>
     <use xlink:href="#DejaVuSans-2f" transform="translate(861.703125 0)"/>
     <use xlink:href="#DejaVuSans-12" transform="translate(917.421875 0)"/>
     <use xlink:href="#DejaVuSans-46" transform="translate(951.109375 0)"/>
     <use xlink:href="#DejaVuSans-4b" transform="translate(1006.09375 0)"/>
     <use xlink:href="#DejaVuSans-48" transform="translate(1069.46875 0)"/>
     <use xlink:href="#DejaVuSans-46" transform="translate(1131 0)"/>
     <use xlink:href="#DejaVuSans-4e" transform="translate(1185.984375 0)"/>
     <use xlink:href="#DejaVuSans-53" transform="translate(1243.890625 0)"/>
     <use xlink:href="#DejaVuSans-52" transform="translate(1307.375 0)"/>
     <use xlink:href="#DejaVuSans-4c" transform="translate(1368.5625 0)"/>
     <use xlink:href="#DejaVuSans-51" transform="translate(1396.34375 0)"/>
     <use xlink:href="#DejaVuSans-57" transform="translate(1459.71875 0)"/>
     <use xlink:href="#DejaVuSans-3" transform="translate(1498.921875 0)"/>
     <use xlink:href="#DejaVuSans-53" transform="translate(1530.703125 0)"/>
     <use xlink:href="#DejaVuSans-55" transform="translate(1594.1875 0)"/>
     <use xlink:href="#DejaVuSans-48" transform="translate(1633.09375 0)"/>
     <use xlink:href="#DejaVuSans-56" transform="translate(1694.625 0)"/>
     <use xlink:href="#DejaVuSans-56" transform="translate(1746.71875 0)"/>
     <use xlink:href="#DejaVuSans-58" transform="translate(1798.8125 0)"/>
     <use xlink:href="#DejaVuSans-55" transform="translate(1862.1875 0)"/>
     <use xlink:href="#DejaVuSans-48" transform="translate(1901.09375 0)"/>
     <use xlink:href="#DejaVuSans-3" transform="translate(1962.625 0)"/>
     <use xlink:href="#DejaVuSans-55" transform="translate(1994.40625 0)"/>
     <use xlink:href="#DejaVuSans-4c" transform="translate(2035.515625 0)"/>
     <use xlink:href="#DejaVuSans-56" transform="translate(2063.296875 0)"/>
     <use xlink:href="#DejaVuSans-48" transform="translate(2115.390625 0)"/>
     <use xlink:href="#DejaVuSans-56" transform="translate(2176.921875 0)"/>
     <use xlink:href="#DejaVuSans-3" transform="translate(2229.015625 0)"/>
     <use xlink:href="#DejaVuSans-44" transform="translate(2260.796875 0)"/>
     <use xlink:href="#DejaVuSans-51" transform="translate(2322.078125 0)"/>
     <use xlink:href="#DejaVuSans-47" transform="translate(2385.453125 0)"/>
     <use xlink:href="#DejaVuSans-3" transform="translate(2448.9375 0)"/>
     <use xlink:href="#DejaVuSans-55" transform="translate(2480.71875 0)"/>
     <use xlink:href="#DejaVuSans-48" transform="translate(2519.625 0)"/>
     <use xlink:href="#DejaVuSans-46" transform="translate(2581.15625 0)"/>
     <use xlink:href="#DejaVuSans-52" transform="translate(2636.140625 0)"/>
     <use xlink:href="#DejaVuSans-59" transform="translate(2697.328125 0)"/>
     <use xlink:href="#DejaVuSans-48" transform="translate(2756.515625 0)"/>
     <use xlink:href="#DejaVuSans-55" transform="translate(2818.046875 0)"/>
     <use xlink:href="#DejaVuSans-4c" transform="translate(2859.15625 0)"/>
     <use xlink:href="#DejaVuSans-51" transform="translate(2886.9375 0)"/>
     <use xlink:href="#DejaVuSans-4a" transform="translate(2950.3125 0)"/>
     <use xlink:href="#DejaVuSans-3" transform="translate(3013.796875 0)"/>
     <use xlink:href="#DejaVuSans-5a" transform="translate(3045.578125 0)"/>
     <use xlink:href="#DejaVuSans-4b" transform="translate(3127.359375 0)"/>
     <use xlink:href="#DejaVuSans-48" transform="translate(3190.734375 0)"/>
     <use xlink:href="#DejaVuSans-51" transform="translate(3252.265625 0)"/>
     <use xlink:href="#DejaVuSans-3" transform="translate(3315.640625 0)"/>
     <use xlink:href="#DejaVuSans-4c" transform="translate(3347.421875 0)"/>
     <use xlink:href="#DejaVuSans-57" transform="translate(3375.203125 0)"/>
     <use xlink:href="#DejaVuSans-3" transform="translate(3414.40625 0)"/>
     <use xlink:href="#DejaVuSans-46" transform="translate(3446.1875 0)"/>
     <use xlink:href="#DejaVuSans-4f" transform="translate(3501.171875 0)"/>
     <use xlink:href="#DejaVuSans-48" transform="translate(3528.953125 0)"/>
     <use xlink:href="#DejaVuSans-44" transform="translate(3590.484375 0)"/>
     <use xlink:href="#DejaVuSans-55" transform="translate(3651.765625 0)"/>
     <use xlink:href="#DejaVuSans-56" transform="translate(3692.875 0)"/>
    </g>
   </g>
   <g id="legend_1">
    <g id="line2d_38">
     <path d="M 376.075781 268.158457 
L 386.075781 268.158457 
L 396.075781 268.158457 
" style="fill: none; stroke: #3ecf8e; stroke-width: 2; stroke-linecap: square"/>
     <g>
      <use xlink:href="#m2965a2625b" x="386.075781" y="268.158457" style="fill: #3ecf8e; stroke: #3ecf8e"/>
     </g>
    </g>
    <g id="text_21">
     <!-- drain budget (rows/tick) -->
     <g transform="translate(404.075781 271.658457) scale(0.1 -0.1)">
      <use xlink:href="#DejaVuSans-47"/>
      <use xlink:href="#DejaVuSans-55" transform="translate(63.484375 0)"/>
      <use xlink:href="#DejaVuSans-44" transform="translate(104.59375 0)"/>
      <use xlink:href="#DejaVuSans-4c" transform="translate(165.875 0)"/>
      <use xlink:href="#DejaVuSans-51" transform="translate(193.65625 0)"/>
      <use xlink:href="#DejaVuSans-3" transform="translate(257.03125 0)"/>
      <use xlink:href="#DejaVuSans-45" transform="translate(288.8125 0)"/>
      <use xlink:href="#DejaVuSans-58" transform="translate(352.296875 0)"/>
      <use xlink:href="#DejaVuSans-47" transform="translate(415.671875 0)"/>
      <use xlink:href="#DejaVuSans-4a" transform="translate(479.15625 0)"/>
      <use xlink:href="#DejaVuSans-48" transform="translate(542.640625 0)"/>
      <use xlink:href="#DejaVuSans-57" transform="translate(604.171875 0)"/>
      <use xlink:href="#DejaVuSans-3" transform="translate(643.375 0)"/>
      <use xlink:href="#DejaVuSans-b" transform="translate(675.15625 0)"/>
      <use xlink:href="#DejaVuSans-55" transform="translate(714.171875 0)"/>
      <use xlink:href="#DejaVuSans-52" transform="translate(753.078125 0)"/>
      <use xlink:href="#DejaVuSans-5a" transform="translate(814.265625 0)"/>
      <use xlink:href="#DejaVuSans-56" transform="translate(896.046875 0)"/>
      <use xlink:href="#DejaVuSans-12" transform="translate(948.140625 0)"/>
      <use xlink:href="#DejaVuSans-57" transform="translate(981.828125 0)"/>
      <use xlink:href="#DejaVuSans-4c" transform="translate(1021.03125 0)"/>
      <use xlink:href="#DejaVuSans-46" transform="translate(1048.8125 0)"/>
      <use xlink:href="#DejaVuSans-4e" transform="translate(1103.796875 0)"/>
      <use xlink:href="#DejaVuSans-c" transform="translate(1161.703125 0)"/>
     </g>
    </g>
    <g id="line2d_39">
     <path d="M 376.075781 283.159238 
L 386.075781 283.159238 
L 396.075781 283.159238 
" style="fill: none; stroke-dasharray: 4.44,1.92; stroke-dashoffset: 0; stroke: #9aa0a6; stroke-width: 1.2"/>
    </g>
    <g id="text_22">
     <!-- ceiling = drain_batch (150000) -->
     <g transform="translate(404.075781 286.659238) scale(0.1 -0.1)">
      <defs>
       <path id="DejaVuSans-20" d="M 678 2906 
L 4684 2906 
L 4684 2381 
L 678 2381 
L 678 2906 
z
M 678 1631 
L 4684 1631 
L 4684 1100 
L 678 1100 
L 678 1631 
z
" transform="scale(0.015625)"/>
       <path id="DejaVuSans-42" d="M 3263 -1063 
L 3263 -1509 
L -63 -1509 
L -63 -1063 
L 3263 -1063 
z
" transform="scale(0.015625)"/>
      </defs>
      <use xlink:href="#DejaVuSans-46"/>
      <use xlink:href="#DejaVuSans-48" transform="translate(54.984375 0)"/>
      <use xlink:href="#DejaVuSans-4c" transform="translate(116.515625 0)"/>
      <use xlink:href="#DejaVuSans-4f" transform="translate(144.296875 0)"/>
      <use xlink:href="#DejaVuSans-4c" transform="translate(172.078125 0)"/>
      <use xlink:href="#DejaVuSans-51" transform="translate(199.859375 0)"/>
      <use xlink:href="#DejaVuSans-4a" transform="translate(263.234375 0)"/>
      <use xlink:href="#DejaVuSans-3" transform="translate(326.71875 0)"/>
      <use xlink:href="#DejaVuSans-20" transform="translate(358.5 0)"/>
      <use xlink:href="#DejaVuSans-3" transform="translate(442.296875 0)"/>
      <use xlink:href="#DejaVuSans-47" transform="translate(474.078125 0)"/>
      <use xlink:href="#DejaVuSans-55" transform="translate(537.5625 0)"/>
      <use xlink:href="#DejaVuSans-44" transform="translate(578.671875 0)"/>
      <use xlink:href="#DejaVuSans-4c" transform="translate(639.953125 0)"/>
      <use xlink:href="#DejaVuSans-51" transform="translate(667.734375 0)"/>
      <use xlink:href="#DejaVuSans-42" transform="translate(731.109375 0)"/>
      <use xlink:href="#DejaVuSans-45" transform="translate(781.109375 0)"/>
      <use xlink:href="#DejaVuSans-44" transform="translate(844.59375 0)"/>
      <use xlink:href="#DejaVuSans-57" transform="translate(905.875 0)"/>
      <use xlink:href="#DejaVuSans-46" transform="translate(945.078125 0)"/>
      <use xlink:href="#DejaVuSans-4b" transform="translate(1000.0625 0)"/>
      <use xlink:href="#DejaVuSans-3" transform="translate(1063.4375 0)"/>
      <use xlink:href="#DejaVuSans-b" transform="translate(1095.21875 0)"/>
      <use xlink:href="#DejaVuSans-14" transform="translate(1134.234375 0)"/>
      <use xlink:href="#DejaVuSans-18" transform="translate(1197.859375 0)"/>
      <use xlink:href="#DejaVuSans-13" transform="translate(1261.484375 0)"/>
      <use xlink:href="#DejaVuSans-13" transform="translate(1325.109375 0)"/>
      <use xlink:href="#DejaVuSans-13" transform="translate(1388.734375 0)"/>
      <use xlink:href="#DejaVuSans-13" transform="translate(1452.359375 0)"/>
      <use xlink:href="#DejaVuSans-c" transform="translate(1515.984375 0)"/>
     </g>
    </g>
    <g id="line2d_40">
     <path d="M 376.075781 298.16002 
L 386.075781 298.16002 
L 396.075781 298.16002 
" style="fill: none; stroke-dasharray: 1.2,1.98; stroke-dashoffset: 0; stroke: #d2553b; stroke-width: 1.2"/>
    </g>
    <g id="text_23">
     <!-- floor = drain_batch/16 (9375) -->
     <g transform="translate(404.075781 301.66002) scale(0.1 -0.1)">
      <defs>
       <path id="DejaVuSans-13b0" d="M 1831 4863 
L 3431 4863 
L 3431 0 
L 2853 0 
L 2853 4384 
L 1825 4384 
Q 1516 4384 1395 4259 
Q 1275 4134 1275 3809 
L 1275 3500 
L 2222 3500 
L 2222 3053 
L 1275 3053 
L 1275 0 
L 697 0 
L 697 3053 
L 147 3053 
L 147 3500 
L 697 3500 
L 697 3744 
Q 697 4328 969 4595 
Q 1241 4863 1831 4863 
z
" transform="scale(0.015625)"/>
       <path id="DejaVuSans-1c" d="M 703 97 
L 703 672 
Q 941 559 1184 500 
Q 1428 441 1663 441 
Q 2288 441 2617 861 
Q 2947 1281 2994 2138 
Q 2813 1869 2534 1725 
Q 2256 1581 1919 1581 
Q 1219 1581 811 2004 
Q 403 2428 403 3163 
Q 403 3881 828 4315 
Q 1253 4750 1959 4750 
Q 2769 4750 3195 4129 
Q 3622 3509 3622 2328 
Q 3622 1225 3098 567 
Q 2575 -91 1691 -91 
Q 1453 -91 1209 -44 
Q 966 3 703 97 
z
M 1959 2075 
Q 2384 2075 2632 2365 
Q 2881 2656 2881 3163 
Q 2881 3666 2632 3958 
Q 2384 4250 1959 4250 
Q 1534 4250 1286 3958 
Q 1038 3666 1038 3163 
Q 1038 2656 1286 2365 
Q 1534 2075 1959 2075 
z
" transform="scale(0.015625)"/>
       <path id="DejaVuSans-1a" d="M 525 4666 
L 3525 4666 
L 3525 4397 
L 1831 0 
L 1172 0 
L 2766 4134 
L 525 4134 
L 525 4666 
z
" transform="scale(0.015625)"/>
      </defs>
      <use xlink:href="#DejaVuSans-13b0"/>
      <use xlink:href="#DejaVuSans-52" transform="translate(62.984375 0)"/>
      <use xlink:href="#DejaVuSans-52" transform="translate(124.171875 0)"/>
      <use xlink:href="#DejaVuSans-55" transform="translate(185.359375 0)"/>
      <use xlink:href="#DejaVuSans-3" transform="translate(226.46875 0)"/>
      <use xlink:href="#DejaVuSans-20" transform="translate(258.25 0)"/>
      <use xlink:href="#DejaVuSans-3" transform="translate(342.046875 0)"/>
      <use xlink:href="#DejaVuSans-47" transform="translate(373.828125 0)"/>
      <use xlink:href="#DejaVuSans-55" transform="translate(437.3125 0)"/>
      <use xlink:href="#DejaVuSans-44" transform="translate(478.421875 0)"/>
      <use xlink:href="#DejaVuSans-4c" transform="translate(539.703125 0)"/>
      <use xlink:href="#DejaVuSans-51" transform="translate(567.484375 0)"/>
      <use xlink:href="#DejaVuSans-42" transform="translate(630.859375 0)"/>
      <use xlink:href="#DejaVuSans-45" transform="translate(680.859375 0)"/>
      <use xlink:href="#DejaVuSans-44" transform="translate(744.34375 0)"/>
      <use xlink:href="#DejaVuSans-57" transform="translate(805.625 0)"/>
      <use xlink:href="#DejaVuSans-46" transform="translate(844.828125 0)"/>
      <use xlink:href="#DejaVuSans-4b" transform="translate(899.8125 0)"/>
      <use xlink:href="#DejaVuSans-12" transform="translate(963.1875 0)"/>
      <use xlink:href="#DejaVuSans-14" transform="translate(996.875 0)"/>
      <use xlink:href="#DejaVuSans-19" transform="translate(1060.5 0)"/>
      <use xlink:href="#DejaVuSans-3" transform="translate(1124.125 0)"/>
      <use xlink:href="#DejaVuSans-b" transform="translate(1155.90625 0)"/>
      <use xlink:href="#DejaVuSans-1c" transform="translate(1194.921875 0)"/>
      <use xlink:href="#DejaVuSans-16" transform="translate(1258.546875 0)"/>
      <use xlink:href="#DejaVuSans-1a" transform="translate(1322.171875 0)"/>
      <use xlink:href="#DejaVuSans-18" transform="translate(1385.796875 0)"/>
      <use xlink:href="#DejaVuSans-c" transform="translate(1449.421875 0)"/>
     </g>
    </g>
   </g>
  </g>
 </g>
 <defs>
  <clipPath id="p97ffdb8da4">
   <rect x="66.375781" y="35.862363" width="502.2" height="277.2"/>
  </clipPath>
 </defs>
</svg>
