<?xml version="1.0" encoding="utf-8" standalone="no"?>
<!DOCTYPE svg PUBLIC "-//W3C//DTD SVG 1.1//EN"
  "http://www.w3.org/Graphics/SVG/1.1/DTD/svg11.dtd">
<svg xmlns:xlink="http://www.w3.org/1999/xlink" width="572.44231pt" height="439.967145pt" viewBox="0 0 572.44231 439.967145" xmlns="http://www.w3.org/2000/svg" version="1.1">
 <metadata>
  <rdf:RDF xmlns:dc="http://purl.org/dc/elements/1.1/" xmlns:cc="http://creativecommons.org/ns#" xmlns:rdf="http://www.w3.org/1999/02/22-rdf-syntax-ns#">
   <cc:Work>
    <dc:type rdf:resource="http://purl.org/dc/dcmitype/StillImage"/>
    <dc:date>2026-06-22T14:48:00.313977</dc:date>
    <dc:format>image/svg+xml</dc:format>
    <dc:creator>
     <cc:Agent>
      <dc:title>Matplotlib v3.11.0, https://matplotlib.org/</dc:title>
     </cc:Agent>
    </dc:creator>
   </cc:Work>
  </rdf:RDF>
 </metadata>
 <defs>
  <style type="text/css">*{stroke-linejoin: round; stroke-linecap: butt}</style>
 </defs>
 <g id="figure_1">
  <g id="patch_1">
   <path d="M 0 439.967145 
L 572.44231 439.967145 
L 572.44231 0 
L 0 0 
L 0 439.967145 
z
" style="fill: none"/>
  </g>
  <g id="axes_1">
   <g id="patch_2">
    <path d="M 60.013281 257.622363 
L 562.213281 257.622363 
L 562.213281 35.862363 
L 60.013281 35.862363 
z
" style="fill: #ffffff"/>
   </g>
   <g id="patch_3">
    <path d="M 190.307697 257.622363 
L 271.033586 257.622363 
L 271.033586 35.862363 
L 190.307697 35.862363 
z
" clip-path="url(#pa3e6c6e9fc)" style="fill: #d2553b; opacity: 0.09; stroke: #d2553b; stroke-linejoin: miter"/>
   </g>
   <g id="matplotlib.axis_1">
    <g id="xtick_1">
     <g id="line2d_1">
      <path d="M 60.013281 257.622363 
L 60.013281 35.862363 
" clip-path="url(#pa3e6c6e9fc)" style="fill: none; stroke: #b0b0b0; stroke-opacity: 0.25; stroke-width: 0.8; stroke-linecap: square"/>
     </g>
     <g id="line2d_2">
      <defs>
       <path id="mf51466451f" d="M 0 0 
L 0 3.5 
" style="stroke: #000000; stroke-width: 0.8"/>
      </defs>
      <g>
       <use xlink:href="#mf51466451f" x="60.013281" y="257.622363" style="stroke: #000000; stroke-width: 0.8"/>
      </g>
     </g>
    </g>
    <g id="xtick_2">
     <g id="line2d_3">
      <path d="M 130.825464 257.622363 
L 130.825464 35.862363 
" clip-path="url(#pa3e6c6e9fc)" style="fill: none; stroke: #b0b0b0; stroke-opacity: 0.25; stroke-width: 0.8; stroke-linecap: square"/>
     </g>
     <g id="line2d_4">
      <g>
       <use xlink:href="#mf51466451f" x="130.825464" y="257.622363" style="stroke: #000000; stroke-width: 0.8"/>
      </g>
     </g>
    </g>
    <g id="xtick_3">
     <g id="line2d_5">
      <path d="M 201.637647 257.622363 
L 201.637647 35.862363 
" clip-path="url(#pa3e6c6e9fc)" style="fill: none; stroke: #b0b0b0; stroke-opacity: 0.25; stroke-width: 0.8; stroke-linecap: square"/>
     </g>
     <g id="line2d_6">
      <g>
       <use xlink:href="#mf51466451f" x="201.637647" y="257.622363" style="stroke: #000000; stroke-width: 0.8"/>
      </g>
     </g>
    </g>
    <g id="xtick_4">
     <g id="line2d_7">
      <path d="M 272.449829 257.622363 
L 272.449829 35.862363 
" clip-path="url(#pa3e6c6e9fc)" style="fill: none; stroke: #b0b0b0; stroke-opacity: 0.25; stroke-width: 0.8; stroke-linecap: square"/>
     </g>
     <g id="line2d_8">
      <g>
       <use xlink:href="#mf51466451f" x="272.449829" y="257.622363" style="stroke: #000000; stroke-width: 0.8"/>
      </g>
     </g>
    </g>
    <g id="xtick_5">
     <g id="line2d_9">
      <path d="M 343.262012 257.622363 
L 343.262012 35.862363 
" clip-path="url(#pa3e6c6e9fc)" style="fill: none; stroke: #b0b0b0; stroke-opacity: 0.25; stroke-width: 0.8; stroke-linecap: square"/>
     </g>
     <g id="line2d_10">
      <g>
       <use xlink:href="#mf51466451f" x="343.262012" y="257.622363" style="stroke: #000000; stroke-width: 0.8"/>
      </g>
     </g>
    </g>
    <g id="xtick_6">
     <g id="line2d_11">
      <path d="M 414.074195 257.622363 
L 414.074195 35.862363 
" clip-path="url(#pa3e6c6e9fc)" style="fill: none; stroke: #b0b0b0; stroke-opacity: 0.25; stroke-width: 0.8; stroke-linecap: square"/>
     </g>
     <g id="line2d_12">
      <g>
       <use xlink:href="#mf51466451f" x="414.074195" y="257.622363" style="stroke: #000000; stroke-width: 0.8"/>
      </g>
     </g>
    </g>
    <g id="xtick_7">
     <g id="line2d_13">
      <path d="M 484.886378 257.622363 
L 484.886378 35.862363 
" clip-path="url(#pa3e6c6e9fc)" style="fill: none; stroke: #b0b0b0; stroke-opacity: 0.25; stroke-width: 0.8; stroke-linecap: square"/>
     </g>
     <g id="line2d_14">
      <g>
       <use xlink:href="#mf51466451f" x="484.886378" y="257.622363" style="stroke: #000000; stroke-width: 0.8"/>
      </g>
     </g>
    </g>
    <g id="xtick_8">
     <g id="line2d_15">
      <path d="M 555.69856 257.622363 
L 555.69856 35.862363 
" clip-path="url(#pa3e6c6e9fc)" style="fill: none; stroke: #b0b0b0; stroke-opacity: 0.25; stroke-width: 0.8; stroke-linecap: square"/>
     </g>
     <g id="line2d_16">
      <g>
       <use xlink:href="#mf51466451f" x="555.69856" y="257.622363" style="stroke: #000000; stroke-width: 0.8"/>
      </g>
     </g>
    </g>
   </g>
   <g id="matplotlib.axis_2">
    <g id="ytick_1">
     <g id="line2d_17">
      <path d="M 60.013281 257.622363 
L 562.213281 257.622363 
" clip-path="url(#pa3e6c6e9fc)" style="fill: none; stroke: #b0b0b0; stroke-opacity: 0.25; stroke-width: 0.8; stroke-linecap: square"/>
     </g>
     <g id="line2d_18">
      <defs>
       <path id="me25bc3e8e2" d="M 0 0 
L -3.5 0 
" style="stroke: #000000; stroke-width: 0.8"/>
      </defs>
      <g>
       <use xlink:href="#me25bc3e8e2" x="60.013281" y="257.622363" style="stroke: #000000; stroke-width: 0.8"/>
      </g>
     </g>
     <g id="text_1">
      <!-- 0 -->
      <g transform="translate(46.650781 261.421191) scale(0.1 -0.1)">
       <defs>
        <path id="DejaVuSans-13" d="M 2034 4250 
Q 1547 4250 1301 3770 
Q 1056 3291 1056 2328 
Q 1056 1369 1301 889 
Q 1547 409 2034 409 
Q 2525 409 2770 889 
Q 3016 1369 3016 2328 
Q 3016 3291 2770 3770 
Q 2525 4250 2034 4250 
z
M 2034 4750 
Q 2819 4750 3233 4129 
Q 3647 3509 3647 2328 
Q 3647 1150 3233 529 
Q 2819 -91 2034 -91 
Q 1250 -91 836 529 
Q 422 1150 422 2328 
Q 422 3509 836 4129 
Q 1250 4750 2034 4750 
z
" transform="scale(0.015625)"/>
       </defs>
       <use xlink:href="#DejaVuSans-13"/>
      </g>
     </g>
    </g>
    <g id="ytick_2">
     <g id="line2d_19">
      <path d="M 60.013281 218.372806 
L 562.213281 218.372806 
" clip-path="url(#pa3e6c6e9fc)" style="fill: none; stroke: #b0b0b0; stroke-opacity: 0.25; stroke-width: 0.8; stroke-linecap: square"/>
     </g>
     <g id="line2d_20">
      <g>
       <use xlink:href="#me25bc3e8e2" x="60.013281" y="218.372806" style="stroke: #000000; stroke-width: 0.8"/>
      </g>
     </g>
     <g id="text_2">
      <!-- 2000 -->
      <g transform="translate(27.563281 222.171634) scale(0.1 -0.1)">
       <defs>
        <path id="DejaVuSans-15" d="M 1228 531 
L 3431 531 
L 3431 0 
L 469 0 
L 469 531 
Q 828 903 1448 1529 
Q 2069 2156 2228 2338 
Q 2531 2678 2651 2914 
Q 2772 3150 2772 3378 
Q 2772 3750 2511 3984 
Q 2250 4219 1831 4219 
Q 1534 4219 1204 4116 
Q 875 4013 500 3803 
L 500 4441 
Q 881 4594 1212 4672 
Q 1544 4750 1819 4750 
Q 2544 4750 2975 4387 
Q 3406 4025 3406 3419 
Q 3406 3131 3298 2873 
Q 3191 2616 2906 2266 
Q 2828 2175 2409 1742 
Q 1991 1309 1228 531 
z
" transform="scale(0.015625)"/>
       </defs>
       <use xlink:href="#DejaVuSans-15"/>
       <use xlink:href="#DejaVuSans-13" transform="translate(63.625 0)"/>
       <use xlink:href="#DejaVuSans-13" transform="translate(127.25 0)"/>
       <use xlink:href="#DejaVuSans-13" transform="translate(190.875 0)"/>
      </g>
     </g>
    </g>
    <g id="ytick_3">
     <g id="line2d_21">
      <path d="M 60.013281 179.123248 
L 562.213281 179.123248 
" clip-path="url(#pa3e6c6e9fc)" style="fill: none; stroke: #b0b0b0; stroke-opacity: 0.25; stroke-width: 0.8; stroke-linecap: square"/>
     </g>
     <g id="line2d_22">
      <g>
       <use xlink:href="#me25bc3e8e2" x="60.013281" y="179.123248" style="stroke: #000000; stroke-width: 0.8"/>
      </g>
     </g>
     <g id="text_3">
      <!-- 4000 -->
      <g transform="translate(27.563281 182.922076) scale(0.1 -0.1)">
       <defs>
        <path id="DejaVuSans-17" d="M 2419 4116 
L 825 1625 
L 2419 1625 
L 2419 4116 
z
M 2253 4666 
L 3047 4666 
L 3047 1625 
L 3713 1625 
L 3713 1100 
L 3047 1100 
L 3047 0 
L 2419 0 
L 2419 1100 
L 313 1100 
L 313 1709 
L 2253 4666 
z
" transform="scale(0.015625)"/>
       </defs>
       <use xlink:href="#DejaVuSans-17"/>
       <use xlink:href="#DejaVuSans-13" transform="translate(63.625 0)"/>
       <use xlink:href="#DejaVuSans-13" transform="translate(127.25 0)"/>
       <use xlink:href="#DejaVuSans-13" transform="translate(190.875 0)"/>
      </g>
     </g>
    </g>
    <g id="ytick_4">
     <g id="line2d_23">
      <path d="M 60.013281 139.873691 
L 562.213281 139.873691 
" clip-path="url(#pa3e6c6e9fc)" style="fill: none; stroke: #b0b0b0; stroke-opacity: 0.25; stroke-width: 0.8; stroke-linecap: square"/>
     </g>
     <g id="line2d_24">
      <g>
       <use xlink:href="#me25bc3e8e2" x="60.013281" y="139.873691" style="stroke: #000000; stroke-width: 0.8"/>
      </g>
     </g>
     <g id="text_4">
      <!-- 6000 -->
      <g transform="translate(27.563281 143.672519) scale(0.1 -0.1)">
       <defs>
        <path id="DejaVuSans-19" d="M 2113 2584 
Q 1688 2584 1439 2293 
Q 1191 2003 1191 1497 
Q 1191 994 1439 701 
Q 1688 409 2113 409 
Q 2538 409 2786 701 
Q 3034 994 3034 1497 
Q 3034 2003 2786 2293 
Q 2538 2584 2113 2584 
z
M 3366 4563 
L 3366 3988 
Q 3128 4100 2886 4159 
Q 2644 4219 2406 4219 
Q 1781 4219 1451 3797 
Q 1122 3375 1075 2522 
Q 1259 2794 1537 2939 
Q 1816 3084 2150 3084 
Q 2853 3084 3261 2657 
Q 3669 2231 3669 1497 
Q 3669 778 3244 343 
Q 2819 -91 2113 -91 
Q 1303 -91 875 529 
Q 447 1150 447 2328 
Q 447 3434 972 4092 
Q 1497 4750 2381 4750 
Q 2619 4750 2861 4703 
Q 3103 4656 3366 4563 
z
" transform="scale(0.015625)"/>
       </defs>
       <use xlink:href="#DejaVuSans-19"/>
       <use xlink:href="#DejaVuSans-13" transform="translate(63.625 0)"/>
       <use xlink:href="#DejaVuSans-13" transform="translate(127.25 0)"/>
       <use xlink:href="#DejaVuSans-13" transform="translate(190.875 0)"/>
      </g>
     </g>
    </g>
    <g id="ytick_5">
     <g id="line2d_25">
      <path d="M 60.013281 100.624133 
L 562.213281 100.624133 
" clip-path="url(#pa3e6c6e9fc)" style="fill: none; stroke: #b0b0b0; stroke-opacity: 0.25; stroke-width: 0.8; stroke-linecap: square"/>
     </g>
     <g id="line2d_26">
      <g>
       <use xlink:href="#me25bc3e8e2" x="60.013281" y="100.624133" style="stroke: #000000; stroke-width: 0.8"/>
      </g>
     </g>
     <g id="text_5">
      <!-- 8000 -->
      <g transform="translate(27.563281 104.422961) scale(0.1 -0.1)">
       <defs>
        <path id="DejaVuSans-1b" d="M 2034 2216 
Q 1584 2216 1326 1975 
Q 1069 1734 1069 1313 
Q 1069 891 1326 650 
Q 1584 409 2034 409 
Q 2484 409 2743 651 
Q 3003 894 3003 1313 
Q 3003 1734 2745 1975 
Q 2488 2216 2034 2216 
z
M 1403 2484 
Q 997 2584 770 2862 
Q 544 3141 544 3541 
Q 544 4100 942 4425 
Q 1341 4750 2034 4750 
Q 2731 4750 3128 4425 
Q 3525 4100 3525 3541 
Q 3525 3141 3298 2862 
Q 3072 2584 2669 2484 
Q 3125 2378 3379 2068 
Q 3634 1759 3634 1313 
Q 3634 634 3220 271 
Q 2806 -91 2034 -91 
Q 1263 -91 848 271 
Q 434 634 434 1313 
Q 434 1759 690 2068 
Q 947 2378 1403 2484 
z
M 1172 3481 
Q 1172 3119 1398 2916 
Q 1625 2713 2034 2713 
Q 2441 2713 2670 2916 
Q 2900 3119 2900 3481 
Q 2900 3844 2670 4047 
Q 2441 4250 2034 4250 
Q 1625 4250 1398 4047 
Q 1172 3844 1172 3481 
z
" transform="scale(0.015625)"/>
       </defs>
       <use xlink:href="#DejaVuSans-1b"/>
       <use xlink:href="#DejaVuSans-13" transform="translate(63.625 0)"/>
       <use xlink:href="#DejaVuSans-13" transform="translate(127.25 0)"/>
       <use xlink:href="#DejaVuSans-13" transform="translate(190.875 0)"/>
      </g>
     </g>
    </g>
    <g id="ytick_6">
     <g id="line2d_27">
      <path d="M 60.013281 61.374576 
L 562.213281 61.374576 
" clip-path="url(#pa3e6c6e9fc)" style="fill: none; stroke: #b0b0b0; stroke-opacity: 0.25; stroke-width: 0.8; stroke-linecap: square"/>
     </g>
     <g id="line2d_28">
      <g>
       <use xlink:href="#me25bc3e8e2" x="60.013281" y="61.374576" style="stroke: #000000; stroke-width: 0.8"/>
      </g>
     </g>
     <g id="text_6">
      <!-- 10000 -->
      <g transform="translate(21.200781 65.173404) scale(0.1 -0.1)">
       <defs>
        <path id="DejaVuSans-14" d="M 794 531 
L 1825 531 
L 1825 4091 
L 703 3866 
L 703 4441 
L 1819 4666 
L 2450 4666 
L 2450 531 
L 3481 531 
L 3481 0 
L 794 0 
L 794 531 
z
" transform="scale(0.015625)"/>
       </defs>
       <use xlink:href="#DejaVuSans-14"/>
       <use xlink:href="#DejaVuSans-13" transform="translate(63.625 0)"/>
       <use xlink:href="#DejaVuSans-13" transform="translate(127.25 0)"/>
       <use xlink:href="#DejaVuSans-13" transform="translate(190.875 0)"/>
       <use xlink:href="#DejaVuSans-13" transform="translate(254.5 0)"/>
      </g>
     </g>
    </g>
    <g id="text_7">
     <!-- drain budget (rows/tick) -->
     <g transform="translate(14.798438 206.778301) rotate(-90) scale(0.1 -0.1)">
      <defs>
       <path id="DejaVuSans-47" d="M 2906 2969 
L 2906 4863 
L 3481 4863 
L 3481 0 
L 2906 0 
L 2906 525 
Q 2725 213 2448 61 
Q 2172 -91 1784 -91 
Q 1150 -91 751 415 
Q 353 922 353 1747 
Q 353 2572 751 3078 
Q 1150 3584 1784 3584 
Q 2172 3584 2448 3432 
Q 2725 3281 2906 2969 
z
M 947 1747 
Q 947 1113 1208 752 
Q 1469 391 1925 391 
Q 2381 391 2643 752 
Q 2906 1113 2906 1747 
Q 2906 2381 2643 2742 
Q 2381 3103 1925 3103 
Q 1469 3103 1208 2742 
Q 947 2381 947 1747 
z
" transform="scale(0.015625)"/>
       <path id="DejaVuSans-55" d="M 2631 2963 
Q 2534 3019 2420 3045 
Q 2306 3072 2169 3072 
Q 1681 3072 1420 2755 
Q 1159 2438 1159 1844 
L 1159 0 
L 581 0 
L 581 3500 
L 1159 3500 
L 1159 2956 
Q 1341 3275 1631 3429 
Q 1922 3584 2338 3584 
Q 2397 3584 2469 3576 
Q 2541 3569 2628 3553 
L 2631 2963 
z
" transform="scale(0.015625)"/>
       <path id="DejaVuSans-44" d="M 2194 1759 
Q 1497 1759 1228 1600 
Q 959 1441 959 1056 
Q 959 750 1161 570 
Q 1363 391 1709 391 
Q 2188 391 2477 730 
Q 2766 1069 2766 1631 
L 2766 1759 
L 2194 1759 
z
M 3341 1997 
L 3341 0 
L 2766 0 
L 2766 531 
Q 2569 213 2275 61 
Q 1981 -91 1556 -91 
Q 1019 -91 701 211 
Q 384 513 384 1019 
Q 384 1609 779 1909 
Q 1175 2209 1959 2209 
L 2766 2209 
L 2766 2266 
Q 2766 2663 2505 2880 
Q 2244 3097 1772 3097 
Q 1472 3097 1187 3025 
Q 903 2953 641 2809 
L 641 3341 
Q 956 3463 1253 3523 
Q 1550 3584 1831 3584 
Q 2591 3584 2966 3190 
Q 3341 2797 3341 1997 
z
" transform="scale(0.015625)"/>
       <path id="DejaVuSans-4c" d="M 603 3500 
L 1178 3500 
L 1178 0 
L 603 0 
L 603 3500 
z
M 603 4863 
L 1178 4863 
L 1178 4134 
L 603 4134 
L 603 4863 
z
" transform="scale(0.015625)"/>
       <path id="DejaVuSans-51" d="M 3513 2113 
L 3513 0 
L 2938 0 
L 2938 2094 
Q 2938 2591 2744 2837 
Q 2550 3084 2163 3084 
Q 1697 3084 1428 2787 
Q 1159 2491 1159 1978 
L 1159 0 
L 581 0 
L 581 3500 
L 1159 3500 
L 1159 2956 
Q 1366 3272 1645 3428 
Q 1925 3584 2291 3584 
Q 2894 3584 3203 3211 
Q 3513 2838 3513 2113 
z
" transform="scale(0.015625)"/>
       <path id="DejaVuSans-3" transform="scale(0.015625)"/>
       <path id="DejaVuSans-45" d="M 3116 1747 
Q 3116 2381 2855 2742 
Q 2594 3103 2138 3103 
Q 1681 3103 1420 2742 
Q 1159 2381 1159 1747 
Q 1159 1113 1420 752 
Q 1681 391 2138 391 
Q 2594 391 2855 752 
Q 3116 1113 3116 1747 
z
M 1159 2969 
Q 1341 3281 1617 3432 
Q 1894 3584 2278 3584 
Q 2916 3584 3314 3078 
Q 3713 2572 3713 1747 
Q 3713 922 3314 415 
Q 2916 -91 2278 -91 
Q 1894 -91 1617 61 
Q 1341 213 1159 525 
L 1159 0 
L 581 0 
L 581 4863 
L 1159 4863 
L 1159 2969 
z
" transform="scale(0.015625)"/>
       <path id="DejaVuSans-58" d="M 544 1381 
L 544 3500 
L 1119 3500 
L 1119 1403 
Q 1119 906 1312 657 
Q 1506 409 1894 409 
Q 2359 409 2629 706 
Q 2900 1003 2900 1516 
L 2900 3500 
L 3475 3500 
L 3475 0 
L 2900 0 
L 2900 538 
Q 2691 219 2414 64 
Q 2138 -91 1772 -91 
Q 1169 -91 856 284 
Q 544 659 544 1381 
z
M 1991 3584 
L 1991 3584 
z
" transform="scale(0.015625)"/>
       <path id="DejaVuSans-4a" d="M 2906 1791 
Q 2906 2416 2648 2759 
Q 2391 3103 1925 3103 
Q 1463 3103 1205 2759 
Q 947 2416 947 1791 
Q 947 1169 1205 825 
Q 1463 481 1925 481 
Q 2391 481 2648 825 
Q 2906 1169 2906 1791 
z
M 3481 434 
Q 3481 -459 3084 -895 
Q 2688 -1331 1869 -1331 
Q 1566 -1331 1297 -1286 
Q 1028 -1241 775 -1147 
L 775 -588 
Q 1028 -725 1275 -790 
Q 1522 -856 1778 -856 
Q 2344 -856 2625 -561 
Q 2906 -266 2906 331 
L 2906 616 
Q 2728 306 2450 153 
Q 2172 0 1784 0 
Q 1141 0 747 490 
Q 353 981 353 1791 
Q 353 2603 747 3093 
Q 1141 3584 1784 3584 
Q 2172 3584 2450 3431 
Q 2728 3278 2906 2969 
L 2906 3500 
L 3481 3500 
L 3481 434 
z
" transform="scale(0.015625)"/>
       <path id="DejaVuSans-48" d="M 3597 1894 
L 3597 1613 
L 953 1613 
Q 991 1019 1311 708 
Q 1631 397 2203 397 
Q 2534 397 2845 478 
Q 3156 559 3463 722 
L 3463 178 
Q 3153 47 2828 -22 
Q 2503 -91 2169 -91 
Q 1331 -91 842 396 
Q 353 884 353 1716 
Q 353 2575 817 3079 
Q 1281 3584 2069 3584 
Q 2775 3584 3186 3129 
Q 3597 2675 3597 1894 
z
M 3022 2063 
Q 3016 2534 2758 2815 
Q 2500 3097 2075 3097 
Q 1594 3097 1305 2825 
Q 1016 2553 972 2059 
L 3022 2063 
z
" transform="scale(0.015625)"/>
       <path id="DejaVuSans-57" d="M 1172 4494 
L 1172 3500 
L 2356 3500 
L 2356 3053 
L 1172 3053 
L 1172 1153 
Q 1172 725 1289 603 
Q 1406 481 1766 481 
L 2356 481 
L 2356 0 
L 1766 0 
Q 1100 0 847 248 
Q 594 497 594 1153 
L 594 3053 
L 172 3053 
L 172 3500 
L 594 3500 
L 594 4494 
L 1172 4494 
z
" transform="scale(0.015625)"/>
       <path id="DejaVuSans-b" d="M 1984 4856 
Q 1566 4138 1362 3434 
Q 1159 2731 1159 2009 
Q 1159 1288 1364 580 
Q 1569 -128 1984 -844 
L 1484 -844 
Q 1016 -109 783 600 
Q 550 1309 550 2009 
Q 550 2706 781 3412 
Q 1013 4119 1484 4856 
L 1984 4856 
z
" transform="scale(0.015625)"/>
       <path id="DejaVuSans-52" d="M 1959 3097 
Q 1497 3097 1228 2736 
Q 959 2375 959 1747 
Q 959 1119 1226 758 
Q 1494 397 1959 397 
Q 2419 397 2687 759 
Q 2956 1122 2956 1747 
Q 2956 2369 2687 2733 
Q 2419 3097 1959 3097 
z
M 1959 3584 
Q 2709 3584 3137 3096 
Q 3566 2609 3566 1747 
Q 3566 888 3137 398 
Q 2709 -91 1959 -91 
Q 1206 -91 779 398 
Q 353 888 353 1747 
Q 353 2609 779 3096 
Q 1206 3584 1959 3584 
z
" transform="scale(0.015625)"/>
       <path id="DejaVuSans-5a" d="M 269 3500 
L 844 3500 
L 1563 769 
L 2278 3500 
L 2956 3500 
L 3675 769 
L 4391 3500 
L 4966 3500 
L 4050 0 
L 3372 0 
L 2619 2869 
L 1863 0 
L 1184 0 
L 269 3500 
z
" transform="scale(0.015625)"/>
       <path id="DejaVuSans-56" d="M 2834 3397 
L 2834 2853 
Q 2591 2978 2328 3040 
Q 2066 3103 1784 3103 
Q 1356 3103 1142 2972 
Q 928 2841 928 2578 
Q 928 2378 1081 2264 
Q 1234 2150 1697 2047 
L 1894 2003 
Q 2506 1872 2764 1633 
Q 3022 1394 3022 966 
Q 3022 478 2636 193 
Q 2250 -91 1575 -91 
Q 1294 -91 989 -36 
Q 684 19 347 128 
L 347 722 
Q 666 556 975 473 
Q 1284 391 1588 391 
Q 1994 391 2212 530 
Q 2431 669 2431 922 
Q 2431 1156 2273 1281 
Q 2116 1406 1581 1522 
L 1381 1569 
Q 847 1681 609 1914 
Q 372 2147 372 2553 
Q 372 3047 722 3315 
Q 1072 3584 1716 3584 
Q 2034 3584 2315 3537 
Q 2597 3491 2834 3397 
z
" transform="scale(0.015625)"/>
       <path id="DejaVuSans-12" d="M 1625 4666 
L 2156 4666 
L 531 -594 
L 0 -594 
L 1625 4666 
z
" transform="scale(0.015625)"/>
       <path id="DejaVuSans-46" d="M 3122 3366 
L 3122 2828 
Q 2878 2963 2633 3030 
Q 2388 3097 2138 3097 
Q 1578 3097 1268 2742 
Q 959 2388 959 1747 
Q 959 1106 1268 751 
Q 1578 397 2138 397 
Q 2388 397 2633 464 
Q 2878 531 3122 666 
L 3122 134 
Q 2881 22 2623 -34 
Q 2366 -91 2075 -91 
Q 1284 -91 818 406 
Q 353 903 353 1747 
Q 353 2603 823 3093 
Q 1294 3584 2113 3584 
Q 2378 3584 2631 3529 
Q 2884 3475 3122 3366 
z
" transform="scale(0.015625)"/>
       <path id="DejaVuSans-4e" d="M 581 4863 
L 1159 4863 
L 1159 1991 
L 2875 3500 
L 3609 3500 
L 1753 1863 
L 3688 0 
L 2938 0 
L 1159 1709 
L 1159 0 
L 581 0 
L 581 4863 
z
" transform="scale(0.015625)"/>
       <path id="DejaVuSans-c" d="M 513 4856 
L 1013 4856 
Q 1481 4119 1714 3412 
Q 1947 2706 1947 2009 
Q 1947 1309 1714 600 
Q 1481 -109 1013 -844 
L 513 -844 
Q 928 -128 1133 580 
Q 1338 1288 1338 2009 
Q 1338 2731 1133 3434 
Q 928 4138 513 4856 
z
" transform="scale(0.015625)"/>
      </defs>
      <use xlink:href="#DejaVuSans-47"/>
      <use xlink:href="#DejaVuSans-55" transform="translate(63.484375 0)"/>
      <use xlink:href="#DejaVuSans-44" transform="translate(104.59375 0)"/>
      <use xlink:href="#DejaVuSans-4c" transform="translate(165.875 0)"/>
      <use xlink:href="#DejaVuSans-51" transform="translate(193.65625 0)"/>
      <use xlink:href="#DejaVuSans-3" transform="translate(257.03125 0)"/>
      <use xlink:href="#DejaVuSans-45" transform="translate(288.8125 0)"/>
      <use xlink:href="#DejaVuSans-58" transform="translate(352.296875 0)"/>
      <use xlink:href="#DejaVuSans-47" transform="translate(415.671875 0)"/>
      <use xlink:href="#DejaVuSans-4a" transform="translate(479.15625 0)"/>
      <use xlink:href="#DejaVuSans-48" transform="translate(542.640625 0)"/>
      <use xlink:href="#DejaVuSans-57" transform="translate(604.171875 0)"/>
      <use xlink:href="#DejaVuSans-3" transform="translate(643.375 0)"/>
      <use xlink:href="#DejaVuSans-b" transform="translate(675.15625 0)"/>
      <use xlink:href="#DejaVuSans-55" transform="translate(714.171875 0)"/>
      <use xlink:href="#DejaVuSans-52" transform="translate(753.078125 0)"/>
      <use xlink:href="#DejaVuSans-5a" transform="translate(814.265625 0)"/>
      <use xlink:href="#DejaVuSans-56" transform="translate(896.046875 0)"/>
      <use xlink:href="#DejaVuSans-12" transform="translate(948.140625 0)"/>
      <use xlink:href="#DejaVuSans-57" transform="translate(981.828125 0)"/>
      <use xlink:href="#DejaVuSans-4c" transform="translate(1021.03125 0)"/>
      <use xlink:href="#DejaVuSans-46" transform="translate(1048.8125 0)"/>
      <use xlink:href="#DejaVuSans-4e" transform="translate(1103.796875 0)"/>
      <use xlink:href="#DejaVuSans-c" transform="translate(1161.703125 0)"/>
     </g>
    </g>
   </g>
   <g id="line2d_29">
    <path d="M 68.510743 61.374576 
L 77.008205 61.374576 
L 84.089423 61.374576 
L 92.586885 61.374576 
L 101.084347 61.374576 
L 108.165566 61.374576 
L 116.663027 61.374576 
L 125.160489 61.374576 
L 133.657951 61.374576 
L 140.73917 61.374576 
L 149.236632 61.374576 
L 157.734093 61.374576 
L 164.815312 61.374576 
L 173.312774 61.374576 
L 181.810236 61.374576 
L 190.307697 61.374576 
L 198.805159 61.374576 
L 207.302621 159.498469 
L 214.38384 196.29493 
L 222.881302 147.232983 
L 231.378763 122.702009 
L 238.459982 73.640062 
L 246.957444 61.374576 
L 255.454906 61.374576 
L 263.952368 61.374576 
L 271.033586 159.498469 
L 279.531048 184.029443 
L 288.02851 134.967496 
L 295.109728 85.905549 
L 303.60719 61.374576 
L 312.104652 61.374576 
L 320.602114 61.374576 
L 327.683332 61.374576 
L 336.180794 61.374576 
L 344.678256 61.374576 
L 351.759474 61.374576 
L 360.256936 61.374576 
L 368.754398 61.374576 
L 377.25186 61.374576 
L 384.333078 61.374576 
L 392.83054 61.374576 
L 401.328002 61.374576 
L 408.40922 61.374576 
L 416.906682 159.498469 
L 425.404144 196.29493 
L 432.485362 147.232983 
L 440.982824 122.702009 
L 449.480286 217.764438 
L 457.977748 193.233464 
L 465.058967 144.171517 
L 473.556428 95.10957 
L 482.05389 61.374576 
L 489.135109 61.374576 
L 497.632571 61.374576 
L 506.130033 61.374576 
L 513.211251 61.374576 
L 521.708713 61.374576 
L 530.206175 61.374576 
L 538.703637 61.374576 
" clip-path="url(#pa3e6c6e9fc)" style="fill: none; stroke: #3ecf8e; stroke-width: 2.2; stroke-linecap: square"/>
    <defs>
     <path id="mb78383038e" d="M 0 1.75 
C 0.464105 1.75 0.909265 1.565609 1.237437 1.237437 
C 1.565609 0.909265 1.75 0.464105 1.75 0 
C 1.75 -0.464105 1.565609 -0.909265 1.237437 -1.237437 
C 0.909265 -1.565609 0.464105 -1.75 0 -1.75 
C -0.464105 -1.75 -0.909265 -1.565609 -1.237437 -1.237437 
C -1.565609 -0.909265 -1.75 -0.464105 -1.75 0 
C -1.75 0.464105 -1.565609 0.909265 -1.237437 1.237437 
C -0.909265 1.565609 -0.464105 1.75 0 1.75 
z
" style="stroke: #3ecf8e"/>
    </defs>
    <g clip-path="url(#pa3e6c6e9fc)">
     <use xlink:href="#mb78383038e" x="68.510743" y="61.374576" style="fill: #3ecf8e; stroke: #3ecf8e"/>
     <use xlink:href="#mb78383038e" x="77.008205" y="61.374576" style="fill: #3ecf8e; stroke: #3ecf8e"/>
     <use xlink:href="#mb78383038e" x="84.089423" y="61.374576" style="fill: #3ecf8e; stroke: #3ecf8e"/>
     <use xlink:href="#mb78383038e" x="92.586885" y="61.374576" style="fill: #3ecf8e; stroke: #3ecf8e"/>
     <use xlink:href="#mb78383038e" x="101.084347" y="61.374576" style="fill: #3ecf8e; stroke: #3ecf8e"/>
     <use xlink:href="#mb78383038e" x="108.165566" y="61.374576" style="fill: #3ecf8e; stroke: #3ecf8e"/>
     <use xlink:href="#mb78383038e" x="116.663027" y="61.374576" style="fill: #3ecf8e; stroke: #3ecf8e"/>
     <use xlink:href="#mb78383038e" x="125.160489" y="61.374576" style="fill: #3ecf8e; stroke: #3ecf8e"/>
     <use xlink:href="#mb78383038e" x="133.657951" y="61.374576" style="fill: #3ecf8e; stroke: #3ecf8e"/>
     <use xlink:href="#mb78383038e" x="140.73917" y="61.374576" style="fill: #3ecf8e; stroke: #3ecf8e"/>
     <use xlink:href="#mb78383038e" x="149.236632" y="61.374576" style="fill: #3ecf8e; stroke: #3ecf8e"/>
     <use xlink:href="#mb78383038e" x="157.734093" y="61.374576" style="fill: #3ecf8e; stroke: #3ecf8e"/>
     <use xlink:href="#mb78383038e" x="164.815312" y="61.374576" style="fill: #3ecf8e; stroke: #3ecf8e"/>
     <use xlink:href="#mb78383038e" x="173.312774" y="61.374576" style="fill: #3ecf8e; stroke: #3ecf8e"/>
     <use xlink:href="#mb78383038e" x="181.810236" y="61.374576" style="fill: #3ecf8e; stroke: #3ecf8e"/>
     <use xlink:href="#mb78383038e" x="190.307697" y="61.374576" style="fill: #3ecf8e; stroke: #3ecf8e"/>
     <use xlink:href="#mb78383038e" x="198.805159" y="61.374576" style="fill: #3ecf8e; stroke: #3ecf8e"/>
     <use xlink:href="#mb78383038e" x="207.302621" y="159.498469" style="fill: #3ecf8e; stroke: #3ecf8e"/>
     <use xlink:href="#mb78383038e" x="214.38384" y="196.29493" style="fill: #3ecf8e; stroke: #3ecf8e"/>
     <use xlink:href="#mb78383038e" x="222.881302" y="147.232983" style="fill: #3ecf8e; stroke: #3ecf8e"/>
     <use xlink:href="#mb78383038e" x="231.378763" y="122.702009" style="fill: #3ecf8e; stroke: #3ecf8e"/>
     <use xlink:href="#mb78383038e" x="238.459982" y="73.640062" style="fill: #3ecf8e; stroke: #3ecf8e"/>
     <use xlink:href="#mb78383038e" x="246.957444" y="61.374576" style="fill: #3ecf8e; stroke: #3ecf8e"/>
     <use xlink:href="#mb78383038e" x="255.454906" y="61.374576" style="fill: #3ecf8e; stroke: #3ecf8e"/>
     <use xlink:href="#mb78383038e" x="263.952368" y="61.374576" style="fill: #3ecf8e; stroke: #3ecf8e"/>
     <use xlink:href="#mb78383038e" x="271.033586" y="159.498469" style="fill: #3ecf8e; stroke: #3ecf8e"/>
     <use xlink:href="#mb78383038e" x="279.531048" y="184.029443" style="fill: #3ecf8e; stroke: #3ecf8e"/>
     <use xlink:href="#mb78383038e" x="288.02851" y="134.967496" style="fill: #3ecf8e; stroke: #3ecf8e"/>
     <use xlink:href="#mb78383038e" x="295.109728" y="85.905549" style="fill: #3ecf8e; stroke: #3ecf8e"/>
     <use xlink:href="#mb78383038e" x="303.60719" y="61.374576" style="fill: #3ecf8e; stroke: #3ecf8e"/>
     <use xlink:href="#mb78383038e" x="312.104652" y="61.374576" style="fill: #3ecf8e; stroke: #3ecf8e"/>
     <use xlink:href="#mb78383038e" x="320.602114" y="61.374576" style="fill: #3ecf8e; stroke: #3ecf8e"/>
     <use xlink:href="#mb78383038e" x="327.683332" y="61.374576" style="fill: #3ecf8e; stroke: #3ecf8e"/>
     <use xlink:href="#mb78383038e" x="336.180794" y="61.374576" style="fill: #3ecf8e; stroke: #3ecf8e"/>
     <use xlink:href="#mb78383038e" x="344.678256" y="61.374576" style="fill: #3ecf8e; stroke: #3ecf8e"/>
     <use xlink:href="#mb78383038e" x="351.759474" y="61.374576" style="fill: #3ecf8e; stroke: #3ecf8e"/>
     <use xlink:href="#mb78383038e" x="360.256936" y="61.374576" style="fill: #3ecf8e; stroke: #3ecf8e"/>
     <use xlink:href="#mb78383038e" x="368.754398" y="61.374576" style="fill: #3ecf8e; stroke: #3ecf8e"/>
     <use xlink:href="#mb78383038e" x="377.25186" y="61.374576" style="fill: #3ecf8e; stroke: #3ecf8e"/>
     <use xlink:href="#mb78383038e" x="384.333078" y="61.374576" style="fill: #3ecf8e; stroke: #3ecf8e"/>
     <use xlink:href="#mb78383038e" x="392.83054" y="61.374576" style="fill: #3ecf8e; stroke: #3ecf8e"/>
     <use xlink:href="#mb78383038e" x="401.328002" y="61.374576" style="fill: #3ecf8e; stroke: #3ecf8e"/>
     <use xlink:href="#mb78383038e" x="408.40922" y="61.374576" style="fill: #3ecf8e; stroke: #3ecf8e"/>
     <use xlink:href="#mb78383038e" x="416.906682" y="159.498469" style="fill: #3ecf8e; stroke: #3ecf8e"/>
     <use xlink:href="#mb78383038e" x="425.404144" y="196.29493" style="fill: #3ecf8e; stroke: #3ecf8e"/>
     <use xlink:href="#mb78383038e" x="432.485362" y="147.232983" style="fill: #3ecf8e; stroke: #3ecf8e"/>
     <use xlink:href="#mb78383038e" x="440.982824" y="122.702009" style="fill: #3ecf8e; stroke: #3ecf8e"/>
     <use xlink:href="#mb78383038e" x="449.480286" y="217.764438" style="fill: #3ecf8e; stroke: #3ecf8e"/>
     <use xlink:href="#mb78383038e" x="457.977748" y="193.233464" style="fill: #3ecf8e; stroke: #3ecf8e"/>
     <use xlink:href="#mb78383038e" x="465.058967" y="144.171517" style="fill: #3ecf8e; stroke: #3ecf8e"/>
     <use xlink:href="#mb78383038e" x="473.556428" y="95.10957" style="fill: #3ecf8e; stroke: #3ecf8e"/>
     <use xlink:href="#mb78383038e" x="482.05389" y="61.374576" style="fill: #3ecf8e; stroke: #3ecf8e"/>
     <use xlink:href="#mb78383038e" x="489.135109" y="61.374576" style="fill: #3ecf8e; stroke: #3ecf8e"/>
     <use xlink:href="#mb78383038e" x="497.632571" y="61.374576" style="fill: #3ecf8e; stroke: #3ecf8e"/>
     <use xlink:href="#mb78383038e" x="506.130033" y="61.374576" style="fill: #3ecf8e; stroke: #3ecf8e"/>
     <use xlink:href="#mb78383038e" x="513.211251" y="61.374576" style="fill: #3ecf8e; stroke: #3ecf8e"/>
     <use xlink:href="#mb78383038e" x="521.708713" y="61.374576" style="fill: #3ecf8e; stroke: #3ecf8e"/>
     <use xlink:href="#mb78383038e" x="530.206175" y="61.374576" style="fill: #3ecf8e; stroke: #3ecf8e"/>
     <use xlink:href="#mb78383038e" x="538.703637" y="61.374576" style="fill: #3ecf8e; stroke: #3ecf8e"/>
    </g>
   </g>
   <g id="line2d_30">
    <path d="M 60.013281 61.374576 
L 562.213281 61.374576 
" clip-path="url(#pa3e6c6e9fc)" style="fill: none; stroke-dasharray: 3.7,1.6; stroke-dashoffset: 0; stroke: #9aa0a6"/>
   </g>
   <g id="patch_4">
    <path d="M 60.013281 257.622363 
L 60.013281 35.862363 
" style="fill: none; stroke: #000000; stroke-width: 0.8; stroke-linejoin: miter; stroke-linecap: square"/>
   </g>
   <g id="patch_5">
    <path d="M 562.213281 257.622363 
L 562.213281 35.862363 
" style="fill: none; stroke: #000000; stroke-width: 0.8; stroke-linejoin: miter; stroke-linecap: square"/>
   </g>
   <g id="patch_6">
    <path d="M 60.013281 257.622363 
L 562.213281 257.622363 
" style="fill: none; stroke: #000000; stroke-width: 0.8; stroke-linejoin: miter; stroke-linecap: square"/>
   </g>
   <g id="patch_7">
    <path d="M 60.013281 35.862363 
L 562.213281 35.862363 
" style="fill: none; stroke: #000000; stroke-width: 0.8; stroke-linejoin: miter; stroke-linecap: square"/>
   </g>
   <g id="text_8">
    <!-- write surge -->
    <g style="fill: #d2553b" transform="translate(202.519079 51.12232) scale(0.1 -0.1)">
     <use xlink:href="#DejaVuSans-5a"/>
     <use xlink:href="#DejaVuSans-55" transform="translate(81.78125 0)"/>
     <use xlink:href="#DejaVuSans-4c" transform="translate(122.890625 0)"/>
     <use xlink:href="#DejaVuSans-57" transform="translate(150.671875 0)"/>
     <use xlink:href="#DejaVuSans-48" transform="translate(189.875 0)"/>
     <use xlink:href="#DejaVuSans-3" transform="translate(251.40625 0)"/>
     <use xlink:href="#DejaVuSans-56" transform="translate(283.1875 0)"/>
     <use xlink:href="#DejaVuSans-58" transform="translate(335.28125 0)"/>
     <use xlink:href="#DejaVuSans-55" transform="translate(398.65625 0)"/>
     <use xlink:href="#DejaVuSans-4a" transform="translate(438.015625 0)"/>
     <use xlink:href="#DejaVuSans-48" transform="translate(501.5 0)"/>
    </g>
   </g>
   <g id="text_9">
    <!-- ambient backoffs: -->
    <g style="fill: #d2553b" transform="translate(190.359782 164.395832) scale(0.09 -0.09)">
     <defs>
      <path id="DejaVuSans-50" d="M 3328 2828 
Q 3544 3216 3844 3400 
Q 4144 3584 4550 3584 
Q 5097 3584 5394 3201 
Q 5691 2819 5691 2113 
L 5691 0 
L 5113 0 
L 5113 2094 
Q 5113 2597 4934 2840 
Q 4756 3084 4391 3084 
Q 3944 3084 3684 2787 
Q 3425 2491 3425 1978 
L 3425 0 
L 2847 0 
L 2847 2094 
Q 2847 2600 2669 2842 
Q 2491 3084 2119 3084 
Q 1678 3084 1418 2786 
Q 1159 2488 1159 1978 
L 1159 0 
L 581 0 
L 581 3500 
L 1159 3500 
L 1159 2956 
Q 1356 3278 1631 3431 
Q 1906 3584 2284 3584 
Q 2666 3584 2933 3390 
Q 3200 3197 3328 2828 
z
" transform="scale(0.015625)"/>
      <path id="DejaVuSans-13ae" d="M 4531 4863 
L 4531 4384 
L 3981 4384 
Q 3672 4384 3551 4259 
Q 3431 4134 3431 3809 
L 3431 3500 
L 4378 3500 
L 4378 3053 
L 3431 3053 
L 3431 0 
L 2853 0 
L 2853 3053 
L 1275 3053 
L 1275 0 
L 697 0 
L 697 3053 
L 147 3053 
L 147 3500 
L 697 3500 
L 697 3744 
Q 697 4328 969 4595 
Q 1241 4863 1831 4863 
L 2375 4863 
L 2375 4384 
L 1825 4384 
Q 1516 4384 1394 4259 
Q 1275 4134 1275 3809 
L 1275 3500 
L 2853 3500 
L 2853 3744 
Q 2853 4328 3125 4595 
Q 3397 4863 3988 4863 
L 4531 4863 
z
" transform="scale(0.015625)"/>
      <path id="DejaVuSans-1d" d="M 750 794 
L 1409 794 
L 1409 0 
L 750 0 
L 750 794 
z
M 750 3309 
L 1409 3309 
L 1409 2516 
L 750 2516 
L 750 3309 
z
" transform="scale(0.015625)"/>
     </defs>
     <use xlink:href="#DejaVuSans-44"/>
     <use xlink:href="#DejaVuSans-50" transform="translate(61.28125 0)"/>
     <use xlink:href="#DejaVuSans-45" transform="translate(158.6875 0)"/>
     <use xlink:href="#DejaVuSans-4c" transform="translate(222.171875 0)"/>
     <use xlink:href="#DejaVuSans-48" transform="translate(249.953125 0)"/>
     <use xlink:href="#DejaVuSans-51" transform="translate(311.484375 0)"/>
     <use xlink:href="#DejaVuSans-57" transform="translate(374.859375 0)"/>
     <use xlink:href="#DejaVuSans-3" transform="translate(414.0625 0)"/>
     <use xlink:href="#DejaVuSans-45" transform="translate(445.84375 0)"/>
     <use xlink:href="#DejaVuSans-44" transform="translate(509.328125 0)"/>
     <use xlink:href="#DejaVuSans-46" transform="translate(570.609375 0)"/>
     <use xlink:href="#DejaVuSans-4e" transform="translate(625.59375 0)"/>
     <use xlink:href="#DejaVuSans-52" transform="translate(679.9375 0)"/>
     <use xlink:href="#DejaVuSans-13ae" transform="translate(741.125 0)"/>
     <use xlink:href="#DejaVuSans-56" transform="translate(810.015625 0)"/>
     <use xlink:href="#DejaVuSans-1d" transform="translate(862.109375 0)"/>
    </g>
    <!-- yield to the surge -->
    <g style="fill: #d2553b" transform="translate(191.095251 175.198292) scale(0.09 -0.09)">
     <defs>
      <path id="DejaVuSans-5c" d="M 2059 -325 
Q 1816 -950 1584 -1140 
Q 1353 -1331 966 -1331 
L 506 -1331 
L 506 -850 
L 844 -850 
Q 1081 -850 1212 -737 
Q 1344 -625 1503 -206 
L 1606 56 
L 191 3500 
L 800 3500 
L 1894 763 
L 2988 3500 
L 3597 3500 
L 2059 -325 
z
" transform="scale(0.015625)"/>
      <path id="DejaVuSans-4f" d="M 603 4863 
L 1178 4863 
L 1178 0 
L 603 0 
L 603 4863 
z
" transform="scale(0.015625)"/>
      <path id="DejaVuSans-4b" d="M 3513 2113 
L 3513 0 
L 2938 0 
L 2938 2094 
Q 2938 2591 2744 2837 
Q 2550 3084 2163 3084 
Q 1697 3084 1428 2787 
Q 1159 2491 1159 1978 
L 1159 0 
L 581 0 
L 581 4863 
L 1159 4863 
L 1159 2956 
Q 1366 3272 1645 3428 
Q 1925 3584 2291 3584 
Q 2894 3584 3203 3211 
Q 3513 2838 3513 2113 
z
" transform="scale(0.015625)"/>
     </defs>
     <use xlink:href="#DejaVuSans-5c"/>
     <use xlink:href="#DejaVuSans-4c" transform="translate(59.1875 0)"/>
     <use xlink:href="#DejaVuSans-48" transform="translate(86.96875 0)"/>
     <use xlink:href="#DejaVuSans-4f" transform="translate(148.5 0)"/>
     <use xlink:href="#DejaVuSans-47" transform="translate(176.28125 0)"/>
     <use xlink:href="#DejaVuSans-3" transform="translate(239.765625 0)"/>
     <use xlink:href="#DejaVuSans-57" transform="translate(271.546875 0)"/>
     <use xlink:href="#DejaVuSans-52" transform="translate(310.75 0)"/>
     <use xlink:href="#DejaVuSans-3" transform="translate(371.9375 0)"/>
     <use xlink:href="#DejaVuSans-57" transform="translate(403.71875 0)"/>
     <use xlink:href="#DejaVuSans-4b" transform="translate(442.921875 0)"/>
     <use xlink:href="#DejaVuSans-48" transform="translate(506.296875 0)"/>
     <use xlink:href="#DejaVuSans-3" transform="translate(567.828125 0)"/>
     <use xlink:href="#DejaVuSans-56" transform="translate(599.609375 0)"/>
     <use xlink:href="#DejaVuSans-58" transform="translate(651.703125 0)"/>
     <use xlink:href="#DejaVuSans-55" transform="translate(715.078125 0)"/>
     <use xlink:href="#DejaVuSans-4a" transform="translate(754.4375 0)"/>
     <use xlink:href="#DejaVuSans-48" transform="translate(817.921875 0)"/>
    </g>
   </g>
   <g id="patch_8">
    <path d="M 461.277212 123.089117 
Q 439.618007 158.105611 418.546939 192.171264 
" style="fill: none; stroke: #b06000; stroke-linecap: round"/>
    <path d="M 421.971521 190.056498 
L 418.546939 192.171264 
L 418.909875 188.162739 
" style="fill: none; stroke: #b06000; stroke-linecap: round"/>
   </g>
   <g id="text_10">
    <!-- WAL backoffs: -->
    <g style="fill: #b06000" transform="translate(433.901606 105.521495) scale(0.09 -0.09)">
     <defs>
      <path id="DejaVuSans-3a" d="M 213 4666 
L 850 4666 
L 1831 722 
L 2809 4666 
L 3519 4666 
L 4500 722 
L 5478 4666 
L 6119 4666 
L 4947 0 
L 4153 0 
L 3169 4050 
L 2175 0 
L 1381 0 
L 213 4666 
z
" transform="scale(0.015625)"/>
      <path id="DejaVuSans-24" d="M 2188 4044 
L 1331 1722 
L 3047 1722 
L 2188 4044 
z
M 1831 4666 
L 2547 4666 
L 4325 0 
L 3669 0 
L 3244 1197 
L 1141 1197 
L 716 0 
L 50 0 
L 1831 4666 
z
" transform="scale(0.015625)"/>
      <path id="DejaVuSans-2f" d="M 628 4666 
L 1259 4666 
L 1259 531 
L 3531 531 
L 3531 0 
L 628 0 
L 628 4666 
z
" transform="scale(0.015625)"/>
     </defs>
     <use xlink:href="#DejaVuSans-3a"/>
     <use xlink:href="#DejaVuSans-24" transform="translate(93.40625 0)"/>
     <use xlink:href="#DejaVuSans-2f" transform="translate(161.8125 0)"/>
     <use xlink:href="#DejaVuSans-3" transform="translate(217.53125 0)"/>
     <use xlink:href="#DejaVuSans-45" transform="translate(249.3125 0)"/>
     <use xlink:href="#DejaVuSans-44" transform="translate(312.796875 0)"/>
     <use xlink:href="#DejaVuSans-46" transform="translate(374.078125 0)"/>
     <use xlink:href="#DejaVuSans-4e" transform="translate(429.0625 0)"/>
     <use xlink:href="#DejaVuSans-52" transform="translate(483.40625 0)"/>
     <use xlink:href="#DejaVuSans-13ae" transform="translate(544.59375 0)"/>
     <use xlink:href="#DejaVuSans-56" transform="translate(613.484375 0)"/>
     <use xlink:href="#DejaVuSans-1d" transform="translate(665.578125 0)"/>
    </g>
    <!-- surge aftermath -->
    <g style="fill: #b06000" transform="translate(433.901606 116.323956) scale(0.09 -0.09)">
     <defs>
      <path id="DejaVuSans-49" d="M 2375 4863 
L 2375 4384 
L 1825 4384 
Q 1516 4384 1395 4259 
Q 1275 4134 1275 3809 
L 1275 3500 
L 2222 3500 
L 2222 3053 
L 1275 3053 
L 1275 0 
L 697 0 
L 697 3053 
L 147 3053 
L 147 3500 
L 697 3500 
L 697 3744 
Q 697 4328 969 4595 
Q 1241 4863 1831 4863 
L 2375 4863 
z
" transform="scale(0.015625)"/>
     </defs>
     <use xlink:href="#DejaVuSans-56"/>
     <use xlink:href="#DejaVuSans-58" transform="translate(52.09375 0)"/>
     <use xlink:href="#DejaVuSans-55" transform="translate(115.46875 0)"/>
     <use xlink:href="#DejaVuSans-4a" transform="translate(154.828125 0)"/>
     <use xlink:href="#DejaVuSans-48" transform="translate(218.3125 0)"/>
     <use xlink:href="#DejaVuSans-3" transform="translate(279.84375 0)"/>
     <use xlink:href="#DejaVuSans-44" transform="translate(311.625 0)"/>
     <use xlink:href="#DejaVuSans-49" transform="translate(372.90625 0)"/>
     <use xlink:href="#DejaVuSans-57" transform="translate(406.359375 0)"/>
     <use xlink:href="#DejaVuSans-48" transform="translate(445.5625 0)"/>
     <use xlink:href="#DejaVuSans-55" transform="translate(507.09375 0)"/>
     <use xlink:href="#DejaVuSans-50" transform="translate(546.453125 0)"/>
     <use xlink:href="#DejaVuSans-44" transform="translate(643.859375 0)"/>
     <use xlink:href="#DejaVuSans-57" transform="translate(705.140625 0)"/>
     <use xlink:href="#DejaVuSans-4b" transform="translate(744.34375 0)"/>
    </g>
   </g>
   <g id="text_11">
    <!-- Self-calibrating ambient signal: the drain yields to a write surge -->
    <g transform="translate(135.902187 16.659355) scale(0.11 -0.11)">
     <defs>
      <path id="DejaVuSans-36" d="M 3425 4513 
L 3425 3897 
Q 3066 4069 2747 4153 
Q 2428 4238 2131 4238 
Q 1616 4238 1336 4038 
Q 1056 3838 1056 3469 
Q 1056 3159 1242 3001 
Q 1428 2844 1947 2747 
L 2328 2669 
Q 3034 2534 3370 2195 
Q 3706 1856 3706 1288 
Q 3706 609 3251 259 
Q 2797 -91 1919 -91 
Q 1588 -91 1214 -16 
Q 841 59 441 206 
L 441 856 
Q 825 641 1194 531 
Q 1563 422 1919 422 
Q 2459 422 2753 634 
Q 3047 847 3047 1241 
Q 3047 1584 2836 1778 
Q 2625 1972 2144 2069 
L 1759 2144 
Q 1053 2284 737 2584 
Q 422 2884 422 3419 
Q 422 4038 858 4394 
Q 1294 4750 2059 4750 
Q 2388 4750 2728 4690 
Q 3069 4631 3425 4513 
z
" transform="scale(0.015625)"/>
      <path id="DejaVuSans-10" d="M 313 2009 
L 1997 2009 
L 1997 1497 
L 313 1497 
L 313 2009 
z
" transform="scale(0.015625)"/>
     </defs>
     <use xlink:href="#DejaVuSans-36"/>
     <use xlink:href="#DejaVuSans-48" transform="translate(63.484375 0)"/>
     <use xlink:href="#DejaVuSans-4f" transform="translate(125.015625 0)"/>
     <use xlink:href="#DejaVuSans-49" transform="translate(152.796875 0)"/>
     <use xlink:href="#DejaVuSans-10" transform="translate(182.53125 0)"/>
     <use xlink:href="#DejaVuSans-46" transform="translate(218.609375 0)"/>
     <use xlink:href="#DejaVuSans-44" transform="translate(273.59375 0)"/>
     <use xlink:href="#DejaVuSans-4f" transform="translate(334.875 0)"/>
     <use xlink:href="#DejaVuSans-4c" transform="translate(362.65625 0)"/>
     <use xlink:href="#DejaVuSans-45" transform="translate(390.4375 0)"/>
     <use xlink:href="#DejaVuSans-55" transform="translate(453.921875 0)"/>
     <use xlink:href="#DejaVuSans-44" transform="translate(495.03125 0)"/>
     <use xlink:href="#DejaVuSans-57" transform="translate(556.3125 0)"/>
     <use xlink:href="#DejaVuSans-4c" transform="translate(595.515625 0)"/>
     <use xlink:href="#DejaVuSans-51" transform="translate(623.296875 0)"/>
     <use xlink:href="#DejaVuSans-4a" transform="translate(686.671875 0)"/>
     <use xlink:href="#DejaVuSans-3" transform="translate(750.15625 0)"/>
     <use xlink:href="#DejaVuSans-44" transform="translate(781.9375 0)"/>
     <use xlink:href="#DejaVuSans-50" transform="translate(843.21875 0)"/>
     <use xlink:href="#DejaVuSans-45" transform="translate(940.625 0)"/>
     <use xlink:href="#DejaVuSans-4c" transform="translate(1004.109375 0)"/>
     <use xlink:href="#DejaVuSans-48" transform="translate(1031.890625 0)"/>
     <use xlink:href="#DejaVuSans-51" transform="translate(1093.421875 0)"/>
     <use xlink:href="#DejaVuSans-57" transform="translate(1156.796875 0)"/>
     <use xlink:href="#DejaVuSans-3" transform="translate(1196 0)"/>
     <use xlink:href="#DejaVuSans-56" transform="translate(1227.78125 0)"/>
     <use xlink:href="#DejaVuSans-4c" transform="translate(1279.875 0)"/>
     <use xlink:href="#DejaVuSans-4a" transform="translate(1307.65625 0)"/>
     <use xlink:href="#DejaVuSans-51" transform="translate(1371.140625 0)"/>
     <use xlink:href="#DejaVuSans-44" transform="translate(1434.515625 0)"/>
     <use xlink:href="#DejaVuSans-4f" transform="translate(1495.796875 0)"/>
     <use xlink:href="#DejaVuSans-1d" transform="translate(1523.578125 0)"/>
     <use xlink:href="#DejaVuSans-3" transform="translate(1557.265625 0)"/>
     <use xlink:href="#DejaVuSans-57" transform="translate(1589.046875 0)"/>
     <use xlink:href="#DejaVuSans-4b" transform="translate(1628.25 0)"/>
     <use xlink:href="#DejaVuSans-48" transform="translate(1691.625 0)"/>
     <use xlink:href="#DejaVuSans-3" transform="translate(1753.15625 0)"/>
     <use xlink:href="#DejaVuSans-47" transform="translate(1784.9375 0)"/>
     <use xlink:href="#DejaVuSans-55" transform="translate(1848.421875 0)"/>
     <use xlink:href="#DejaVuSans-44" transform="translate(1889.53125 0)"/>
     <use xlink:href="#DejaVuSans-4c" transform="translate(1950.8125 0)"/>
     <use xlink:href="#DejaVuSans-51" transform="translate(1978.59375 0)"/>
     <use xlink:href="#DejaVuSans-3" transform="translate(2041.96875 0)"/>
     <use xlink:href="#DejaVuSans-5c" transform="translate(2073.75 0)"/>
     <use xlink:href="#DejaVuSans-4c" transform="translate(2132.9375 0)"/>
     <use xlink:href="#DejaVuSans-48" transform="translate(2160.71875 0)"/>
     <use xlink:href="#DejaVuSans-4f" transform="translate(2222.25 0)"/>
     <use xlink:href="#DejaVuSans-47" transform="translate(2250.03125 0)"/>
     <use xlink:href="#DejaVuSans-56" transform="translate(2313.515625 0)"/>
     <use xlink:href="#DejaVuSans-3" transform="translate(2365.609375 0)"/>
     <use xlink:href="#DejaVuSans-57" transform="translate(2397.390625 0)"/>
     <use xlink:href="#DejaVuSans-52" transform="translate(2436.59375 0)"/>
     <use xlink:href="#DejaVuSans-3" transform="translate(2497.78125 0)"/>
     <use xlink:href="#DejaVuSans-44" transform="translate(2529.5625 0)"/>
     <use xlink:href="#DejaVuSans-3" transform="translate(2590.84375 0)"/>
     <use xlink:href="#DejaVuSans-5a" transform="translate(2622.625 0)"/>
     <use xlink:href="#DejaVuSans-55" transform="translate(2704.40625 0)"/>
     <use xlink:href="#DejaVuSans-4c" transform="translate(2745.515625 0)"/>
     <use xlink:href="#DejaVuSans-57" transform="translate(2773.296875 0)"/>
     <use xlink:href="#DejaVuSans-48" transform="translate(2812.5 0)"/>
     <use xlink:href="#DejaVuSans-3" transform="translate(2874.03125 0)"/>
     <use xlink:href="#DejaVuSans-56" transform="translate(2905.8125 0)"/>
     <use xlink:href="#DejaVuSans-58" transform="translate(2957.90625 0)"/>
     <use xlink:href="#DejaVuSans-55" transform="translate(3021.28125 0)"/>
     <use xlink:href="#DejaVuSans-4a" transform="translate(3060.640625 0)"/>
     <use xlink:href="#DejaVuSans-48" transform="translate(3124.125 0)"/>
    </g>
    <!-- (the learned baseline tracks this box's normal; a relative spike feathers the budget down) -->
    <g transform="translate(64.299922 29.862363) scale(0.11 -0.11)">
     <defs>
      <path id="DejaVuSans-5b" d="M 3513 3500 
L 2247 1797 
L 3578 0 
L 2900 0 
L 1881 1375 
L 863 0 
L 184 0 
L 1544 1831 
L 300 3500 
L 978 3500 
L 1906 2253 
L 2834 3500 
L 3513 3500 
z
" transform="scale(0.015625)"/>
      <path id="DejaVuSans-a" d="M 1147 4666 
L 1147 2931 
L 616 2931 
L 616 4666 
L 1147 4666 
z
" transform="scale(0.015625)"/>
      <path id="DejaVuSans-1e" d="M 750 3309 
L 1409 3309 
L 1409 2516 
L 750 2516 
L 750 3309 
z
M 750 794 
L 1409 794 
L 1409 256 
L 897 -744 
L 494 -744 
L 750 256 
L 750 794 
z
" transform="scale(0.015625)"/>
      <path id="DejaVuSans-59" d="M 191 3500 
L 800 3500 
L 1894 563 
L 2988 3500 
L 3597 3500 
L 2284 0 
L 1503 0 
L 191 3500 
z
" transform="scale(0.015625)"/>
      <path id="DejaVuSans-53" d="M 1159 525 
L 1159 -1331 
L 581 -1331 
L 581 3500 
L 1159 3500 
L 1159 2969 
Q 1341 3281 1617 3432 
Q 1894 3584 2278 3584 
Q 2916 3584 3314 3078 
Q 3713 2572 3713 1747 
Q 3713 922 3314 415 
Q 2916 -91 2278 -91 
Q 1894 -91 1617 61 
Q 1341 213 1159 525 
z
M 3116 1747 
Q 3116 2381 2855 2742 
Q 2594 3103 2138 3103 
Q 1681 3103 1420 2742 
Q 1159 2381 1159 1747 
Q 1159 1113 1420 752 
Q 1681 391 2138 391 
Q 2594 391 2855 752 
Q 3116 1113 3116 1747 
z
" transform="scale(0.015625)"/>
     </defs>
     <use xlink:href="#DejaVuSans-b"/>
     <use xlink:href="#DejaVuSans-57" transform="translate(39.015625 0)"/>
     <use xlink:href="#DejaVuSans-4b" transform="translate(78.21875 0)"/>
     <use xlink:href="#DejaVuSans-48" transform="translate(141.59375 0)"/>
     <use xlink:href="#DejaVuSans-3" transform="translate(203.125 0)"/>
     <use xlink:href="#DejaVuSans-4f" transform="translate(234.90625 0)"/>
     <use xlink:href="#DejaVuSans-48" transform="translate(262.6875 0)"/>
     <use xlink:href="#DejaVuSans-44" transform="translate(324.21875 0)"/>
     <use xlink:href="#DejaVuSans-55" transform="translate(385.5 0)"/>
     <use xlink:href="#DejaVuSans-51" transform="translate(424.859375 0)"/>
     <use xlink:href="#DejaVuSans-48" transform="translate(488.234375 0)"/>
     <use xlink:href="#DejaVuSans-47" transform="translate(549.765625 0)"/>
     <use xlink:href="#DejaVuSans-3" transform="translate(613.25 0)"/>
     <use xlink:href="#DejaVuSans-45" transform="translate(645.03125 0)"/>
     <use xlink:href="#DejaVuSans-44" transform="translate(708.515625 0)"/>
     <use xlink:href="#DejaVuSans-56" transform="translate(769.796875 0)"/>
     <use xlink:href="#DejaVuSans-48" transform="translate(821.890625 0)"/>
     <use xlink:href="#DejaVuSans-4f" transform="translate(883.421875 0)"/>
     <use xlink:href="#DejaVuSans-4c" transform="translate(911.203125 0)"/>
     <use xlink:href="#DejaVuSans-51" transform="translate(938.984375 0)"/>
     <use xlink:href="#DejaVuSans-48" transform="translate(1002.359375 0)"/>
     <use xlink:href="#DejaVuSans-3" transform="translate(1063.890625 0)"/>
     <use xlink:href="#DejaVuSans-57" transform="translate(1095.671875 0)"/>
     <use xlink:href="#DejaVuSans-55" transform="translate(1134.875 0)"/>
     <use xlink:href="#DejaVuSans-44" transform="translate(1175.984375 0)"/>
     <use xlink:href="#DejaVuSans-46" transform="translate(1237.265625 0)"/>
     <use xlink:href="#DejaVuSans-4e" transform="translate(1292.25 0)"/>
     <use xlink:href="#DejaVuSans-56" transform="translate(1350.15625 0)"/>
     <use xlink:href="#DejaVuSans-3" transform="translate(1402.25 0)"/>
     <use xlink:href="#DejaVuSans-57" transform="translate(1434.03125 0)"/>
     <use xlink:href="#DejaVuSans-4b" transform="translate(1473.234375 0)"/>
     <use xlink:href="#DejaVuSans-4c" transform="translate(1536.609375 0)"/>
     <use xlink:href="#DejaVuSans-56" transform="translate(1564.390625 0)"/>
     <use xlink:href="#DejaVuSans-3" transform="translate(1616.484375 0)"/>
     <use xlink:href="#DejaVuSans-45" transform="translate(1648.265625 0)"/>
     <use xlink:href="#DejaVuSans-52" transform="translate(1711.75 0)"/>
     <use xlink:href="#DejaVuSans-5b" transform="translate(1769.859375 0)"/>
     <use xlink:href="#DejaVuSans-a" transform="translate(1829.046875 0)"/>
     <use xlink:href="#DejaVuSans-56" transform="translate(1856.53125 0)"/>
     <use xlink:href="#DejaVuSans-3" transform="translate(1908.625 0)"/>
     <use xlink:href="#DejaVuSans-51" transform="translate(1940.40625 0)"/>
     <use xlink:href="#DejaVuSans-52" transform="translate(2003.78125 0)"/>
     <use xlink:href="#DejaVuSans-55" transform="translate(2064.96875 0)"/>
     <use xlink:href="#DejaVuSans-50" transform="translate(2104.328125 0)"/>
     <use xlink:href="#DejaVuSans-44" transform="translate(2201.734375 0)"/>
     <use xlink:href="#DejaVuSans-4f" transform="translate(2263.015625 0)"/>
     <use xlink:href="#DejaVuSans-1e" transform="translate(2290.796875 0)"/>
     <use xlink:href="#DejaVuSans-3" transform="translate(2324.484375 0)"/>
     <use xlink:href="#DejaVuSans-44" transform="translate(2356.265625 0)"/>
     <use xlink:href="#DejaVuSans-3" transform="translate(2417.546875 0)"/>
     <use xlink:href="#DejaVuSans-55" transform="translate(2449.328125 0)"/>
     <use xlink:href="#DejaVuSans-48" transform="translate(2488.234375 0)"/>
     <use xlink:href="#DejaVuSans-4f" transform="translate(2549.765625 0)"/>
     <use xlink:href="#DejaVuSans-44" transform="translate(2577.546875 0)"/>
     <use xlink:href="#DejaVuSans-57" transform="translate(2638.828125 0)"/>
     <use xlink:href="#DejaVuSans-4c" transform="translate(2678.03125 0)"/>
     <use xlink:href="#DejaVuSans-59" transform="translate(2705.8125 0)"/>
     <use xlink:href="#DejaVuSans-48" transform="translate(2765 0)"/>
     <use xlink:href="#DejaVuSans-3" transform="translate(2826.53125 0)"/>
     <use xlink:href="#DejaVuSans-56" transform="translate(2858.3125 0)"/>
     <use xlink:href="#DejaVuSans-53" transform="translate(2910.40625 0)"/>
     <use xlink:href="#DejaVuSans-4c" transform="translate(2973.890625 0)"/>
     <use xlink:href="#DejaVuSans-4e" transform="translate(3001.671875 0)"/>
     <use xlink:href="#DejaVuSans-48" transform="translate(3056.015625 0)"/>
     <use xlink:href="#DejaVuSans-3" transform="translate(3117.546875 0)"/>
     <use xlink:href="#DejaVuSans-49" transform="translate(3149.328125 0)"/>
     <use xlink:href="#DejaVuSans-48" transform="translate(3184.53125 0)"/>
     <use xlink:href="#DejaVuSans-44" transform="translate(3246.0625 0)"/>
     <use xlink:href="#DejaVuSans-57" transform="translate(3307.34375 0)"/>
     <use xlink:href="#DejaVuSans-4b" transform="translate(3346.546875 0)"/>
     <use xlink:href="#DejaVuSans-48" transform="translate(3409.921875 0)"/>
     <use xlink:href="#DejaVuSans-55" transform="translate(3471.453125 0)"/>
     <use xlink:href="#DejaVuSans-56" transform="translate(3512.5625 0)"/>
     <use xlink:href="#DejaVuSans-3" transform="translate(3564.65625 0)"/>
     <use xlink:href="#DejaVuSans-57" transform="translate(3596.4375 0)"/>
     <use xlink:href="#DejaVuSans-4b" transform="translate(3635.640625 0)"/>
     <use xlink:href="#DejaVuSans-48" transform="translate(3699.015625 0)"/>
     <use xlink:href="#DejaVuSans-3" transform="translate(3760.546875 0)"/>
     <use xlink:href="#DejaVuSans-45" transform="translate(3792.328125 0)"/>
     <use xlink:href="#DejaVuSans-58" transform="translate(3855.8125 0)"/>
     <use xlink:href="#DejaVuSans-47" transform="translate(3919.1875 0)"/>
     <use xlink:href="#DejaVuSans-4a" transform="translate(3982.671875 0)"/>
     <use xlink:href="#DejaVuSans-48" transform="translate(4046.15625 0)"/>
     <use xlink:href="#DejaVuSans-57" transform="translate(4107.6875 0)"/>
     <use xlink:href="#DejaVuSans-3" transform="translate(4146.890625 0)"/>
     <use xlink:href="#DejaVuSans-47" transform="translate(4178.671875 0)"/>
     <use xlink:href="#DejaVuSans-52" transform="translate(4242.15625 0)"/>
     <use xlink:href="#DejaVuSans-5a" transform="translate(4303.34375 0)"/>
     <use xlink:href="#DejaVuSans-51" transform="translate(4385.125 0)"/>
     <use xlink:href="#DejaVuSans-c" transform="translate(4448.5 0)"/>
    </g>
   </g>
  </g>
  <g id="axes_2">
   <g id="patch_9">
    <path d="M 60.013281 401.766363 
L 562.213281 401.766363 
L 562.213281 290.886363 
L 60.013281 290.886363 
z
" style="fill: #ffffff"/>
   </g>
   <g id="patch_10">
    <path d="M 190.307697 401.766363 
L 271.033586 401.766363 
L 271.033586 290.886363 
L 190.307697 290.886363 
z
" clip-path="url(#p98fba13aef)" style="fill: #d2553b; opacity: 0.09; stroke: #d2553b; stroke-linejoin: miter"/>
   </g>
   <g id="matplotlib.axis_3">
    <g id="xtick_9">
     <g id="line2d_31">
      <path d="M 60.013281 401.766363 
L 60.013281 290.886363 
" clip-path="url(#p98fba13aef)" style="fill: none; stroke: #b0b0b0; stroke-opacity: 0.25; stroke-width: 0.8; stroke-linecap: square"/>
     </g>
     <g id="line2d_32">
      <g>
       <use xlink:href="#mf51466451f" x="60.013281" y="401.766363" style="stroke: #000000; stroke-width: 0.8"/>
      </g>
     </g>
     <g id="text_12">
      <!-- 0 -->
      <g transform="translate(56.832031 416.36402) scale(0.1 -0.1)">
       <use xlink:href="#DejaVuSans-13"/>
      </g>
     </g>
    </g>
    <g id="xtick_10">
     <g id="line2d_33">
      <path d="M 130.825464 401.766363 
L 130.825464 290.886363 
" clip-path="url(#p98fba13aef)" style="fill: none; stroke: #b0b0b0; stroke-opacity: 0.25; stroke-width: 0.8; stroke-linecap: square"/>
     </g>
     <g id="line2d_34">
      <g>
       <use xlink:href="#mf51466451f" x="130.825464" y="401.766363" style="stroke: #000000; stroke-width: 0.8"/>
      </g>
     </g>
     <g id="text_13">
      <!-- 50 -->
      <g transform="translate(124.462964 416.36402) scale(0.1 -0.1)">
       <defs>
        <path id="DejaVuSans-18" d="M 691 4666 
L 3169 4666 
L 3169 4134 
L 1269 4134 
L 1269 2991 
Q 1406 3038 1543 3061 
Q 1681 3084 1819 3084 
Q 2600 3084 3056 2656 
Q 3513 2228 3513 1497 
Q 3513 744 3044 326 
Q 2575 -91 1722 -91 
Q 1428 -91 1123 -41 
Q 819 9 494 109 
L 494 744 
Q 775 591 1075 516 
Q 1375 441 1709 441 
Q 2250 441 2565 725 
Q 2881 1009 2881 1497 
Q 2881 1984 2565 2268 
Q 2250 2553 1709 2553 
Q 1456 2553 1204 2497 
Q 953 2441 691 2322 
L 691 4666 
z
" transform="scale(0.015625)"/>
       </defs>
       <use xlink:href="#DejaVuSans-18"/>
       <use xlink:href="#DejaVuSans-13" transform="translate(63.625 0)"/>
      </g>
     </g>
    </g>
    <g id="xtick_11">
     <g id="line2d_35">
      <path d="M 201.637647 401.766363 
L 201.637647 290.886363 
" clip-path="url(#p98fba13aef)" style="fill: none; stroke: #b0b0b0; stroke-opacity: 0.25; stroke-width: 0.8; stroke-linecap: square"/>
     </g>
     <g id="line2d_36">
      <g>
       <use xlink:href="#mf51466451f" x="201.637647" y="401.766363" style="stroke: #000000; stroke-width: 0.8"/>
      </g>
     </g>
     <g id="text_14">
      <!-- 100 -->
      <g transform="translate(192.093897 416.36402) scale(0.1 -0.1)">
       <use xlink:href="#DejaVuSans-14"/>
       <use xlink:href="#DejaVuSans-13" transform="translate(63.625 0)"/>
       <use xlink:href="#DejaVuSans-13" transform="translate(127.25 0)"/>
      </g>
     </g>
    </g>
    <g id="xtick_12">
     <g id="line2d_37">
      <path d="M 272.449829 401.766363 
L 272.449829 290.886363 
" clip-path="url(#p98fba13aef)" style="fill: none; stroke: #b0b0b0; stroke-opacity: 0.25; stroke-width: 0.8; stroke-linecap: square"/>
     </g>
     <g id="line2d_38">
      <g>
       <use xlink:href="#mf51466451f" x="272.449829" y="401.766363" style="stroke: #000000; stroke-width: 0.8"/>
      </g>
     </g>
     <g id="text_15">
      <!-- 150 -->
      <g transform="translate(262.906079 416.36402) scale(0.1 -0.1)">
       <use xlink:href="#DejaVuSans-14"/>
       <use xlink:href="#DejaVuSans-18" transform="translate(63.625 0)"/>
       <use xlink:href="#DejaVuSans-13" transform="translate(127.25 0)"/>
      </g>
     </g>
    </g>
    <g id="xtick_13">
     <g id="line2d_39">
      <path d="M 343.262012 401.766363 
L 343.262012 290.886363 
" clip-path="url(#p98fba13aef)" style="fill: none; stroke: #b0b0b0; stroke-opacity: 0.25; stroke-width: 0.8; stroke-linecap: square"/>
     </g>
     <g id="line2d_40">
      <g>
       <use xlink:href="#mf51466451f" x="343.262012" y="401.766363" style="stroke: #000000; stroke-width: 0.8"/>
      </g>
     </g>
     <g id="text_16">
      <!-- 200 -->
      <g transform="translate(333.718262 416.36402) scale(0.1 -0.1)">
       <use xlink:href="#DejaVuSans-15"/>
       <use xlink:href="#DejaVuSans-13" transform="translate(63.625 0)"/>
       <use xlink:href="#DejaVuSans-13" transform="translate(127.25 0)"/>
      </g>
     </g>
    </g>
    <g id="xtick_14">
     <g id="line2d_41">
      <path d="M 414.074195 401.766363 
L 414.074195 290.886363 
" clip-path="url(#p98fba13aef)" style="fill: none; stroke: #b0b0b0; stroke-opacity: 0.25; stroke-width: 0.8; stroke-linecap: square"/>
     </g>
     <g id="line2d_42">
      <g>
       <use xlink:href="#mf51466451f" x="414.074195" y="401.766363" style="stroke: #000000; stroke-width: 0.8"/>
      </g>
     </g>
     <g id="text_17">
      <!-- 250 -->
      <g transform="translate(404.530445 416.36402) scale(0.1 -0.1)">
       <use xlink:href="#DejaVuSans-15"/>
       <use xlink:href="#DejaVuSans-18" transform="translate(63.625 0)"/>
       <use xlink:href="#DejaVuSans-13" transform="translate(127.25 0)"/>
      </g>
     </g>
    </g>
    <g id="xtick_15">
     <g id="line2d_43">
      <path d="M 484.886378 401.766363 
L 484.886378 290.886363 
" clip-path="url(#p98fba13aef)" style="fill: none; stroke: #b0b0b0; stroke-opacity: 0.25; stroke-width: 0.8; stroke-linecap: square"/>
     </g>
     <g id="line2d_44">
      <g>
       <use xlink:href="#mf51466451f" x="484.886378" y="401.766363" style="stroke: #000000; stroke-width: 0.8"/>
      </g>
     </g>
     <g id="text_18">
      <!-- 300 -->
      <g transform="translate(475.342628 416.36402) scale(0.1 -0.1)">
       <defs>
        <path id="DejaVuSans-16" d="M 2597 2516 
Q 3050 2419 3304 2112 
Q 3559 1806 3559 1356 
Q 3559 666 3084 287 
Q 2609 -91 1734 -91 
Q 1441 -91 1130 -33 
Q 819 25 488 141 
L 488 750 
Q 750 597 1062 519 
Q 1375 441 1716 441 
Q 2309 441 2620 675 
Q 2931 909 2931 1356 
Q 2931 1769 2642 2001 
Q 2353 2234 1838 2234 
L 1294 2234 
L 1294 2753 
L 1863 2753 
Q 2328 2753 2575 2939 
Q 2822 3125 2822 3475 
Q 2822 3834 2567 4026 
Q 2313 4219 1838 4219 
Q 1578 4219 1281 4162 
Q 984 4106 628 3988 
L 628 4550 
Q 988 4650 1302 4700 
Q 1616 4750 1894 4750 
Q 2613 4750 3031 4423 
Q 3450 4097 3450 3541 
Q 3450 3153 3228 2886 
Q 3006 2619 2597 2516 
z
" transform="scale(0.015625)"/>
       </defs>
       <use xlink:href="#DejaVuSans-16"/>
       <use xlink:href="#DejaVuSans-13" transform="translate(63.625 0)"/>
       <use xlink:href="#DejaVuSans-13" transform="translate(127.25 0)"/>
      </g>
     </g>
    </g>
    <g id="xtick_16">
     <g id="line2d_45">
      <path d="M 555.69856 401.766363 
L 555.69856 290.886363 
" clip-path="url(#p98fba13aef)" style="fill: none; stroke: #b0b0b0; stroke-opacity: 0.25; stroke-width: 0.8; stroke-linecap: square"/>
     </g>
     <g id="line2d_46">
      <g>
       <use xlink:href="#mf51466451f" x="555.69856" y="401.766363" style="stroke: #000000; stroke-width: 0.8"/>
      </g>
     </g>
     <g id="text_19">
      <!-- 350 -->
      <g transform="translate(546.15481 416.36402) scale(0.1 -0.1)">
       <use xlink:href="#DejaVuSans-16"/>
       <use xlink:href="#DejaVuSans-18" transform="translate(63.625 0)"/>
       <use xlink:href="#DejaVuSans-13" transform="translate(127.25 0)"/>
      </g>
     </g>
    </g>
    <g id="text_20">
     <!-- elapsed in the observe phase (seconds) -->
     <g transform="translate(211.411719 430.364801) scale(0.1 -0.1)">
      <use xlink:href="#DejaVuSans-48"/>
      <use xlink:href="#DejaVuSans-4f" transform="translate(61.53125 0)"/>
      <use xlink:href="#DejaVuSans-44" transform="translate(89.3125 0)"/>
      <use xlink:href="#DejaVuSans-53" transform="translate(150.59375 0)"/>
      <use xlink:href="#DejaVuSans-56" transform="translate(214.078125 0)"/>
      <use xlink:href="#DejaVuSans-48" transform="translate(266.171875 0)"/>
      <use xlink:href="#DejaVuSans-47" transform="translate(327.703125 0)"/>
      <use xlink:href="#DejaVuSans-3" transform="translate(391.1875 0)"/>
      <use xlink:href="#DejaVuSans-4c" transform="translate(422.96875 0)"/>
      <use xlink:href="#DejaVuSans-51" transform="translate(450.75 0)"/>
      <use xlink:href="#DejaVuSans-3" transform="translate(514.125 0)"/>
      <use xlink:href="#DejaVuSans-57" transform="translate(545.90625 0)"/>
      <use xlink:href="#DejaVuSans-4b" transform="translate(585.109375 0)"/>
      <use xlink:href="#DejaVuSans-48" transform="translate(648.484375 0)"/>
      <use xlink:href="#DejaVuSans-3" transform="translate(710.015625 0)"/>
      <use xlink:href="#DejaVuSans-52" transform="translate(741.796875 0)"/>
      <use xlink:href="#DejaVuSans-45" transform="translate(802.984375 0)"/>
      <use xlink:href="#DejaVuSans-56" transform="translate(866.46875 0)"/>
      <use xlink:href="#DejaVuSans-48" transform="translate(918.5625 0)"/>
      <use xlink:href="#DejaVuSans-55" transform="translate(980.09375 0)"/>
      <use xlink:href="#DejaVuSans-59" transform="translate(1021.203125 0)"/>
      <use xlink:href="#DejaVuSans-48" transform="translate(1080.390625 0)"/>
      <use xlink:href="#DejaVuSans-3" transform="translate(1141.921875 0)"/>
      <use xlink:href="#DejaVuSans-53" transform="translate(1173.703125 0)"/>
      <use xlink:href="#DejaVuSans-4b" transform="translate(1237.1875 0)"/>
      <use xlink:href="#DejaVuSans-44" transform="translate(1300.5625 0)"/>
      <use xlink:href="#DejaVuSans-56" transform="translate(1361.84375 0)"/>
      <use xlink:href="#DejaVuSans-48" transform="translate(1413.9375 0)"/>
      <use xlink:href="#DejaVuSans-3" transform="translate(1475.46875 0)"/>
      <use xlink:href="#DejaVuSans-b" transform="translate(1507.25 0)"/>
      <use xlink:href="#DejaVuSans-56" transform="translate(1546.265625 0)"/>
      <use xlink:href="#DejaVuSans-48" transform="translate(1598.359375 0)"/>
      <use xlink:href="#DejaVuSans-46" transform="translate(1659.890625 0)"/>
      <use xlink:href="#DejaVuSans-52" transform="translate(1714.875 0)"/>
      <use xlink:href="#DejaVuSans-51" transform="translate(1776.0625 0)"/>
      <use xlink:href="#DejaVuSans-47" transform="translate(1839.4375 0)"/>
      <use xlink:href="#DejaVuSans-56" transform="translate(1902.921875 0)"/>
      <use xlink:href="#DejaVuSans-c" transform="translate(1955.015625 0)"/>
     </g>
    </g>
   </g>
   <g id="matplotlib.axis_4">
    <g id="ytick_7">
     <g id="line2d_47">
      <path d="M 60.013281 401.766363 
L 562.213281 401.766363 
" clip-path="url(#p98fba13aef)" style="fill: none; stroke: #b0b0b0; stroke-opacity: 0.25; stroke-width: 0.8; stroke-linecap: square"/>
     </g>
     <g id="line2d_48">
      <g>
       <use xlink:href="#me25bc3e8e2" x="60.013281" y="401.766363" style="stroke: #000000; stroke-width: 0.8"/>
      </g>
     </g>
     <g id="text_21">
      <!-- 0 -->
      <g transform="translate(46.650781 405.565191) scale(0.1 -0.1)">
       <use xlink:href="#DejaVuSans-13"/>
      </g>
     </g>
    </g>
    <g id="ytick_8">
     <g id="line2d_49">
      <path d="M 60.013281 366.566363 
L 562.213281 366.566363 
" clip-path="url(#p98fba13aef)" style="fill: none; stroke: #b0b0b0; stroke-opacity: 0.25; stroke-width: 0.8; stroke-linecap: square"/>
     </g>
     <g id="line2d_50">
      <g>
       <use xlink:href="#me25bc3e8e2" x="60.013281" y="366.566363" style="stroke: #000000; stroke-width: 0.8"/>
      </g>
     </g>
     <g id="text_22">
      <!-- 2 -->
      <g transform="translate(46.650781 370.365191) scale(0.1 -0.1)">
       <use xlink:href="#DejaVuSans-15"/>
      </g>
     </g>
    </g>
    <g id="ytick_9">
     <g id="line2d_51">
      <path d="M 60.013281 331.366363 
L 562.213281 331.366363 
" clip-path="url(#p98fba13aef)" style="fill: none; stroke: #b0b0b0; stroke-opacity: 0.25; stroke-width: 0.8; stroke-linecap: square"/>
     </g>
     <g id="line2d_52">
      <g>
       <use xlink:href="#me25bc3e8e2" x="60.013281" y="331.366363" style="stroke: #000000; stroke-width: 0.8"/>
      </g>
     </g>
     <g id="text_23">
      <!-- 4 -->
      <g transform="translate(46.650781 335.165191) scale(0.1 -0.1)">
       <use xlink:href="#DejaVuSans-17"/>
      </g>
     </g>
    </g>
    <g id="ytick_10">
     <g id="line2d_53">
      <path d="M 60.013281 296.166363 
L 562.213281 296.166363 
" clip-path="url(#p98fba13aef)" style="fill: none; stroke: #b0b0b0; stroke-opacity: 0.25; stroke-width: 0.8; stroke-linecap: square"/>
     </g>
     <g id="line2d_54">
      <g>
       <use xlink:href="#me25bc3e8e2" x="60.013281" y="296.166363" style="stroke: #000000; stroke-width: 0.8"/>
      </g>
     </g>
     <g id="text_24">
      <!-- 6 -->
      <g transform="translate(46.650781 299.965191) scale(0.1 -0.1)">
       <use xlink:href="#DejaVuSans-19"/>
      </g>
     </g>
    </g>
    <g id="text_25">
     <!-- ambient waiters -->
     <g transform="translate(40.248438 386.857613) rotate(-90) scale(0.1 -0.1)">
      <use xlink:href="#DejaVuSans-44"/>
      <use xlink:href="#DejaVuSans-50" transform="translate(61.28125 0)"/>
      <use xlink:href="#DejaVuSans-45" transform="translate(158.6875 0)"/>
      <use xlink:href="#DejaVuSans-4c" transform="translate(222.171875 0)"/>
      <use xlink:href="#DejaVuSans-48" transform="translate(249.953125 0)"/>
      <use xlink:href="#DejaVuSans-51" transform="translate(311.484375 0)"/>
      <use xlink:href="#DejaVuSans-57" transform="translate(374.859375 0)"/>
      <use xlink:href="#DejaVuSans-3" transform="translate(414.0625 0)"/>
      <use xlink:href="#DejaVuSans-5a" transform="translate(445.84375 0)"/>
      <use xlink:href="#DejaVuSans-44" transform="translate(527.625 0)"/>
      <use xlink:href="#DejaVuSans-4c" transform="translate(588.90625 0)"/>
      <use xlink:href="#DejaVuSans-57" transform="translate(616.6875 0)"/>
      <use xlink:href="#DejaVuSans-48" transform="translate(655.890625 0)"/>
      <use xlink:href="#DejaVuSans-55" transform="translate(717.421875 0)"/>
      <use xlink:href="#DejaVuSans-56" transform="translate(758.53125 0)"/>
     </g>
    </g>
   </g>
   <g id="line2d_55">
    <path d="M 68.510743 348.966363 
L 77.008205 364.454363 
L 84.089423 377.830363 
L 92.586885 379.414363 
L 101.084347 387.510363 
L 108.165566 392.614363 
L 116.663027 388.918363 
L 125.160489 393.494363 
L 133.657951 391.558363 
L 140.73917 395.254363 
L 149.236632 397.542363 
L 157.734093 399.126363 
L 164.815312 400.006363 
L 173.312774 400.710363 
L 181.810236 401.062363 
L 190.307697 392.790363 
L 198.805159 396.134363 
L 207.302621 394.198363 
L 214.38384 393.670363 
L 222.881302 393.142363 
L 231.378763 394.726363 
L 238.459982 397.366363 
L 246.957444 398.950363 
L 255.454906 385.222363 
L 263.952368 388.390363 
L 271.033586 386.278363 
L 279.531048 386.454363 
L 288.02851 388.566363 
L 295.109728 393.318363 
L 303.60719 380.822363 
L 312.104652 384.870363 
L 320.602114 391.030363 
L 327.683332 394.902363 
L 336.180794 393.846363 
L 344.678256 396.662363 
L 351.759474 398.598363 
L 360.256936 399.654363 
L 368.754398 400.358363 
L 377.25186 400.886363 
L 384.333078 401.062363 
L 392.83054 401.414363 
L 401.328002 395.782363 
L 408.40922 398.070363 
L 416.906682 399.302363 
L 425.404144 400.182363 
L 432.485362 400.710363 
L 440.982824 397.366363 
L 449.480286 395.078363 
L 457.977748 396.310363 
L 465.058967 398.246363 
L 473.556428 399.478363 
L 482.05389 400.358363 
L 489.135109 394.550363 
L 497.632571 397.190363 
L 506.130033 391.734363 
L 513.211251 395.430363 
L 521.708713 394.198363 
L 530.206175 395.606363 
L 538.703637 397.894363 
" clip-path="url(#p98fba13aef)" style="fill: none; stroke: #9aa0a6; stroke-width: 1.8; stroke-linecap: square"/>
   </g>
   <g id="line2d_56">
    <path d="M 68.510743 296.166363 
L 77.008205 327.142363 
L 84.089423 331.366363 
L 92.586885 331.366363 
L 101.084347 331.366363 
L 108.165566 331.366363 
L 116.663027 331.366363 
L 125.160489 331.366363 
L 133.657951 331.366363 
L 140.73917 331.366363 
L 149.236632 331.366363 
L 157.734093 331.366363 
L 164.815312 331.366363 
L 173.312774 331.366363 
L 181.810236 331.366363 
L 190.307697 331.366363 
L 198.805159 331.366363 
L 207.302621 331.366363 
L 214.38384 331.366363 
L 222.881302 331.366363 
L 231.378763 331.366363 
L 238.459982 331.366363 
L 246.957444 331.366363 
L 255.454906 331.366363 
L 263.952368 331.366363 
L 271.033586 331.366363 
L 279.531048 331.366363 
L 288.02851 331.366363 
L 295.109728 331.366363 
L 303.60719 331.366363 
L 312.104652 331.366363 
L 320.602114 331.366363 
L 327.683332 331.366363 
L 336.180794 331.366363 
L 344.678256 331.366363 
L 351.759474 331.366363 
L 360.256936 331.366363 
L 368.754398 331.366363 
L 377.25186 331.366363 
L 384.333078 331.366363 
L 392.83054 331.366363 
L 401.328002 331.366363 
L 408.40922 331.366363 
L 416.906682 331.366363 
L 425.404144 331.366363 
L 432.485362 331.366363 
L 440.982824 331.366363 
L 449.480286 331.366363 
L 457.977748 331.366363 
L 465.058967 331.366363 
L 473.556428 331.366363 
L 482.05389 331.366363 
L 489.135109 331.366363 
L 497.632571 331.366363 
L 506.130033 331.366363 
L 513.211251 331.366363 
L 521.708713 331.366363 
L 530.206175 331.366363 
L 538.703637 331.366363 
" clip-path="url(#p98fba13aef)" style="fill: none; stroke-dasharray: 1.4,2.31; stroke-dashoffset: 0; stroke: #b06000; stroke-width: 1.4"/>
   </g>
   <g id="patch_11">
    <path d="M 60.013281 401.766363 
L 60.013281 290.886363 
" style="fill: none; stroke: #000000; stroke-width: 0.8; stroke-linejoin: miter; stroke-linecap: square"/>
   </g>
   <g id="patch_12">
    <path d="M 562.213281 401.766363 
L 562.213281 290.886363 
" style="fill: none; stroke: #000000; stroke-width: 0.8; stroke-linejoin: miter; stroke-linecap: square"/>
   </g>
   <g id="patch_13">
    <path d="M 60.013281 401.766363 
L 562.213281 401.766363 
" style="fill: none; stroke: #000000; stroke-width: 0.8; stroke-linejoin: miter; stroke-linecap: square"/>
   </g>
   <g id="patch_14">
    <path d="M 60.013281 290.886363 
L 562.213281 290.886363 
" style="fill: none; stroke: #000000; stroke-width: 0.8; stroke-linejoin: miter; stroke-linecap: square"/>
   </g>
   <g id="PathCollection_1">
    <defs>
     <path id="m849ab44abf" d="M 0 2.345208 
C 0.621956 2.345208 1.218523 2.098102 1.658312 1.658312 
C 2.098102 1.218523 2.345208 0.621956 2.345208 0 
C 2.345208 -0.621956 2.098102 -1.218523 1.658312 -1.658312 
C 1.218523 -2.098102 0.621956 -2.345208 0 -2.345208 
C -0.621956 -2.345208 -1.218523 -2.098102 -1.658312 -1.658312 
C -2.098102 -1.218523 -2.345208 -0.621956 -2.345208 0 
C -2.345208 0.621956 -2.098102 1.218523 -1.658312 1.658312 
C -1.218523 2.098102 -0.621956 2.345208 0 2.345208 
z
" style="stroke: #d2553b"/>
    </defs>
    <g clip-path="url(#p98fba13aef)">
     <use xlink:href="#m849ab44abf" x="68.510743" y="366.566363" style="fill: #d2553b; stroke: #d2553b"/>
     <use xlink:href="#m849ab44abf" x="77.008205" y="401.766363" style="fill: #d2553b; stroke: #d2553b"/>
     <use xlink:href="#m849ab44abf" x="84.089423" y="401.766363" style="fill: #d2553b; stroke: #d2553b"/>
     <use xlink:href="#m849ab44abf" x="92.586885" y="401.766363" style="fill: #d2553b; stroke: #d2553b"/>
     <use xlink:href="#m849ab44abf" x="101.084347" y="401.766363" style="fill: #d2553b; stroke: #d2553b"/>
     <use xlink:href="#m849ab44abf" x="108.165566" y="401.766363" style="fill: #d2553b; stroke: #d2553b"/>
     <use xlink:href="#m849ab44abf" x="116.663027" y="401.766363" style="fill: #d2553b; stroke: #d2553b"/>
     <use xlink:href="#m849ab44abf" x="125.160489" y="401.766363" style="fill: #d2553b; stroke: #d2553b"/>
     <use xlink:href="#m849ab44abf" x="133.657951" y="348.966363" style="fill: #d2553b; stroke: #d2553b"/>
     <use xlink:href="#m849ab44abf" x="140.73917" y="401.766363" style="fill: #d2553b; stroke: #d2553b"/>
     <use xlink:href="#m849ab44abf" x="149.236632" y="401.766363" style="fill: #d2553b; stroke: #d2553b"/>
     <use xlink:href="#m849ab44abf" x="157.734093" y="366.566363" style="fill: #d2553b; stroke: #d2553b"/>
     <use xlink:href="#m849ab44abf" x="164.815312" y="401.766363" style="fill: #d2553b; stroke: #d2553b"/>
     <use xlink:href="#m849ab44abf" x="173.312774" y="401.766363" style="fill: #d2553b; stroke: #d2553b"/>
     <use xlink:href="#m849ab44abf" x="181.810236" y="401.766363" style="fill: #d2553b; stroke: #d2553b"/>
     <use xlink:href="#m849ab44abf" x="190.307697" y="401.766363" style="fill: #d2553b; stroke: #d2553b"/>
     <use xlink:href="#m849ab44abf" x="198.805159" y="401.766363" style="fill: #d2553b; stroke: #d2553b"/>
     <use xlink:href="#m849ab44abf" x="207.302621" y="401.766363" style="fill: #d2553b; stroke: #d2553b"/>
     <use xlink:href="#m849ab44abf" x="214.38384" y="401.766363" style="fill: #d2553b; stroke: #d2553b"/>
     <use xlink:href="#m849ab44abf" x="222.881302" y="401.766363" style="fill: #d2553b; stroke: #d2553b"/>
     <use xlink:href="#m849ab44abf" x="231.378763" y="366.566363" style="fill: #d2553b; stroke: #d2553b"/>
     <use xlink:href="#m849ab44abf" x="238.459982" y="401.766363" style="fill: #d2553b; stroke: #d2553b"/>
     <use xlink:href="#m849ab44abf" x="246.957444" y="313.766363" style="fill: #d2553b; stroke: #d2553b"/>
     <use xlink:href="#m849ab44abf" x="255.454906" y="384.166363" style="fill: #d2553b; stroke: #d2553b"/>
     <use xlink:href="#m849ab44abf" x="263.952368" y="384.166363" style="fill: #d2553b; stroke: #d2553b"/>
     <use xlink:href="#m849ab44abf" x="271.033586" y="401.766363" style="fill: #d2553b; stroke: #d2553b"/>
     <use xlink:href="#m849ab44abf" x="279.531048" y="401.766363" style="fill: #d2553b; stroke: #d2553b"/>
     <use xlink:href="#m849ab44abf" x="288.02851" y="401.766363" style="fill: #d2553b; stroke: #d2553b"/>
     <use xlink:href="#m849ab44abf" x="295.109728" y="401.766363" style="fill: #d2553b; stroke: #d2553b"/>
     <use xlink:href="#m849ab44abf" x="303.60719" y="401.766363" style="fill: #d2553b; stroke: #d2553b"/>
     <use xlink:href="#m849ab44abf" x="312.104652" y="401.766363" style="fill: #d2553b; stroke: #d2553b"/>
     <use xlink:href="#m849ab44abf" x="320.602114" y="401.766363" style="fill: #d2553b; stroke: #d2553b"/>
     <use xlink:href="#m849ab44abf" x="327.683332" y="401.766363" style="fill: #d2553b; stroke: #d2553b"/>
     <use xlink:href="#m849ab44abf" x="336.180794" y="401.766363" style="fill: #d2553b; stroke: #d2553b"/>
     <use xlink:href="#m849ab44abf" x="344.678256" y="401.766363" style="fill: #d2553b; stroke: #d2553b"/>
     <use xlink:href="#m849ab44abf" x="351.759474" y="401.766363" style="fill: #d2553b; stroke: #d2553b"/>
     <use xlink:href="#m849ab44abf" x="360.256936" y="348.966363" style="fill: #d2553b; stroke: #d2553b"/>
     <use xlink:href="#m849ab44abf" x="368.754398" y="401.766363" style="fill: #d2553b; stroke: #d2553b"/>
     <use xlink:href="#m849ab44abf" x="377.25186" y="401.766363" style="fill: #d2553b; stroke: #d2553b"/>
     <use xlink:href="#m849ab44abf" x="384.333078" y="401.766363" style="fill: #d2553b; stroke: #d2553b"/>
     <use xlink:href="#m849ab44abf" x="392.83054" y="401.766363" style="fill: #d2553b; stroke: #d2553b"/>
     <use xlink:href="#m849ab44abf" x="401.328002" y="401.766363" style="fill: #d2553b; stroke: #d2553b"/>
     <use xlink:href="#m849ab44abf" x="408.40922" y="384.166363" style="fill: #d2553b; stroke: #d2553b"/>
     <use xlink:href="#m849ab44abf" x="416.906682" y="366.566363" style="fill: #d2553b; stroke: #d2553b"/>
     <use xlink:href="#m849ab44abf" x="425.404144" y="401.766363" style="fill: #d2553b; stroke: #d2553b"/>
     <use xlink:href="#m849ab44abf" x="432.485362" y="401.766363" style="fill: #d2553b; stroke: #d2553b"/>
     <use xlink:href="#m849ab44abf" x="440.982824" y="401.766363" style="fill: #d2553b; stroke: #d2553b"/>
     <use xlink:href="#m849ab44abf" x="449.480286" y="401.766363" style="fill: #d2553b; stroke: #d2553b"/>
     <use xlink:href="#m849ab44abf" x="457.977748" y="401.766363" style="fill: #d2553b; stroke: #d2553b"/>
     <use xlink:href="#m849ab44abf" x="465.058967" y="384.166363" style="fill: #d2553b; stroke: #d2553b"/>
     <use xlink:href="#m849ab44abf" x="473.556428" y="384.166363" style="fill: #d2553b; stroke: #d2553b"/>
     <use xlink:href="#m849ab44abf" x="482.05389" y="401.766363" style="fill: #d2553b; stroke: #d2553b"/>
     <use xlink:href="#m849ab44abf" x="489.135109" y="401.766363" style="fill: #d2553b; stroke: #d2553b"/>
     <use xlink:href="#m849ab44abf" x="497.632571" y="401.766363" style="fill: #d2553b; stroke: #d2553b"/>
     <use xlink:href="#m849ab44abf" x="506.130033" y="401.766363" style="fill: #d2553b; stroke: #d2553b"/>
     <use xlink:href="#m849ab44abf" x="513.211251" y="401.766363" style="fill: #d2553b; stroke: #d2553b"/>
     <use xlink:href="#m849ab44abf" x="521.708713" y="401.766363" style="fill: #d2553b; stroke: #d2553b"/>
     <use xlink:href="#m849ab44abf" x="530.206175" y="401.766363" style="fill: #d2553b; stroke: #d2553b"/>
     <use xlink:href="#m849ab44abf" x="538.703637" y="401.766363" style="fill: #d2553b; stroke: #d2553b"/>
    </g>
   </g>
   <g id="legend_1">
    <g id="line2d_57">
     <path d="M 377.765781 301.365113 
L 385.765781 301.365113 
L 393.765781 301.365113 
" style="fill: none; stroke: #9aa0a6; stroke-width: 1.8; stroke-linecap: square"/>
    </g>
    <g id="text_26">
     <!-- learned baseline (EWMA) -->
     <g transform="translate(400.165781 304.165113) scale(0.08 -0.08)">
      <defs>
       <path id="DejaVuSans-28" d="M 628 4666 
L 3578 4666 
L 3578 4134 
L 1259 4134 
L 1259 2753 
L 3481 2753 
L 3481 2222 
L 1259 2222 
L 1259 531 
L 3634 531 
L 3634 0 
L 628 0 
L 628 4666 
z
" transform="scale(0.015625)"/>
       <path id="DejaVuSans-30" d="M 628 4666 
L 1569 4666 
L 2759 1491 
L 3956 4666 
L 4897 4666 
L 4897 0 
L 4281 0 
L 4281 4097 
L 3078 897 
L 2444 897 
L 1241 4097 
L 1241 0 
L 628 0 
L 628 4666 
z
" transform="scale(0.015625)"/>
      </defs>
      <use xlink:href="#DejaVuSans-4f"/>
      <use xlink:href="#DejaVuSans-48" transform="translate(27.78125 0)"/>
      <use xlink:href="#DejaVuSans-44" transform="translate(89.3125 0)"/>
      <use xlink:href="#DejaVuSans-55" transform="translate(150.59375 0)"/>
      <use xlink:href="#DejaVuSans-51" transform="translate(189.953125 0)"/>
      <use xlink:href="#DejaVuSans-48" transform="translate(253.328125 0)"/>
      <use xlink:href="#DejaVuSans-47" transform="translate(314.859375 0)"/>
      <use xlink:href="#DejaVuSans-3" transform="translate(378.34375 0)"/>
      <use xlink:href="#DejaVuSans-45" transform="translate(410.125 0)"/>
      <use xlink:href="#DejaVuSans-44" transform="translate(473.609375 0)"/>
      <use xlink:href="#DejaVuSans-56" transform="translate(534.890625 0)"/>
      <use xlink:href="#DejaVuSans-48" transform="translate(586.984375 0)"/>
      <use xlink:href="#DejaVuSans-4f" transform="translate(648.515625 0)"/>
      <use xlink:href="#DejaVuSans-4c" transform="translate(676.296875 0)"/>
      <use xlink:href="#DejaVuSans-51" transform="translate(704.078125 0)"/>
      <use xlink:href="#DejaVuSans-48" transform="translate(767.453125 0)"/>
      <use xlink:href="#DejaVuSans-3" transform="translate(828.984375 0)"/>
      <use xlink:href="#DejaVuSans-b" transform="translate(860.765625 0)"/>
      <use xlink:href="#DejaVuSans-28" transform="translate(899.78125 0)"/>
      <use xlink:href="#DejaVuSans-3a" transform="translate(962.96875 0)"/>
      <use xlink:href="#DejaVuSans-30" transform="translate(1061.84375 0)"/>
      <use xlink:href="#DejaVuSans-24" transform="translate(1148.125 0)"/>
      <use xlink:href="#DejaVuSans-c" transform="translate(1216.53125 0)"/>
     </g>
    </g>
    <g id="line2d_58">
     <path d="M 377.765781 313.365738 
L 385.765781 313.365738 
L 393.765781 313.365738 
" style="fill: none; stroke-dasharray: 1.4,2.31; stroke-dashoffset: 0; stroke: #b06000; stroke-width: 1.4"/>
    </g>
    <g id="text_27">
     <!-- backoff threshold (2x baseline, floor 2) -->
     <g transform="translate(400.165781 316.165738) scale(0.08 -0.08)">
      <defs>
       <path id="DejaVuSans-f" d="M 750 794 
L 1409 794 
L 1409 256 
L 897 -744 
L 494 -744 
L 750 256 
L 750 794 
z
" transform="scale(0.015625)"/>
       <path id="DejaVuSans-13b0" d="M 1831 4863 
L 3431 4863 
L 3431 0 
L 2853 0 
L 2853 4384 
L 1825 4384 
Q 1516 4384 1395 4259 
Q 1275 4134 1275 3809 
L 1275 3500 
L 2222 3500 
L 2222 3053 
L 1275 3053 
L 1275 0 
L 697 0 
L 697 3053 
L 147 3053 
L 147 3500 
L 697 3500 
L 697 3744 
Q 697 4328 969 4595 
Q 1241 4863 1831 4863 
z
" transform="scale(0.015625)"/>
      </defs>
      <use xlink:href="#DejaVuSans-45"/>
      <use xlink:href="#DejaVuSans-44" transform="translate(63.484375 0)"/>
      <use xlink:href="#DejaVuSans-46" transform="translate(124.765625 0)"/>
      <use xlink:href="#DejaVuSans-4e" transform="translate(179.75 0)"/>
      <use xlink:href="#DejaVuSans-52" transform="translate(234.09375 0)"/>
      <use xlink:href="#DejaVuSans-13ae" transform="translate(295.28125 0)"/>
      <use xlink:href="#DejaVuSans-3" transform="translate(364.171875 0)"/>
      <use xlink:href="#DejaVuSans-57" transform="translate(395.953125 0)"/>
      <use xlink:href="#DejaVuSans-4b" transform="translate(435.15625 0)"/>
      <use xlink:href="#DejaVuSans-55" transform="translate(498.53125 0)"/>
      <use xlink:href="#DejaVuSans-48" transform="translate(537.4375 0)"/>
      <use xlink:href="#DejaVuSans-56" transform="translate(598.96875 0)"/>
      <use xlink:href="#DejaVuSans-4b" transform="translate(651.0625 0)"/>
      <use xlink:href="#DejaVuSans-52" transform="translate(714.4375 0)"/>
      <use xlink:href="#DejaVuSans-4f" transform="translate(775.625 0)"/>
      <use xlink:href="#DejaVuSans-47" transform="translate(803.40625 0)"/>
      <use xlink:href="#DejaVuSans-3" transform="translate(866.890625 0)"/>
      <use xlink:href="#DejaVuSans-b" transform="translate(898.671875 0)"/>
      <use xlink:href="#DejaVuSans-15" transform="translate(937.6875 0)"/>
      <use xlink:href="#DejaVuSans-5b" transform="translate(1001.3125 0)"/>
      <use xlink:href="#DejaVuSans-3" transform="translate(1060.5 0)"/>
      <use xlink:href="#DejaVuSans-45" transform="translate(1092.28125 0)"/>
      <use xlink:href="#DejaVuSans-44" transform="translate(1155.765625 0)"/>
      <use xlink:href="#DejaVuSans-56" transform="translate(1217.046875 0)"/>
      <use xlink:href="#DejaVuSans-48" transform="translate(1269.140625 0)"/>
      <use xlink:href="#DejaVuSans-4f" transform="translate(1330.671875 0)"/>
      <use xlink:href="#DejaVuSans-4c" transform="translate(1358.453125 0)"/>
      <use xlink:href="#DejaVuSans-51" transform="translate(1386.234375 0)"/>
      <use xlink:href="#DejaVuSans-48" transform="translate(1449.609375 0)"/>
      <use xlink:href="#DejaVuSans-f" transform="translate(1511.140625 0)"/>
      <use xlink:href="#DejaVuSans-3" transform="translate(1542.921875 0)"/>
      <use xlink:href="#DejaVuSans-13b0" transform="translate(1574.703125 0)"/>
      <use xlink:href="#DejaVuSans-52" transform="translate(1637.6875 0)"/>
      <use xlink:href="#DejaVuSans-52" transform="translate(1698.875 0)"/>
      <use xlink:href="#DejaVuSans-55" transform="translate(1760.0625 0)"/>
      <use xlink:href="#DejaVuSans-3" transform="translate(1801.171875 0)"/>
      <use xlink:href="#DejaVuSans-15" transform="translate(1832.953125 0)"/>
      <use xlink:href="#DejaVuSans-c" transform="translate(1896.578125 0)"/>
     </g>
    </g>
    <g id="PathCollection_2">
     <g>
      <use xlink:href="#m849ab44abf" x="385.765781" y="326.066363" style="fill: #d2553b; stroke: #d2553b"/>
     </g>
    </g>
    <g id="text_28">
     <!-- live IO/lock waiters (sampled) -->
     <g transform="translate(400.165781 328.166363) scale(0.08 -0.08)">
      <defs>
       <path id="DejaVuSans-2c" d="M 628 4666 
L 1259 4666 
L 1259 0 
L 628 0 
L 628 4666 
z
" transform="scale(0.015625)"/>
       <path id="DejaVuSans-32" d="M 2522 4238 
Q 1834 4238 1429 3725 
Q 1025 3213 1025 2328 
Q 1025 1447 1429 934 
Q 1834 422 2522 422 
Q 3209 422 3611 934 
Q 4013 1447 4013 2328 
Q 4013 3213 3611 3725 
Q 3209 4238 2522 4238 
z
M 2522 4750 
Q 3503 4750 4090 4092 
Q 4678 3434 4678 2328 
Q 4678 1225 4090 567 
Q 3503 -91 2522 -91 
Q 1538 -91 948 565 
Q 359 1222 359 2328 
Q 359 3434 948 4092 
Q 1538 4750 2522 4750 
z
" transform="scale(0.015625)"/>
      </defs>
      <use xlink:href="#DejaVuSans-4f"/>
      <use xlink:href="#DejaVuSans-4c" transform="translate(27.78125 0)"/>
      <use xlink:href="#DejaVuSans-59" transform="translate(55.5625 0)"/>
      <use xlink:href="#DejaVuSans-48" transform="translate(114.75 0)"/>
      <use xlink:href="#DejaVuSans-3" transform="translate(176.28125 0)"/>
      <use xlink:href="#DejaVuSans-2c" transform="translate(208.0625 0)"/>
      <use xlink:href="#DejaVuSans-32" transform="translate(237.5625 0)"/>
      <use xlink:href="#DejaVuSans-12" transform="translate(316.28125 0)"/>
      <use xlink:href="#DejaVuSans-4f" transform="translate(349.96875 0)"/>
      <use xlink:href="#DejaVuSans-52" transform="translate(377.75 0)"/>
      <use xlink:href="#DejaVuSans-46" transform="translate(438.9375 0)"/>
      <use xlink:href="#DejaVuSans-4e" transform="translate(493.921875 0)"/>
      <use xlink:href="#DejaVuSans-3" transform="translate(551.828125 0)"/>
      <use xlink:href="#DejaVuSans-5a" transform="translate(583.609375 0)"/>
      <use xlink:href="#DejaVuSans-44" transform="translate(665.390625 0)"/>
      <use xlink:href="#DejaVuSans-4c" transform="translate(726.671875 0)"/>
      <use xlink:href="#DejaVuSans-57" transform="translate(754.453125 0)"/>
      <use xlink:href="#DejaVuSans-48" transform="translate(793.65625 0)"/>
      <use xlink:href="#DejaVuSans-55" transform="translate(855.1875 0)"/>
      <use xlink:href="#DejaVuSans-56" transform="translate(896.296875 0)"/>
      <use xlink:href="#DejaVuSans-3" transform="translate(948.390625 0)"/>
      <use xlink:href="#DejaVuSans-b" transform="translate(980.171875 0)"/>
      <use xlink:href="#DejaVuSans-56" transform="translate(1019.1875 0)"/>
      <use xlink:href="#DejaVuSans-44" transform="translate(1071.28125 0)"/>
      <use xlink:href="#DejaVuSans-50" transform="translate(1132.5625 0)"/>
      <use xlink:href="#DejaVuSans-53" transform="translate(1229.96875 0)"/>
      <use xlink:href="#DejaVuSans-4f" transform="translate(1293.453125 0)"/>
      <use xlink:href="#DejaVuSans-48" transform="translate(1321.234375 0)"/>
      <use xlink:href="#DejaVuSans-47" transform="translate(1382.765625 0)"/>
      <use xlink:href="#DejaVuSans-c" transform="translate(1446.25 0)"/>
     </g>
    </g>
   </g>
  </g>
 </g>
 <defs>
  <clipPath id="pa3e6c6e9fc">
   <rect x="60.013281" y="35.862363" width="502.2" height="221.76"/>
  </clipPath>
  <clipPath id="p98fba13aef">
   <rect x="60.013281" y="290.886363" width="502.2" height="110.88"/>
  </clipPath>
 </defs>
</svg>
